<?xml version="1.0" encoding="utf-8" standalone="no"?>
<!DOCTYPE svg PUBLIC "-//W3C//DTD SVG 1.1//EN"
  "http://www.w3.org/Graphics/SVG/1.1/DTD/svg11.dtd">
<!-- Created with matplotlib (https://matplotlib.org/) -->
<svg height="144pt" version="1.1" viewBox="0 0 684 144" width="684pt" xmlns="http://www.w3.org/2000/svg" xmlns:xlink="http://www.w3.org/1999/xlink">
 <defs>
  <style type="text/css">
*{stroke-linecap:butt;stroke-linejoin:round;}
  </style>
 </defs>
 <g id="figure_1">
  <g id="patch_1">
   <path d="M 0 144 
L 684 144 
L 684 0 
L 0 0 
z
" style="fill:#ffffff;"/>
  </g>
  <g id="axes_1">
   <g id="patch_2">
    <path d="M 50.675 119.2 
L 233.733333 119.2 
L 233.733333 26.8 
L 50.675 26.8 
z
" style="fill:#ffffff;"/>
   </g>
   <g id="patch_3">
    <path clip-path="url(#pd9298ad447)" d="M 58.995833 119.2 
L 72.580867 119.2 
L 72.580867 118.939738 
L 58.995833 118.939738 
z
" style="fill:#1f77b4;"/>
   </g>
   <g id="patch_4">
    <path clip-path="url(#pd9298ad447)" d="M 75.977126 119.2 
L 89.56216 119.2 
L 89.56216 118.944379 
L 75.977126 118.944379 
z
" style="fill:#1f77b4;"/>
   </g>
   <g id="patch_5">
    <path clip-path="url(#pd9298ad447)" d="M 92.958418 119.2 
L 106.543452 119.2 
L 106.543452 119.172197 
L 92.958418 119.172197 
z
" style="fill:#1f77b4;"/>
   </g>
   <g id="patch_6">
    <path clip-path="url(#pd9298ad447)" d="M 109.939711 119.2 
L 123.524745 119.2 
L 123.524745 118.946684 
L 109.939711 118.946684 
z
" style="fill:#1f77b4;"/>
   </g>
   <g id="patch_7">
    <path clip-path="url(#pd9298ad447)" d="M 126.921003 119.2 
L 140.506037 119.2 
L 140.506037 119.193576 
L 126.921003 119.193576 
z
" style="fill:#1f77b4;"/>
   </g>
   <g id="patch_8">
    <path clip-path="url(#pd9298ad447)" d="M 143.902296 119.2 
L 157.48733 119.2 
L 157.48733 119.190635 
L 143.902296 119.190635 
z
" style="fill:#1f77b4;"/>
   </g>
   <g id="patch_9">
    <path clip-path="url(#pd9298ad447)" d="M 160.883588 119.2 
L 174.468622 119.2 
L 174.468622 119.172619 
L 160.883588 119.172619 
z
" style="fill:#1f77b4;"/>
   </g>
   <g id="patch_10">
    <path clip-path="url(#pd9298ad447)" d="M 177.864881 119.2 
L 191.449915 119.2 
L 191.449915 118.945913 
L 177.864881 118.945913 
z
" style="fill:#1f77b4;"/>
   </g>
   <g id="patch_11">
    <path clip-path="url(#pd9298ad447)" d="M 194.846173 119.2 
L 208.431207 119.2 
L 208.431207 118.939964 
L 194.846173 118.939964 
z
" style="fill:#1f77b4;"/>
   </g>
   <g id="patch_12">
    <path clip-path="url(#pd9298ad447)" d="M 211.827466 119.2 
L 225.4125 119.2 
L 225.4125 119.166298 
L 211.827466 119.166298 
z
" style="fill:#1f77b4;"/>
   </g>
   <g id="patch_13">
    <path clip-path="url(#pd9298ad447)" d="M 58.995833 118.939738 
L 72.580867 118.939738 
L 72.580867 118.798143 
L 58.995833 118.798143 
z
" style="fill:#ff7f0e;"/>
   </g>
   <g id="patch_14">
    <path clip-path="url(#pd9298ad447)" d="M 75.977126 118.944379 
L 89.56216 118.944379 
L 89.56216 111.685254 
L 75.977126 111.685254 
z
" style="fill:#ff7f0e;"/>
   </g>
   <g id="patch_15">
    <path clip-path="url(#pd9298ad447)" d="M 92.958418 119.172197 
L 106.543452 119.172197 
L 106.543452 111.682167 
L 92.958418 111.682167 
z
" style="fill:#ff7f0e;"/>
   </g>
   <g id="patch_16">
    <path clip-path="url(#pd9298ad447)" d="M 109.939711 118.946684 
L 123.524745 118.946684 
L 123.524745 111.683967 
L 109.939711 111.683967 
z
" style="fill:#ff7f0e;"/>
   </g>
   <g id="patch_17">
    <path clip-path="url(#pd9298ad447)" d="M 126.921003 119.193576 
L 140.506037 119.193576 
L 140.506037 111.677702 
L 126.921003 111.677702 
z
" style="fill:#ff7f0e;"/>
   </g>
   <g id="patch_18">
    <path clip-path="url(#pd9298ad447)" d="M 143.902296 119.190635 
L 157.48733 119.190635 
L 157.48733 111.678945 
L 143.902296 111.678945 
z
" style="fill:#ff7f0e;"/>
   </g>
   <g id="patch_19">
    <path clip-path="url(#pd9298ad447)" d="M 160.883588 119.172619 
L 174.468622 119.172619 
L 174.468622 111.681717 
L 160.883588 111.681717 
z
" style="fill:#ff7f0e;"/>
   </g>
   <g id="patch_20">
    <path clip-path="url(#pd9298ad447)" d="M 177.864881 118.945913 
L 191.449915 118.945913 
L 191.449915 111.684254 
L 177.864881 111.684254 
z
" style="fill:#ff7f0e;"/>
   </g>
   <g id="patch_21">
    <path clip-path="url(#pd9298ad447)" d="M 194.846173 118.939964 
L 208.431207 118.939964 
L 208.431207 111.686012 
L 194.846173 111.686012 
z
" style="fill:#ff7f0e;"/>
   </g>
   <g id="patch_22">
    <path clip-path="url(#pd9298ad447)" d="M 211.827466 119.166298 
L 225.4125 119.166298 
L 225.4125 111.683251 
L 211.827466 111.683251 
z
" style="fill:#ff7f0e;"/>
   </g>
   <g id="patch_23">
    <path clip-path="url(#pd9298ad447)" d="M 58.995833 118.798143 
L 72.580867 118.798143 
L 72.580867 118.793796 
L 58.995833 118.793796 
z
" style="fill:#2ca02c;"/>
   </g>
   <g id="patch_24">
    <path clip-path="url(#pd9298ad447)" d="M 75.977126 111.685254 
L 89.56216 111.685254 
L 89.56216 111.681313 
L 75.977126 111.681313 
z
" style="fill:#2ca02c;"/>
   </g>
   <g id="patch_25">
    <path clip-path="url(#pd9298ad447)" d="M 92.958418 111.682167 
L 106.543452 111.682167 
L 106.543452 111.679164 
L 92.958418 111.679164 
z
" style="fill:#2ca02c;"/>
   </g>
   <g id="patch_26">
    <path clip-path="url(#pd9298ad447)" d="M 109.939711 111.683967 
L 123.524745 111.683967 
L 123.524745 111.68069 
L 109.939711 111.68069 
z
" style="fill:#2ca02c;"/>
   </g>
   <g id="patch_27">
    <path clip-path="url(#pd9298ad447)" d="M 126.921003 111.677702 
L 140.506037 111.677702 
L 140.506037 111.674198 
L 126.921003 111.674198 
z
" style="fill:#2ca02c;"/>
   </g>
   <g id="patch_28">
    <path clip-path="url(#pd9298ad447)" d="M 143.902296 111.678945 
L 157.48733 111.678945 
L 157.48733 111.67604 
L 143.902296 111.67604 
z
" style="fill:#2ca02c;"/>
   </g>
   <g id="patch_29">
    <path clip-path="url(#pd9298ad447)" d="M 160.883588 111.681717 
L 174.468622 111.681717 
L 174.468622 111.678687 
L 160.883588 111.678687 
z
" style="fill:#2ca02c;"/>
   </g>
   <g id="patch_30">
    <path clip-path="url(#pd9298ad447)" d="M 177.864881 111.684254 
L 191.449915 111.684254 
L 191.449915 111.680668 
L 177.864881 111.680668 
z
" style="fill:#2ca02c;"/>
   </g>
   <g id="patch_31">
    <path clip-path="url(#pd9298ad447)" d="M 194.846173 111.686012 
L 208.431207 111.686012 
L 208.431207 111.683141 
L 194.846173 111.683141 
z
" style="fill:#2ca02c;"/>
   </g>
   <g id="patch_32">
    <path clip-path="url(#pd9298ad447)" d="M 211.827466 111.683251 
L 225.4125 111.683251 
L 225.4125 111.680381 
L 211.827466 111.680381 
z
" style="fill:#2ca02c;"/>
   </g>
   <g id="patch_33">
    <path clip-path="url(#pd9298ad447)" d="M 58.995833 118.793796 
L 72.580867 118.793796 
L 72.580867 31.2 
L 58.995833 31.2 
z
" style="fill:#d62728;"/>
   </g>
   <g id="patch_34">
    <path clip-path="url(#pd9298ad447)" d="M 75.977126 111.681313 
L 89.56216 111.681313 
L 89.56216 33.288363 
L 75.977126 33.288363 
z
" style="fill:#d62728;"/>
   </g>
   <g id="patch_35">
    <path clip-path="url(#pd9298ad447)" d="M 92.958418 111.679164 
L 106.543452 111.679164 
L 106.543452 38.422795 
L 92.958418 38.422795 
z
" style="fill:#d62728;"/>
   </g>
   <g id="patch_36">
    <path clip-path="url(#pd9298ad447)" d="M 109.939711 111.68069 
L 123.524745 111.68069 
L 123.524745 42.498867 
L 109.939711 42.498867 
z
" style="fill:#d62728;"/>
   </g>
   <g id="patch_37">
    <path clip-path="url(#pd9298ad447)" d="M 126.921003 111.674198 
L 140.506037 111.674198 
L 140.506037 47.289567 
L 126.921003 47.289567 
z
" style="fill:#d62728;"/>
   </g>
   <g id="patch_38">
    <path clip-path="url(#pd9298ad447)" d="M 143.902296 111.67604 
L 157.48733 111.67604 
L 157.48733 54.036665 
L 143.902296 54.036665 
z
" style="fill:#d62728;"/>
   </g>
   <g id="patch_39">
    <path clip-path="url(#pd9298ad447)" d="M 160.883588 111.678687 
L 174.468622 111.678687 
L 174.468622 57.302131 
L 160.883588 57.302131 
z
" style="fill:#d62728;"/>
   </g>
   <g id="patch_40">
    <path clip-path="url(#pd9298ad447)" d="M 177.864881 111.680668 
L 191.449915 111.680668 
L 191.449915 57.304239 
L 177.864881 57.304239 
z
" style="fill:#d62728;"/>
   </g>
   <g id="patch_41">
    <path clip-path="url(#pd9298ad447)" d="M 194.846173 111.683141 
L 208.431207 111.683141 
L 208.431207 63.501315 
L 194.846173 63.501315 
z
" style="fill:#d62728;"/>
   </g>
   <g id="patch_42">
    <path clip-path="url(#pd9298ad447)" d="M 211.827466 111.680381 
L 225.4125 111.680381 
L 225.4125 69.081337 
L 211.827466 69.081337 
z
" style="fill:#d62728;"/>
   </g>
   <g id="matplotlib.axis_1">
    <g id="text_1">
     <!-- Task -->
     <defs>
      <path d="M -0.296875 72.90625 
L 61.375 72.90625 
L 61.375 64.59375 
L 35.5 64.59375 
L 35.5 0 
L 25.59375 0 
L 25.59375 64.59375 
L -0.296875 64.59375 
z
" id="DejaVuSans-84"/>
      <path d="M 34.28125 27.484375 
Q 23.390625 27.484375 19.1875 25 
Q 14.984375 22.515625 14.984375 16.5 
Q 14.984375 11.71875 18.140625 8.90625 
Q 21.296875 6.109375 26.703125 6.109375 
Q 34.1875 6.109375 38.703125 11.40625 
Q 43.21875 16.703125 43.21875 25.484375 
L 43.21875 27.484375 
z
M 52.203125 31.203125 
L 52.203125 0 
L 43.21875 0 
L 43.21875 8.296875 
Q 40.140625 3.328125 35.546875 0.953125 
Q 30.953125 -1.421875 24.3125 -1.421875 
Q 15.921875 -1.421875 10.953125 3.296875 
Q 6 8.015625 6 15.921875 
Q 6 25.140625 12.171875 29.828125 
Q 18.359375 34.515625 30.609375 34.515625 
L 43.21875 34.515625 
L 43.21875 35.40625 
Q 43.21875 41.609375 39.140625 45 
Q 35.0625 48.390625 27.6875 48.390625 
Q 23 48.390625 18.546875 47.265625 
Q 14.109375 46.140625 10.015625 43.890625 
L 10.015625 52.203125 
Q 14.9375 54.109375 19.578125 55.046875 
Q 24.21875 56 28.609375 56 
Q 40.484375 56 46.34375 49.84375 
Q 52.203125 43.703125 52.203125 31.203125 
z
" id="DejaVuSans-97"/>
      <path d="M 44.28125 53.078125 
L 44.28125 44.578125 
Q 40.484375 46.53125 36.375 47.5 
Q 32.28125 48.484375 27.875 48.484375 
Q 21.1875 48.484375 17.84375 46.4375 
Q 14.5 44.390625 14.5 40.28125 
Q 14.5 37.15625 16.890625 35.375 
Q 19.28125 33.59375 26.515625 31.984375 
L 29.59375 31.296875 
Q 39.15625 29.25 43.1875 25.515625 
Q 47.21875 21.78125 47.21875 15.09375 
Q 47.21875 7.46875 41.1875 3.015625 
Q 35.15625 -1.421875 24.609375 -1.421875 
Q 20.21875 -1.421875 15.453125 -0.5625 
Q 10.6875 0.296875 5.421875 2 
L 5.421875 11.28125 
Q 10.40625 8.6875 15.234375 7.390625 
Q 20.0625 6.109375 24.8125 6.109375 
Q 31.15625 6.109375 34.5625 8.28125 
Q 37.984375 10.453125 37.984375 14.40625 
Q 37.984375 18.0625 35.515625 20.015625 
Q 33.0625 21.96875 24.703125 23.78125 
L 21.578125 24.515625 
Q 13.234375 26.265625 9.515625 29.90625 
Q 5.8125 33.546875 5.8125 39.890625 
Q 5.8125 47.609375 11.28125 51.796875 
Q 16.75 56 26.8125 56 
Q 31.78125 56 36.171875 55.265625 
Q 40.578125 54.546875 44.28125 53.078125 
z
" id="DejaVuSans-115"/>
      <path d="M 9.078125 75.984375 
L 18.109375 75.984375 
L 18.109375 31.109375 
L 44.921875 54.6875 
L 56.390625 54.6875 
L 27.390625 29.109375 
L 57.625 0 
L 45.90625 0 
L 18.109375 26.703125 
L 18.109375 0 
L 9.078125 0 
z
" id="DejaVuSans-107"/>
     </defs>
     <g transform="translate(130.598698 130.798438)scale(0.1 -0.1)">
      <use xlink:href="#DejaVuSans-84"/>
      <use x="60.833984" xlink:href="#DejaVuSans-97"/>
      <use x="122.113281" xlink:href="#DejaVuSans-115"/>
      <use x="174.212891" xlink:href="#DejaVuSans-107"/>
     </g>
    </g>
   </g>
   <g id="matplotlib.axis_2">
    <g id="ytick_1">
     <g id="line2d_1">
      <defs>
       <path d="M 0 0 
L -3.5 0 
" id="m10f10be60b" style="stroke:#000000;stroke-width:0.8;"/>
      </defs>
      <g>
       <use style="stroke:#000000;stroke-width:0.8;" x="50.675" xlink:href="#m10f10be60b" y="119.2"/>
      </g>
     </g>
     <g id="text_2">
      <!-- 0 -->
      <defs>
       <path d="M 31.78125 66.40625 
Q 24.171875 66.40625 20.328125 58.90625 
Q 16.5 51.421875 16.5 36.375 
Q 16.5 21.390625 20.328125 13.890625 
Q 24.171875 6.390625 31.78125 6.390625 
Q 39.453125 6.390625 43.28125 13.890625 
Q 47.125 21.390625 47.125 36.375 
Q 47.125 51.421875 43.28125 58.90625 
Q 39.453125 66.40625 31.78125 66.40625 
z
M 31.78125 74.21875 
Q 44.046875 74.21875 50.515625 64.515625 
Q 56.984375 54.828125 56.984375 36.375 
Q 56.984375 17.96875 50.515625 8.265625 
Q 44.046875 -1.421875 31.78125 -1.421875 
Q 19.53125 -1.421875 13.0625 8.265625 
Q 6.59375 17.96875 6.59375 36.375 
Q 6.59375 54.828125 13.0625 64.515625 
Q 19.53125 74.21875 31.78125 74.21875 
z
" id="DejaVuSans-48"/>
      </defs>
      <g transform="translate(37.3125 122.999219)scale(0.1 -0.1)">
       <use xlink:href="#DejaVuSans-48"/>
      </g>
     </g>
    </g>
    <g id="ytick_2">
     <g id="line2d_2">
      <g>
       <use style="stroke:#000000;stroke-width:0.8;" x="50.675" xlink:href="#m10f10be60b" y="78.631186"/>
      </g>
     </g>
     <g id="text_3">
      <!-- 200 -->
      <defs>
       <path d="M 19.1875 8.296875 
L 53.609375 8.296875 
L 53.609375 0 
L 7.328125 0 
L 7.328125 8.296875 
Q 12.9375 14.109375 22.625 23.890625 
Q 32.328125 33.6875 34.8125 36.53125 
Q 39.546875 41.84375 41.421875 45.53125 
Q 43.3125 49.21875 43.3125 52.78125 
Q 43.3125 58.59375 39.234375 62.25 
Q 35.15625 65.921875 28.609375 65.921875 
Q 23.96875 65.921875 18.8125 64.3125 
Q 13.671875 62.703125 7.8125 59.421875 
L 7.8125 69.390625 
Q 13.765625 71.78125 18.9375 73 
Q 24.125 74.21875 28.421875 74.21875 
Q 39.75 74.21875 46.484375 68.546875 
Q 53.21875 62.890625 53.21875 53.421875 
Q 53.21875 48.921875 51.53125 44.890625 
Q 49.859375 40.875 45.40625 35.40625 
Q 44.1875 33.984375 37.640625 27.21875 
Q 31.109375 20.453125 19.1875 8.296875 
z
" id="DejaVuSans-50"/>
      </defs>
      <g transform="translate(24.5875 82.430405)scale(0.1 -0.1)">
       <use xlink:href="#DejaVuSans-50"/>
       <use x="63.623047" xlink:href="#DejaVuSans-48"/>
       <use x="127.246094" xlink:href="#DejaVuSans-48"/>
      </g>
     </g>
    </g>
    <g id="ytick_3">
     <g id="line2d_3">
      <g>
       <use style="stroke:#000000;stroke-width:0.8;" x="50.675" xlink:href="#m10f10be60b" y="38.062372"/>
      </g>
     </g>
     <g id="text_4">
      <!-- 400 -->
      <defs>
       <path d="M 37.796875 64.3125 
L 12.890625 25.390625 
L 37.796875 25.390625 
z
M 35.203125 72.90625 
L 47.609375 72.90625 
L 47.609375 25.390625 
L 58.015625 25.390625 
L 58.015625 17.1875 
L 47.609375 17.1875 
L 47.609375 0 
L 37.796875 0 
L 37.796875 17.1875 
L 4.890625 17.1875 
L 4.890625 26.703125 
z
" id="DejaVuSans-52"/>
      </defs>
      <g transform="translate(24.5875 41.861591)scale(0.1 -0.1)">
       <use xlink:href="#DejaVuSans-52"/>
       <use x="63.623047" xlink:href="#DejaVuSans-48"/>
       <use x="127.246094" xlink:href="#DejaVuSans-48"/>
      </g>
     </g>
    </g>
    <g id="text_5">
     <!-- Communication Time (s) -->
     <defs>
      <path d="M 64.40625 67.28125 
L 64.40625 56.890625 
Q 59.421875 61.53125 53.78125 63.8125 
Q 48.140625 66.109375 41.796875 66.109375 
Q 29.296875 66.109375 22.65625 58.46875 
Q 16.015625 50.828125 16.015625 36.375 
Q 16.015625 21.96875 22.65625 14.328125 
Q 29.296875 6.6875 41.796875 6.6875 
Q 48.140625 6.6875 53.78125 8.984375 
Q 59.421875 11.28125 64.40625 15.921875 
L 64.40625 5.609375 
Q 59.234375 2.09375 53.4375 0.328125 
Q 47.65625 -1.421875 41.21875 -1.421875 
Q 24.65625 -1.421875 15.125 8.703125 
Q 5.609375 18.84375 5.609375 36.375 
Q 5.609375 53.953125 15.125 64.078125 
Q 24.65625 74.21875 41.21875 74.21875 
Q 47.75 74.21875 53.53125 72.484375 
Q 59.328125 70.75 64.40625 67.28125 
z
" id="DejaVuSans-67"/>
      <path d="M 30.609375 48.390625 
Q 23.390625 48.390625 19.1875 42.75 
Q 14.984375 37.109375 14.984375 27.296875 
Q 14.984375 17.484375 19.15625 11.84375 
Q 23.34375 6.203125 30.609375 6.203125 
Q 37.796875 6.203125 41.984375 11.859375 
Q 46.1875 17.53125 46.1875 27.296875 
Q 46.1875 37.015625 41.984375 42.703125 
Q 37.796875 48.390625 30.609375 48.390625 
z
M 30.609375 56 
Q 42.328125 56 49.015625 48.375 
Q 55.71875 40.765625 55.71875 27.296875 
Q 55.71875 13.875 49.015625 6.21875 
Q 42.328125 -1.421875 30.609375 -1.421875 
Q 18.84375 -1.421875 12.171875 6.21875 
Q 5.515625 13.875 5.515625 27.296875 
Q 5.515625 40.765625 12.171875 48.375 
Q 18.84375 56 30.609375 56 
z
" id="DejaVuSans-111"/>
      <path d="M 52 44.1875 
Q 55.375 50.25 60.0625 53.125 
Q 64.75 56 71.09375 56 
Q 79.640625 56 84.28125 50.015625 
Q 88.921875 44.046875 88.921875 33.015625 
L 88.921875 0 
L 79.890625 0 
L 79.890625 32.71875 
Q 79.890625 40.578125 77.09375 44.375 
Q 74.3125 48.1875 68.609375 48.1875 
Q 61.625 48.1875 57.5625 43.546875 
Q 53.515625 38.921875 53.515625 30.90625 
L 53.515625 0 
L 44.484375 0 
L 44.484375 32.71875 
Q 44.484375 40.625 41.703125 44.40625 
Q 38.921875 48.1875 33.109375 48.1875 
Q 26.21875 48.1875 22.15625 43.53125 
Q 18.109375 38.875 18.109375 30.90625 
L 18.109375 0 
L 9.078125 0 
L 9.078125 54.6875 
L 18.109375 54.6875 
L 18.109375 46.1875 
Q 21.1875 51.21875 25.484375 53.609375 
Q 29.78125 56 35.6875 56 
Q 41.65625 56 45.828125 52.96875 
Q 50 49.953125 52 44.1875 
z
" id="DejaVuSans-109"/>
      <path d="M 8.5 21.578125 
L 8.5 54.6875 
L 17.484375 54.6875 
L 17.484375 21.921875 
Q 17.484375 14.15625 20.5 10.265625 
Q 23.53125 6.390625 29.59375 6.390625 
Q 36.859375 6.390625 41.078125 11.03125 
Q 45.3125 15.671875 45.3125 23.6875 
L 45.3125 54.6875 
L 54.296875 54.6875 
L 54.296875 0 
L 45.3125 0 
L 45.3125 8.40625 
Q 42.046875 3.421875 37.71875 1 
Q 33.40625 -1.421875 27.6875 -1.421875 
Q 18.265625 -1.421875 13.375 4.4375 
Q 8.5 10.296875 8.5 21.578125 
z
M 31.109375 56 
z
" id="DejaVuSans-117"/>
      <path d="M 54.890625 33.015625 
L 54.890625 0 
L 45.90625 0 
L 45.90625 32.71875 
Q 45.90625 40.484375 42.875 44.328125 
Q 39.84375 48.1875 33.796875 48.1875 
Q 26.515625 48.1875 22.3125 43.546875 
Q 18.109375 38.921875 18.109375 30.90625 
L 18.109375 0 
L 9.078125 0 
L 9.078125 54.6875 
L 18.109375 54.6875 
L 18.109375 46.1875 
Q 21.34375 51.125 25.703125 53.5625 
Q 30.078125 56 35.796875 56 
Q 45.21875 56 50.046875 50.171875 
Q 54.890625 44.34375 54.890625 33.015625 
z
" id="DejaVuSans-110"/>
      <path d="M 9.421875 54.6875 
L 18.40625 54.6875 
L 18.40625 0 
L 9.421875 0 
z
M 9.421875 75.984375 
L 18.40625 75.984375 
L 18.40625 64.59375 
L 9.421875 64.59375 
z
" id="DejaVuSans-105"/>
      <path d="M 48.78125 52.59375 
L 48.78125 44.1875 
Q 44.96875 46.296875 41.140625 47.34375 
Q 37.3125 48.390625 33.40625 48.390625 
Q 24.65625 48.390625 19.8125 42.84375 
Q 14.984375 37.3125 14.984375 27.296875 
Q 14.984375 17.28125 19.8125 11.734375 
Q 24.65625 6.203125 33.40625 6.203125 
Q 37.3125 6.203125 41.140625 7.25 
Q 44.96875 8.296875 48.78125 10.40625 
L 48.78125 2.09375 
Q 45.015625 0.34375 40.984375 -0.53125 
Q 36.96875 -1.421875 32.421875 -1.421875 
Q 20.0625 -1.421875 12.78125 6.34375 
Q 5.515625 14.109375 5.515625 27.296875 
Q 5.515625 40.671875 12.859375 48.328125 
Q 20.21875 56 33.015625 56 
Q 37.15625 56 41.109375 55.140625 
Q 45.0625 54.296875 48.78125 52.59375 
z
" id="DejaVuSans-99"/>
      <path d="M 18.3125 70.21875 
L 18.3125 54.6875 
L 36.8125 54.6875 
L 36.8125 47.703125 
L 18.3125 47.703125 
L 18.3125 18.015625 
Q 18.3125 11.328125 20.140625 9.421875 
Q 21.96875 7.515625 27.59375 7.515625 
L 36.8125 7.515625 
L 36.8125 0 
L 27.59375 0 
Q 17.1875 0 13.234375 3.875 
Q 9.28125 7.765625 9.28125 18.015625 
L 9.28125 47.703125 
L 2.6875 47.703125 
L 2.6875 54.6875 
L 9.28125 54.6875 
L 9.28125 70.21875 
z
" id="DejaVuSans-116"/>
      <path id="DejaVuSans-32"/>
      <path d="M 56.203125 29.59375 
L 56.203125 25.203125 
L 14.890625 25.203125 
Q 15.484375 15.921875 20.484375 11.0625 
Q 25.484375 6.203125 34.421875 6.203125 
Q 39.59375 6.203125 44.453125 7.46875 
Q 49.3125 8.734375 54.109375 11.28125 
L 54.109375 2.78125 
Q 49.265625 0.734375 44.1875 -0.34375 
Q 39.109375 -1.421875 33.890625 -1.421875 
Q 20.796875 -1.421875 13.15625 6.1875 
Q 5.515625 13.8125 5.515625 26.8125 
Q 5.515625 40.234375 12.765625 48.109375 
Q 20.015625 56 32.328125 56 
Q 43.359375 56 49.78125 48.890625 
Q 56.203125 41.796875 56.203125 29.59375 
z
M 47.21875 32.234375 
Q 47.125 39.59375 43.09375 43.984375 
Q 39.0625 48.390625 32.421875 48.390625 
Q 24.90625 48.390625 20.390625 44.140625 
Q 15.875 39.890625 15.1875 32.171875 
z
" id="DejaVuSans-101"/>
      <path d="M 31 75.875 
Q 24.46875 64.65625 21.28125 53.65625 
Q 18.109375 42.671875 18.109375 31.390625 
Q 18.109375 20.125 21.3125 9.0625 
Q 24.515625 -2 31 -13.1875 
L 23.1875 -13.1875 
Q 15.875 -1.703125 12.234375 9.375 
Q 8.59375 20.453125 8.59375 31.390625 
Q 8.59375 42.28125 12.203125 53.3125 
Q 15.828125 64.359375 23.1875 75.875 
z
" id="DejaVuSans-40"/>
      <path d="M 8.015625 75.875 
L 15.828125 75.875 
Q 23.140625 64.359375 26.78125 53.3125 
Q 30.421875 42.28125 30.421875 31.390625 
Q 30.421875 20.453125 26.78125 9.375 
Q 23.140625 -1.703125 15.828125 -13.1875 
L 8.015625 -13.1875 
Q 14.5 -2 17.703125 9.0625 
Q 20.90625 20.125 20.90625 31.390625 
Q 20.90625 42.671875 17.703125 53.65625 
Q 14.5 64.65625 8.015625 75.875 
z
" id="DejaVuSans-41"/>
     </defs>
     <g transform="translate(18.507813 134.480469)rotate(-90)scale(0.1 -0.1)">
      <use xlink:href="#DejaVuSans-67"/>
      <use x="69.824219" xlink:href="#DejaVuSans-111"/>
      <use x="131.005859" xlink:href="#DejaVuSans-109"/>
      <use x="228.417969" xlink:href="#DejaVuSans-109"/>
      <use x="325.830078" xlink:href="#DejaVuSans-117"/>
      <use x="389.208984" xlink:href="#DejaVuSans-110"/>
      <use x="452.587891" xlink:href="#DejaVuSans-105"/>
      <use x="480.371094" xlink:href="#DejaVuSans-99"/>
      <use x="535.351562" xlink:href="#DejaVuSans-97"/>
      <use x="596.630859" xlink:href="#DejaVuSans-116"/>
      <use x="635.839844" xlink:href="#DejaVuSans-105"/>
      <use x="663.623047" xlink:href="#DejaVuSans-111"/>
      <use x="724.804688" xlink:href="#DejaVuSans-110"/>
      <use x="788.183594" xlink:href="#DejaVuSans-32"/>
      <use x="819.970703" xlink:href="#DejaVuSans-84"/>
      <use x="881.007812" xlink:href="#DejaVuSans-105"/>
      <use x="908.791016" xlink:href="#DejaVuSans-109"/>
      <use x="1006.203125" xlink:href="#DejaVuSans-101"/>
      <use x="1067.726562" xlink:href="#DejaVuSans-32"/>
      <use x="1099.513672" xlink:href="#DejaVuSans-40"/>
      <use x="1138.527344" xlink:href="#DejaVuSans-115"/>
      <use x="1190.626953" xlink:href="#DejaVuSans-41"/>
     </g>
    </g>
   </g>
   <g id="patch_43">
    <path d="M 50.675 119.2 
L 50.675 26.8 
" style="fill:none;stroke:#000000;stroke-linecap:square;stroke-linejoin:miter;stroke-width:0.8;"/>
   </g>
   <g id="patch_44">
    <path d="M 233.733333 119.2 
L 233.733333 26.8 
" style="fill:none;stroke:#000000;stroke-linecap:square;stroke-linejoin:miter;stroke-width:0.8;"/>
   </g>
   <g id="patch_45">
    <path d="M 50.675 119.2 
L 233.733333 119.2 
" style="fill:none;stroke:#000000;stroke-linecap:square;stroke-linejoin:miter;stroke-width:0.8;"/>
   </g>
   <g id="patch_46">
    <path d="M 50.675 26.8 
L 233.733333 26.8 
" style="fill:none;stroke:#000000;stroke-linecap:square;stroke-linejoin:miter;stroke-width:0.8;"/>
   </g>
   <g id="text_6">
    <!-- NWChem -->
    <defs>
     <path d="M 9.8125 72.90625 
L 23.09375 72.90625 
L 55.421875 11.921875 
L 55.421875 72.90625 
L 64.984375 72.90625 
L 64.984375 0 
L 51.703125 0 
L 19.390625 60.984375 
L 19.390625 0 
L 9.8125 0 
z
" id="DejaVuSans-78"/>
     <path d="M 3.328125 72.90625 
L 13.28125 72.90625 
L 28.609375 11.28125 
L 43.890625 72.90625 
L 54.984375 72.90625 
L 70.3125 11.28125 
L 85.59375 72.90625 
L 95.609375 72.90625 
L 77.296875 0 
L 64.890625 0 
L 49.515625 63.28125 
L 33.984375 0 
L 21.578125 0 
z
" id="DejaVuSans-87"/>
     <path d="M 54.890625 33.015625 
L 54.890625 0 
L 45.90625 0 
L 45.90625 32.71875 
Q 45.90625 40.484375 42.875 44.328125 
Q 39.84375 48.1875 33.796875 48.1875 
Q 26.515625 48.1875 22.3125 43.546875 
Q 18.109375 38.921875 18.109375 30.90625 
L 18.109375 0 
L 9.078125 0 
L 9.078125 75.984375 
L 18.109375 75.984375 
L 18.109375 46.1875 
Q 21.34375 51.125 25.703125 53.5625 
Q 30.078125 56 35.796875 56 
Q 45.21875 56 50.046875 50.171875 
Q 54.890625 44.34375 54.890625 33.015625 
z
" id="DejaVuSans-104"/>
    </defs>
    <g transform="translate(114.254479 20.8)scale(0.12 -0.12)">
     <use xlink:href="#DejaVuSans-78"/>
     <use x="74.804688" xlink:href="#DejaVuSans-87"/>
     <use x="173.681641" xlink:href="#DejaVuSans-67"/>
     <use x="243.505859" xlink:href="#DejaVuSans-104"/>
     <use x="306.884766" xlink:href="#DejaVuSans-101"/>
     <use x="368.408203" xlink:href="#DejaVuSans-109"/>
    </g>
   </g>
  </g>
  <g id="axes_2">
   <g id="patch_47">
    <path d="M 270.408333 119.2 
L 453.466667 119.2 
L 453.466667 26.8 
L 270.408333 26.8 
z
" style="fill:#ffffff;"/>
   </g>
   <g id="patch_48">
    <path clip-path="url(#pa6d49ba19f)" d="M 278.729167 119.2 
L 301.68319 119.2 
L 301.68319 118.974842 
L 278.729167 118.974842 
z
" style="fill:#1f77b4;"/>
   </g>
   <g id="patch_49">
    <path clip-path="url(#pa6d49ba19f)" d="M 307.421695 119.2 
L 330.375718 119.2 
L 330.375718 118.763383 
L 307.421695 118.763383 
z
" style="fill:#1f77b4;"/>
   </g>
   <g id="patch_50">
    <path clip-path="url(#pa6d49ba19f)" d="M 336.114224 119.2 
L 359.068247 119.2 
L 359.068247 118.930067 
L 336.114224 118.930067 
z
" style="fill:#1f77b4;"/>
   </g>
   <g id="patch_51">
    <path clip-path="url(#pa6d49ba19f)" d="M 364.806753 119.2 
L 387.760776 119.2 
L 387.760776 118.896672 
L 364.806753 118.896672 
z
" style="fill:#1f77b4;"/>
   </g>
   <g id="patch_52">
    <path clip-path="url(#pa6d49ba19f)" d="M 393.499282 119.2 
L 416.453305 119.2 
L 416.453305 118.899454 
L 393.499282 118.899454 
z
" style="fill:#1f77b4;"/>
   </g>
   <g id="patch_53">
    <path clip-path="url(#pa6d49ba19f)" d="M 422.19181 119.2 
L 445.145833 119.2 
L 445.145833 118.968059 
L 422.19181 118.968059 
z
" style="fill:#1f77b4;"/>
   </g>
   <g id="patch_54">
    <path clip-path="url(#pa6d49ba19f)" d="M 278.729167 118.974842 
L 301.68319 118.974842 
L 301.68319 36.616857 
L 278.729167 36.616857 
z
" style="fill:#ff7f0e;"/>
   </g>
   <g id="patch_55">
    <path clip-path="url(#pa6d49ba19f)" d="M 307.421695 118.763383 
L 330.375718 118.763383 
L 330.375718 117.307976 
L 307.421695 117.307976 
z
" style="fill:#ff7f0e;"/>
   </g>
   <g id="patch_56">
    <path clip-path="url(#pa6d49ba19f)" d="M 336.114224 118.930067 
L 359.068247 118.930067 
L 359.068247 117.986938 
L 336.114224 117.986938 
z
" style="fill:#ff7f0e;"/>
   </g>
   <g id="patch_57">
    <path clip-path="url(#pa6d49ba19f)" d="M 364.806753 118.896672 
L 387.760776 118.896672 
L 387.760776 118.105946 
L 364.806753 118.105946 
z
" style="fill:#ff7f0e;"/>
   </g>
   <g id="patch_58">
    <path clip-path="url(#pa6d49ba19f)" d="M 393.499282 118.899454 
L 416.453305 118.899454 
L 416.453305 118.058436 
L 393.499282 118.058436 
z
" style="fill:#ff7f0e;"/>
   </g>
   <g id="patch_59">
    <path clip-path="url(#pa6d49ba19f)" d="M 422.19181 118.968059 
L 445.145833 118.968059 
L 445.145833 118.210456 
L 422.19181 118.210456 
z
" style="fill:#ff7f0e;"/>
   </g>
   <g id="patch_60">
    <path clip-path="url(#pa6d49ba19f)" d="M 278.729167 36.616857 
L 301.68319 36.616857 
L 301.68319 34.971142 
L 278.729167 34.971142 
z
" style="fill:#2ca02c;"/>
   </g>
   <g id="patch_61">
    <path clip-path="url(#pa6d49ba19f)" d="M 307.421695 117.307976 
L 330.375718 117.307976 
L 330.375718 116.633715 
L 307.421695 116.633715 
z
" style="fill:#2ca02c;"/>
   </g>
   <g id="patch_62">
    <path clip-path="url(#pa6d49ba19f)" d="M 336.114224 117.986938 
L 359.068247 117.986938 
L 359.068247 117.672843 
L 336.114224 117.672843 
z
" style="fill:#2ca02c;"/>
   </g>
   <g id="patch_63">
    <path clip-path="url(#pa6d49ba19f)" d="M 364.806753 118.105946 
L 387.760776 118.105946 
L 387.760776 117.759747 
L 364.806753 117.759747 
z
" style="fill:#2ca02c;"/>
   </g>
   <g id="patch_64">
    <path clip-path="url(#pa6d49ba19f)" d="M 393.499282 118.058436 
L 416.453305 118.058436 
L 416.453305 117.74124 
L 393.499282 117.74124 
z
" style="fill:#2ca02c;"/>
   </g>
   <g id="patch_65">
    <path clip-path="url(#pa6d49ba19f)" d="M 422.19181 118.210456 
L 445.145833 118.210456 
L 445.145833 117.971805 
L 422.19181 117.971805 
z
" style="fill:#2ca02c;"/>
   </g>
   <g id="patch_66">
    <path clip-path="url(#pa6d49ba19f)" d="M 278.729167 34.971142 
L 301.68319 34.971142 
L 301.68319 31.2 
L 278.729167 31.2 
z
" style="fill:#d62728;"/>
   </g>
   <g id="patch_67">
    <path clip-path="url(#pa6d49ba19f)" d="M 307.421695 116.633715 
L 330.375718 116.633715 
L 330.375718 115.606117 
L 307.421695 115.606117 
z
" style="fill:#d62728;"/>
   </g>
   <g id="patch_68">
    <path clip-path="url(#pa6d49ba19f)" d="M 336.114224 117.672843 
L 359.068247 117.672843 
L 359.068247 116.845376 
L 336.114224 116.845376 
z
" style="fill:#d62728;"/>
   </g>
   <g id="patch_69">
    <path clip-path="url(#pa6d49ba19f)" d="M 364.806753 117.759747 
L 387.760776 117.759747 
L 387.760776 116.982219 
L 364.806753 116.982219 
z
" style="fill:#d62728;"/>
   </g>
   <g id="patch_70">
    <path clip-path="url(#pa6d49ba19f)" d="M 393.499282 117.74124 
L 416.453305 117.74124 
L 416.453305 117.089993 
L 393.499282 117.089993 
z
" style="fill:#d62728;"/>
   </g>
   <g id="patch_71">
    <path clip-path="url(#pa6d49ba19f)" d="M 422.19181 117.971805 
L 445.145833 117.971805 
L 445.145833 117.257341 
L 422.19181 117.257341 
z
" style="fill:#d62728;"/>
   </g>
   <g id="matplotlib.axis_3">
    <g id="text_7">
     <!-- Task -->
     <g transform="translate(350.332031 130.798438)scale(0.1 -0.1)">
      <use xlink:href="#DejaVuSans-84"/>
      <use x="60.833984" xlink:href="#DejaVuSans-97"/>
      <use x="122.113281" xlink:href="#DejaVuSans-115"/>
      <use x="174.212891" xlink:href="#DejaVuSans-107"/>
     </g>
    </g>
   </g>
   <g id="matplotlib.axis_4">
    <g id="ytick_4">
     <g id="line2d_4">
      <g>
       <use style="stroke:#000000;stroke-width:0.8;" x="270.408333" xlink:href="#m10f10be60b" y="119.2"/>
      </g>
     </g>
     <g id="text_8">
      <!-- 0 -->
      <g transform="translate(257.045833 122.999219)scale(0.1 -0.1)">
       <use xlink:href="#DejaVuSans-48"/>
      </g>
     </g>
    </g>
    <g id="ytick_5">
     <g id="line2d_5">
      <g>
       <use style="stroke:#000000;stroke-width:0.8;" x="270.408333" xlink:href="#m10f10be60b" y="90.81098"/>
      </g>
     </g>
     <g id="text_9">
      <!-- 200 -->
      <g transform="translate(244.320833 94.610199)scale(0.1 -0.1)">
       <use xlink:href="#DejaVuSans-50"/>
       <use x="63.623047" xlink:href="#DejaVuSans-48"/>
       <use x="127.246094" xlink:href="#DejaVuSans-48"/>
      </g>
     </g>
    </g>
    <g id="ytick_6">
     <g id="line2d_6">
      <g>
       <use style="stroke:#000000;stroke-width:0.8;" x="270.408333" xlink:href="#m10f10be60b" y="62.42196"/>
      </g>
     </g>
     <g id="text_10">
      <!-- 400 -->
      <g transform="translate(244.320833 66.221178)scale(0.1 -0.1)">
       <use xlink:href="#DejaVuSans-52"/>
       <use x="63.623047" xlink:href="#DejaVuSans-48"/>
       <use x="127.246094" xlink:href="#DejaVuSans-48"/>
      </g>
     </g>
    </g>
    <g id="ytick_7">
     <g id="line2d_7">
      <g>
       <use style="stroke:#000000;stroke-width:0.8;" x="270.408333" xlink:href="#m10f10be60b" y="34.03294"/>
      </g>
     </g>
     <g id="text_11">
      <!-- 600 -->
      <defs>
       <path d="M 33.015625 40.375 
Q 26.375 40.375 22.484375 35.828125 
Q 18.609375 31.296875 18.609375 23.390625 
Q 18.609375 15.53125 22.484375 10.953125 
Q 26.375 6.390625 33.015625 6.390625 
Q 39.65625 6.390625 43.53125 10.953125 
Q 47.40625 15.53125 47.40625 23.390625 
Q 47.40625 31.296875 43.53125 35.828125 
Q 39.65625 40.375 33.015625 40.375 
z
M 52.59375 71.296875 
L 52.59375 62.3125 
Q 48.875 64.0625 45.09375 64.984375 
Q 41.3125 65.921875 37.59375 65.921875 
Q 27.828125 65.921875 22.671875 59.328125 
Q 17.53125 52.734375 16.796875 39.40625 
Q 19.671875 43.65625 24.015625 45.921875 
Q 28.375 48.1875 33.59375 48.1875 
Q 44.578125 48.1875 50.953125 41.515625 
Q 57.328125 34.859375 57.328125 23.390625 
Q 57.328125 12.15625 50.6875 5.359375 
Q 44.046875 -1.421875 33.015625 -1.421875 
Q 20.359375 -1.421875 13.671875 8.265625 
Q 6.984375 17.96875 6.984375 36.375 
Q 6.984375 53.65625 15.1875 63.9375 
Q 23.390625 74.21875 37.203125 74.21875 
Q 40.921875 74.21875 44.703125 73.484375 
Q 48.484375 72.75 52.59375 71.296875 
z
" id="DejaVuSans-54"/>
      </defs>
      <g transform="translate(244.320833 37.832158)scale(0.1 -0.1)">
       <use xlink:href="#DejaVuSans-54"/>
       <use x="63.623047" xlink:href="#DejaVuSans-48"/>
       <use x="127.246094" xlink:href="#DejaVuSans-48"/>
      </g>
     </g>
    </g>
   </g>
   <g id="patch_72">
    <path d="M 270.408333 119.2 
L 270.408333 26.8 
" style="fill:none;stroke:#000000;stroke-linecap:square;stroke-linejoin:miter;stroke-width:0.8;"/>
   </g>
   <g id="patch_73">
    <path d="M 453.466667 119.2 
L 453.466667 26.8 
" style="fill:none;stroke:#000000;stroke-linecap:square;stroke-linejoin:miter;stroke-width:0.8;"/>
   </g>
   <g id="patch_74">
    <path d="M 270.408333 119.2 
L 453.466667 119.2 
" style="fill:none;stroke:#000000;stroke-linecap:square;stroke-linejoin:miter;stroke-width:0.8;"/>
   </g>
   <g id="patch_75">
    <path d="M 270.408333 26.8 
L 453.466667 26.8 
" style="fill:none;stroke:#000000;stroke-linecap:square;stroke-linejoin:miter;stroke-width:0.8;"/>
   </g>
   <g id="text_12">
    <!-- RL -->
    <defs>
     <path d="M 44.390625 34.1875 
Q 47.5625 33.109375 50.5625 29.59375 
Q 53.5625 26.078125 56.59375 19.921875 
L 66.609375 0 
L 56 0 
L 46.6875 18.703125 
Q 43.0625 26.03125 39.671875 28.421875 
Q 36.28125 30.8125 30.421875 30.8125 
L 19.671875 30.8125 
L 19.671875 0 
L 9.8125 0 
L 9.8125 72.90625 
L 32.078125 72.90625 
Q 44.578125 72.90625 50.734375 67.671875 
Q 56.890625 62.453125 56.890625 51.90625 
Q 56.890625 45.015625 53.6875 40.46875 
Q 50.484375 35.9375 44.390625 34.1875 
z
M 19.671875 64.796875 
L 19.671875 38.921875 
L 32.078125 38.921875 
Q 39.203125 38.921875 42.84375 42.21875 
Q 46.484375 45.515625 46.484375 51.90625 
Q 46.484375 58.296875 42.84375 61.546875 
Q 39.203125 64.796875 32.078125 64.796875 
z
" id="DejaVuSans-82"/>
     <path d="M 9.8125 72.90625 
L 19.671875 72.90625 
L 19.671875 8.296875 
L 55.171875 8.296875 
L 55.171875 0 
L 9.8125 0 
z
" id="DejaVuSans-76"/>
    </defs>
    <g transform="translate(354.425313 20.8)scale(0.12 -0.12)">
     <use xlink:href="#DejaVuSans-82"/>
     <use x="69.482422" xlink:href="#DejaVuSans-76"/>
    </g>
   </g>
   <g id="legend_1">
    <g id="patch_76">
     <path d="M 336.374479 93.5125 
L 446.466667 93.5125 
Q 448.466667 93.5125 448.466667 91.5125 
L 448.466667 33.8 
Q 448.466667 31.8 446.466667 31.8 
L 336.374479 31.8 
Q 334.374479 31.8 334.374479 33.8 
L 334.374479 91.5125 
Q 334.374479 93.5125 336.374479 93.5125 
z
" style="fill:#ffffff;opacity:0.8;stroke:#cccccc;stroke-linejoin:miter;"/>
    </g>
    <g id="patch_77">
     <path d="M 338.374479 43.398438 
L 358.374479 43.398438 
L 358.374479 36.398438 
L 338.374479 36.398438 
z
" style="fill:#1f77b4;"/>
    </g>
    <g id="text_13">
     <!-- client-&gt;server -->
     <defs>
      <path d="M 9.421875 75.984375 
L 18.40625 75.984375 
L 18.40625 0 
L 9.421875 0 
z
" id="DejaVuSans-108"/>
      <path d="M 4.890625 31.390625 
L 31.203125 31.390625 
L 31.203125 23.390625 
L 4.890625 23.390625 
z
" id="DejaVuSans-45"/>
      <path d="M 10.59375 49.21875 
L 10.59375 58.109375 
L 73.1875 35.40625 
L 73.1875 27.296875 
L 10.59375 4.59375 
L 10.59375 13.484375 
L 60.890625 31.296875 
z
" id="DejaVuSans-62"/>
      <path d="M 41.109375 46.296875 
Q 39.59375 47.171875 37.8125 47.578125 
Q 36.03125 48 33.890625 48 
Q 26.265625 48 22.1875 43.046875 
Q 18.109375 38.09375 18.109375 28.8125 
L 18.109375 0 
L 9.078125 0 
L 9.078125 54.6875 
L 18.109375 54.6875 
L 18.109375 46.1875 
Q 20.953125 51.171875 25.484375 53.578125 
Q 30.03125 56 36.53125 56 
Q 37.453125 56 38.578125 55.875 
Q 39.703125 55.765625 41.0625 55.515625 
z
" id="DejaVuSans-114"/>
      <path d="M 2.984375 54.6875 
L 12.5 54.6875 
L 29.59375 8.796875 
L 46.6875 54.6875 
L 56.203125 54.6875 
L 35.6875 0 
L 23.484375 0 
z
" id="DejaVuSans-118"/>
     </defs>
     <g transform="translate(366.374479 43.398438)scale(0.1 -0.1)">
      <use xlink:href="#DejaVuSans-99"/>
      <use x="54.980469" xlink:href="#DejaVuSans-108"/>
      <use x="82.763672" xlink:href="#DejaVuSans-105"/>
      <use x="110.546875" xlink:href="#DejaVuSans-101"/>
      <use x="172.070312" xlink:href="#DejaVuSans-110"/>
      <use x="235.449219" xlink:href="#DejaVuSans-116"/>
      <use x="274.658203" xlink:href="#DejaVuSans-45"/>
      <use x="310.742188" xlink:href="#DejaVuSans-62"/>
      <use x="394.53125" xlink:href="#DejaVuSans-115"/>
      <use x="446.630859" xlink:href="#DejaVuSans-101"/>
      <use x="508.154297" xlink:href="#DejaVuSans-114"/>
      <use x="549.267578" xlink:href="#DejaVuSans-118"/>
      <use x="608.447266" xlink:href="#DejaVuSans-101"/>
      <use x="669.970703" xlink:href="#DejaVuSans-114"/>
     </g>
    </g>
    <g id="patch_78">
     <path d="M 338.374479 58.076562 
L 358.374479 58.076562 
L 358.374479 51.076562 
L 338.374479 51.076562 
z
" style="fill:#ff7f0e;"/>
    </g>
    <g id="text_14">
     <!-- server-&gt;worker -->
     <defs>
      <path d="M 4.203125 54.6875 
L 13.1875 54.6875 
L 24.421875 12.015625 
L 35.59375 54.6875 
L 46.1875 54.6875 
L 57.421875 12.015625 
L 68.609375 54.6875 
L 77.59375 54.6875 
L 63.28125 0 
L 52.6875 0 
L 40.921875 44.828125 
L 29.109375 0 
L 18.5 0 
z
" id="DejaVuSans-119"/>
     </defs>
     <g transform="translate(366.374479 58.076562)scale(0.1 -0.1)">
      <use xlink:href="#DejaVuSans-115"/>
      <use x="52.099609" xlink:href="#DejaVuSans-101"/>
      <use x="113.623047" xlink:href="#DejaVuSans-114"/>
      <use x="154.736328" xlink:href="#DejaVuSans-118"/>
      <use x="213.916016" xlink:href="#DejaVuSans-101"/>
      <use x="275.439453" xlink:href="#DejaVuSans-114"/>
      <use x="316.458984" xlink:href="#DejaVuSans-45"/>
      <use x="352.542969" xlink:href="#DejaVuSans-62"/>
      <use x="436.332031" xlink:href="#DejaVuSans-119"/>
      <use x="518.119141" xlink:href="#DejaVuSans-111"/>
      <use x="579.300781" xlink:href="#DejaVuSans-114"/>
      <use x="620.414062" xlink:href="#DejaVuSans-107"/>
      <use x="678.277344" xlink:href="#DejaVuSans-101"/>
      <use x="739.800781" xlink:href="#DejaVuSans-114"/>
     </g>
    </g>
    <g id="patch_79">
     <path d="M 338.374479 72.754688 
L 358.374479 72.754688 
L 358.374479 65.754688 
L 338.374479 65.754688 
z
" style="fill:#2ca02c;"/>
    </g>
    <g id="text_15">
     <!-- worker-&gt;server -->
     <g transform="translate(366.374479 72.754688)scale(0.1 -0.1)">
      <use xlink:href="#DejaVuSans-119"/>
      <use x="81.787109" xlink:href="#DejaVuSans-111"/>
      <use x="142.96875" xlink:href="#DejaVuSans-114"/>
      <use x="184.082031" xlink:href="#DejaVuSans-107"/>
      <use x="241.945312" xlink:href="#DejaVuSans-101"/>
      <use x="303.46875" xlink:href="#DejaVuSans-114"/>
      <use x="344.488281" xlink:href="#DejaVuSans-45"/>
      <use x="380.572266" xlink:href="#DejaVuSans-62"/>
      <use x="464.361328" xlink:href="#DejaVuSans-115"/>
      <use x="516.460938" xlink:href="#DejaVuSans-101"/>
      <use x="577.984375" xlink:href="#DejaVuSans-114"/>
      <use x="619.097656" xlink:href="#DejaVuSans-118"/>
      <use x="678.277344" xlink:href="#DejaVuSans-101"/>
      <use x="739.800781" xlink:href="#DejaVuSans-114"/>
     </g>
    </g>
    <g id="patch_80">
     <path d="M 338.374479 87.432813 
L 358.374479 87.432813 
L 358.374479 80.432813 
L 338.374479 80.432813 
z
" style="fill:#d62728;"/>
    </g>
    <g id="text_16">
     <!-- server-&gt;client -->
     <g transform="translate(366.374479 87.432813)scale(0.1 -0.1)">
      <use xlink:href="#DejaVuSans-115"/>
      <use x="52.099609" xlink:href="#DejaVuSans-101"/>
      <use x="113.623047" xlink:href="#DejaVuSans-114"/>
      <use x="154.736328" xlink:href="#DejaVuSans-118"/>
      <use x="213.916016" xlink:href="#DejaVuSans-101"/>
      <use x="275.439453" xlink:href="#DejaVuSans-114"/>
      <use x="316.458984" xlink:href="#DejaVuSans-45"/>
      <use x="352.542969" xlink:href="#DejaVuSans-62"/>
      <use x="436.332031" xlink:href="#DejaVuSans-99"/>
      <use x="491.3125" xlink:href="#DejaVuSans-108"/>
      <use x="519.095703" xlink:href="#DejaVuSans-105"/>
      <use x="546.878906" xlink:href="#DejaVuSans-101"/>
      <use x="608.402344" xlink:href="#DejaVuSans-110"/>
      <use x="671.78125" xlink:href="#DejaVuSans-116"/>
     </g>
    </g>
   </g>
  </g>
  <g id="axes_3">
   <g id="patch_81">
    <path d="M 490.141667 119.2 
L 673.2 119.2 
L 673.2 26.8 
L 490.141667 26.8 
z
" style="fill:#ffffff;"/>
   </g>
   <g id="patch_82">
    <path clip-path="url(#p94c52c41fa)" d="M 498.4625 119.2 
L 521.416523 119.2 
L 521.416523 118.707354 
L 498.4625 118.707354 
z
" style="fill:#1f77b4;"/>
   </g>
   <g id="patch_83">
    <path clip-path="url(#p94c52c41fa)" d="M 527.155029 119.2 
L 550.109052 119.2 
L 550.109052 112.077043 
L 527.155029 112.077043 
z
" style="fill:#1f77b4;"/>
   </g>
   <g id="patch_84">
    <path clip-path="url(#p94c52c41fa)" d="M 555.847557 119.2 
L 578.80158 119.2 
L 578.80158 118.572353 
L 555.847557 118.572353 
z
" style="fill:#1f77b4;"/>
   </g>
   <g id="patch_85">
    <path clip-path="url(#p94c52c41fa)" d="M 584.540086 119.2 
L 607.494109 119.2 
L 607.494109 115.583548 
L 584.540086 115.583548 
z
" style="fill:#1f77b4;"/>
   </g>
   <g id="patch_86">
    <path clip-path="url(#p94c52c41fa)" d="M 613.232615 119.2 
L 636.186638 119.2 
L 636.186638 117.323665 
L 613.232615 117.323665 
z
" style="fill:#1f77b4;"/>
   </g>
   <g id="patch_87">
    <path clip-path="url(#p94c52c41fa)" d="M 641.925144 119.2 
L 664.879167 119.2 
L 664.879167 118.689858 
L 641.925144 118.689858 
z
" style="fill:#1f77b4;"/>
   </g>
   <g id="patch_88">
    <path clip-path="url(#p94c52c41fa)" d="M 498.4625 118.707354 
L 521.416523 118.707354 
L 521.416523 42.356282 
L 498.4625 42.356282 
z
" style="fill:#ff7f0e;"/>
   </g>
   <g id="patch_89">
    <path clip-path="url(#p94c52c41fa)" d="M 527.155029 112.077043 
L 550.109052 112.077043 
L 550.109052 99.913509 
L 527.155029 99.913509 
z
" style="fill:#ff7f0e;"/>
   </g>
   <g id="patch_90">
    <path clip-path="url(#p94c52c41fa)" d="M 555.847557 118.572353 
L 578.80158 118.572353 
L 578.80158 111.051368 
L 555.847557 111.051368 
z
" style="fill:#ff7f0e;"/>
   </g>
   <g id="patch_91">
    <path clip-path="url(#p94c52c41fa)" d="M 584.540086 115.583548 
L 607.494109 115.583548 
L 607.494109 105.449534 
L 584.540086 105.449534 
z
" style="fill:#ff7f0e;"/>
   </g>
   <g id="patch_92">
    <path clip-path="url(#p94c52c41fa)" d="M 613.232615 117.323665 
L 636.186638 117.323665 
L 636.186638 110.730355 
L 613.232615 110.730355 
z
" style="fill:#ff7f0e;"/>
   </g>
   <g id="patch_93">
    <path clip-path="url(#p94c52c41fa)" d="M 641.925144 118.689858 
L 664.879167 118.689858 
L 664.879167 113.969711 
L 641.925144 113.969711 
z
" style="fill:#ff7f0e;"/>
   </g>
   <g id="patch_94">
    <path clip-path="url(#p94c52c41fa)" d="M 498.4625 42.356282 
L 521.416523 42.356282 
L 521.416523 31.849795 
L 498.4625 31.849795 
z
" style="fill:#2ca02c;"/>
   </g>
   <g id="patch_95">
    <path clip-path="url(#p94c52c41fa)" d="M 527.155029 99.913509 
L 550.109052 99.913509 
L 550.109052 83.855103 
L 527.155029 83.855103 
z
" style="fill:#2ca02c;"/>
   </g>
   <g id="patch_96">
    <path clip-path="url(#p94c52c41fa)" d="M 555.847557 111.051368 
L 578.80158 111.051368 
L 578.80158 80.541009 
L 555.847557 80.541009 
z
" style="fill:#2ca02c;"/>
   </g>
   <g id="patch_97">
    <path clip-path="url(#p94c52c41fa)" d="M 584.540086 105.449534 
L 607.494109 105.449534 
L 607.494109 90.686988 
L 584.540086 90.686988 
z
" style="fill:#2ca02c;"/>
   </g>
   <g id="patch_98">
    <path clip-path="url(#p94c52c41fa)" d="M 613.232615 110.730355 
L 636.186638 110.730355 
L 636.186638 96.197926 
L 613.232615 96.197926 
z
" style="fill:#2ca02c;"/>
   </g>
   <g id="patch_99">
    <path clip-path="url(#p94c52c41fa)" d="M 641.925144 113.969711 
L 664.879167 113.969711 
L 664.879167 104.036186 
L 641.925144 104.036186 
z
" style="fill:#2ca02c;"/>
   </g>
   <g id="patch_100">
    <path clip-path="url(#p94c52c41fa)" d="M 498.4625 31.849795 
L 521.416523 31.849795 
L 521.416523 31.2 
L 498.4625 31.2 
z
" style="fill:#d62728;"/>
   </g>
   <g id="patch_101">
    <path clip-path="url(#p94c52c41fa)" d="M 527.155029 83.855103 
L 550.109052 83.855103 
L 550.109052 69.569016 
L 527.155029 69.569016 
z
" style="fill:#d62728;"/>
   </g>
   <g id="patch_102">
    <path clip-path="url(#p94c52c41fa)" d="M 555.847557 80.541009 
L 578.80158 80.541009 
L 578.80158 79.682368 
L 555.847557 79.682368 
z
" style="fill:#d62728;"/>
   </g>
   <g id="patch_103">
    <path clip-path="url(#p94c52c41fa)" d="M 584.540086 90.686988 
L 607.494109 90.686988 
L 607.494109 86.410486 
L 584.540086 86.410486 
z
" style="fill:#d62728;"/>
   </g>
   <g id="patch_104">
    <path clip-path="url(#p94c52c41fa)" d="M 613.232615 96.197926 
L 636.186638 96.197926 
L 636.186638 93.2947 
L 613.232615 93.2947 
z
" style="fill:#d62728;"/>
   </g>
   <g id="patch_105">
    <path clip-path="url(#p94c52c41fa)" d="M 641.925144 104.036186 
L 664.879167 104.036186 
L 664.879167 103.210318 
L 641.925144 103.210318 
z
" style="fill:#d62728;"/>
   </g>
   <g id="matplotlib.axis_5">
    <g id="text_17">
     <!-- Task -->
     <g transform="translate(570.065365 130.798438)scale(0.1 -0.1)">
      <use xlink:href="#DejaVuSans-84"/>
      <use x="60.833984" xlink:href="#DejaVuSans-97"/>
      <use x="122.113281" xlink:href="#DejaVuSans-115"/>
      <use x="174.212891" xlink:href="#DejaVuSans-107"/>
     </g>
    </g>
   </g>
   <g id="matplotlib.axis_6">
    <g id="ytick_8">
     <g id="line2d_8">
      <g>
       <use style="stroke:#000000;stroke-width:0.8;" x="490.141667" xlink:href="#m10f10be60b" y="119.2"/>
      </g>
     </g>
     <g id="text_18">
      <!-- 0.0 -->
      <defs>
       <path d="M 10.6875 12.40625 
L 21 12.40625 
L 21 0 
L 10.6875 0 
z
" id="DejaVuSans-46"/>
      </defs>
      <g transform="translate(467.238542 122.999219)scale(0.1 -0.1)">
       <use xlink:href="#DejaVuSans-48"/>
       <use x="63.623047" xlink:href="#DejaVuSans-46"/>
       <use x="95.410156" xlink:href="#DejaVuSans-48"/>
      </g>
     </g>
    </g>
    <g id="ytick_9">
     <g id="line2d_9">
      <g>
       <use style="stroke:#000000;stroke-width:0.8;" x="490.141667" xlink:href="#m10f10be60b" y="74.858688"/>
      </g>
     </g>
     <g id="text_19">
      <!-- 0.2 -->
      <g transform="translate(467.238542 78.657906)scale(0.1 -0.1)">
       <use xlink:href="#DejaVuSans-48"/>
       <use x="63.623047" xlink:href="#DejaVuSans-46"/>
       <use x="95.410156" xlink:href="#DejaVuSans-50"/>
      </g>
     </g>
    </g>
    <g id="ytick_10">
     <g id="line2d_10">
      <g>
       <use style="stroke:#000000;stroke-width:0.8;" x="490.141667" xlink:href="#m10f10be60b" y="30.517375"/>
      </g>
     </g>
     <g id="text_20">
      <!-- 0.4 -->
      <g transform="translate(467.238542 34.316594)scale(0.1 -0.1)">
       <use xlink:href="#DejaVuSans-48"/>
       <use x="63.623047" xlink:href="#DejaVuSans-46"/>
       <use x="95.410156" xlink:href="#DejaVuSans-52"/>
      </g>
     </g>
    </g>
   </g>
   <g id="patch_106">
    <path d="M 490.141667 119.2 
L 490.141667 26.8 
" style="fill:none;stroke:#000000;stroke-linecap:square;stroke-linejoin:miter;stroke-width:0.8;"/>
   </g>
   <g id="patch_107">
    <path d="M 673.2 119.2 
L 673.2 26.8 
" style="fill:none;stroke:#000000;stroke-linecap:square;stroke-linejoin:miter;stroke-width:0.8;"/>
   </g>
   <g id="patch_108">
    <path d="M 490.141667 119.2 
L 673.2 119.2 
" style="fill:none;stroke:#000000;stroke-linecap:square;stroke-linejoin:miter;stroke-width:0.8;"/>
   </g>
   <g id="patch_109">
    <path d="M 490.141667 26.8 
L 673.2 26.8 
" style="fill:none;stroke:#000000;stroke-linecap:square;stroke-linejoin:miter;stroke-width:0.8;"/>
   </g>
   <g id="text_21">
    <!-- Active Learning -->
    <defs>
     <path d="M 34.1875 63.1875 
L 20.796875 26.90625 
L 47.609375 26.90625 
z
M 28.609375 72.90625 
L 39.796875 72.90625 
L 67.578125 0 
L 57.328125 0 
L 50.6875 18.703125 
L 17.828125 18.703125 
L 11.1875 0 
L 0.78125 0 
z
" id="DejaVuSans-65"/>
     <path d="M 45.40625 27.984375 
Q 45.40625 37.75 41.375 43.109375 
Q 37.359375 48.484375 30.078125 48.484375 
Q 22.859375 48.484375 18.828125 43.109375 
Q 14.796875 37.75 14.796875 27.984375 
Q 14.796875 18.265625 18.828125 12.890625 
Q 22.859375 7.515625 30.078125 7.515625 
Q 37.359375 7.515625 41.375 12.890625 
Q 45.40625 18.265625 45.40625 27.984375 
z
M 54.390625 6.78125 
Q 54.390625 -7.171875 48.1875 -13.984375 
Q 42 -20.796875 29.203125 -20.796875 
Q 24.46875 -20.796875 20.265625 -20.09375 
Q 16.0625 -19.390625 12.109375 -17.921875 
L 12.109375 -9.1875 
Q 16.0625 -11.328125 19.921875 -12.34375 
Q 23.78125 -13.375 27.78125 -13.375 
Q 36.625 -13.375 41.015625 -8.765625 
Q 45.40625 -4.15625 45.40625 5.171875 
L 45.40625 9.625 
Q 42.625 4.78125 38.28125 2.390625 
Q 33.9375 0 27.875 0 
Q 17.828125 0 11.671875 7.65625 
Q 5.515625 15.328125 5.515625 27.984375 
Q 5.515625 40.671875 11.671875 48.328125 
Q 17.828125 56 27.875 56 
Q 33.9375 56 38.28125 53.609375 
Q 42.625 51.21875 45.40625 46.390625 
L 45.40625 54.6875 
L 54.390625 54.6875 
z
" id="DejaVuSans-103"/>
    </defs>
    <g transform="translate(534.841771 20.8)scale(0.12 -0.12)">
     <use xlink:href="#DejaVuSans-65"/>
     <use x="68.392578" xlink:href="#DejaVuSans-99"/>
     <use x="123.373047" xlink:href="#DejaVuSans-116"/>
     <use x="162.582031" xlink:href="#DejaVuSans-105"/>
     <use x="190.365234" xlink:href="#DejaVuSans-118"/>
     <use x="249.544922" xlink:href="#DejaVuSans-101"/>
     <use x="311.068359" xlink:href="#DejaVuSans-32"/>
     <use x="342.855469" xlink:href="#DejaVuSans-76"/>
     <use x="398.552734" xlink:href="#DejaVuSans-101"/>
     <use x="460.076172" xlink:href="#DejaVuSans-97"/>
     <use x="521.355469" xlink:href="#DejaVuSans-114"/>
     <use x="562.453125" xlink:href="#DejaVuSans-110"/>
     <use x="625.832031" xlink:href="#DejaVuSans-105"/>
     <use x="653.615234" xlink:href="#DejaVuSans-110"/>
     <use x="716.994141" xlink:href="#DejaVuSans-103"/>
    </g>
   </g>
  </g>
 </g>
 <defs>
  <clipPath id="pd9298ad447">
   <rect height="92.4" width="183.058333" x="50.675" y="26.8"/>
  </clipPath>
  <clipPath id="pa6d49ba19f">
   <rect height="92.4" width="183.058333" x="270.408333" y="26.8"/>
  </clipPath>
  <clipPath id="p94c52c41fa">
   <rect height="92.4" width="183.058333" x="490.141667" y="26.8"/>
  </clipPath>
 </defs>
</svg>
