<?xml version="1.0" encoding="utf-8" standalone="no"?>
<!DOCTYPE svg PUBLIC "-//W3C//DTD SVG 1.1//EN"
  "http://www.w3.org/Graphics/SVG/1.1/DTD/svg11.dtd">
<!-- Created with matplotlib (https://matplotlib.org/) -->
<svg height="144pt" version="1.1" viewBox="0 0 468 144" width="468pt" xmlns="http://www.w3.org/2000/svg" xmlns:xlink="http://www.w3.org/1999/xlink">
 <defs>
  <style type="text/css">
*{stroke-linecap:butt;stroke-linejoin:round;}
  </style>
 </defs>
 <g id="figure_1">
  <g id="patch_1">
   <path d="M 0 144 
L 468 144 
L 468 0 
L 0 0 
z
" style="fill:#ffffff;"/>
  </g>
  <g id="axes_1">
   <g id="patch_2">
    <path d="M 50.8 102.2 
L 160.644764 102.2 
L 160.644764 24.8 
L 50.8 24.8 
z
" style="fill:#ffffff;"/>
   </g>
   <g id="patch_3">
    <path clip-path="url(#pef91a4e6ef)" d="M 55.792944 102.2 
L 59.014198 102.2 
L 59.014198 28.485714 
L 55.792944 28.485714 
z
" style="fill:#1f77b4;"/>
   </g>
   <g id="patch_4">
    <path clip-path="url(#pef91a4e6ef)" d="M 59.014198 102.2 
L 62.235452 102.2 
L 62.235452 95.545238 
L 59.014198 95.545238 
z
" style="fill:#1f77b4;"/>
   </g>
   <g id="patch_5">
    <path clip-path="url(#pef91a4e6ef)" d="M 62.235452 102.2 
L 65.456706 102.2 
L 65.456706 101.688095 
L 62.235452 101.688095 
z
" style="fill:#1f77b4;"/>
   </g>
   <g id="patch_6">
    <path clip-path="url(#pef91a4e6ef)" d="M 65.456706 102.2 
L 68.67796 102.2 
L 68.67796 101.688095 
L 65.456706 101.688095 
z
" style="fill:#1f77b4;"/>
   </g>
   <g id="patch_7">
    <path clip-path="url(#pef91a4e6ef)" d="M 68.67796 102.2 
L 71.899214 102.2 
L 71.899214 101.688095 
L 68.67796 101.688095 
z
" style="fill:#1f77b4;"/>
   </g>
   <g id="patch_8">
    <path clip-path="url(#pef91a4e6ef)" d="M 71.899214 102.2 
L 75.120468 102.2 
L 75.120468 101.688095 
L 71.899214 101.688095 
z
" style="fill:#1f77b4;"/>
   </g>
   <g id="patch_9">
    <path clip-path="url(#pef91a4e6ef)" d="M 75.120468 102.2 
L 78.341722 102.2 
L 78.341722 102.2 
L 75.120468 102.2 
z
" style="fill:#1f77b4;"/>
   </g>
   <g id="patch_10">
    <path clip-path="url(#pef91a4e6ef)" d="M 78.341722 102.2 
L 81.562976 102.2 
L 81.562976 102.2 
L 78.341722 102.2 
z
" style="fill:#1f77b4;"/>
   </g>
   <g id="patch_11">
    <path clip-path="url(#pef91a4e6ef)" d="M 81.562976 102.2 
L 84.78423 102.2 
L 84.78423 102.2 
L 81.562976 102.2 
z
" style="fill:#1f77b4;"/>
   </g>
   <g id="patch_12">
    <path clip-path="url(#pef91a4e6ef)" d="M 84.78423 102.2 
L 88.005485 102.2 
L 88.005485 102.2 
L 84.78423 102.2 
z
" style="fill:#1f77b4;"/>
   </g>
   <g id="patch_13">
    <path clip-path="url(#pef91a4e6ef)" d="M 88.005485 102.2 
L 91.226739 102.2 
L 91.226739 102.2 
L 88.005485 102.2 
z
" style="fill:#1f77b4;"/>
   </g>
   <g id="patch_14">
    <path clip-path="url(#pef91a4e6ef)" d="M 91.226739 102.2 
L 94.447993 102.2 
L 94.447993 101.688095 
L 91.226739 101.688095 
z
" style="fill:#1f77b4;"/>
   </g>
   <g id="patch_15">
    <path clip-path="url(#pef91a4e6ef)" d="M 94.447993 102.2 
L 97.669247 102.2 
L 97.669247 101.17619 
L 94.447993 101.17619 
z
" style="fill:#1f77b4;"/>
   </g>
   <g id="patch_16">
    <path clip-path="url(#pef91a4e6ef)" d="M 97.669247 102.2 
L 100.890501 102.2 
L 100.890501 101.688095 
L 97.669247 101.688095 
z
" style="fill:#1f77b4;"/>
   </g>
   <g id="patch_17">
    <path clip-path="url(#pef91a4e6ef)" d="M 100.890501 102.2 
L 104.111755 102.2 
L 104.111755 102.2 
L 100.890501 102.2 
z
" style="fill:#1f77b4;"/>
   </g>
   <g id="patch_18">
    <path clip-path="url(#pef91a4e6ef)" d="M 104.111755 102.2 
L 107.333009 102.2 
L 107.333009 101.688095 
L 104.111755 101.688095 
z
" style="fill:#1f77b4;"/>
   </g>
   <g id="patch_19">
    <path clip-path="url(#pef91a4e6ef)" d="M 107.333009 102.2 
L 110.554263 102.2 
L 110.554263 102.2 
L 107.333009 102.2 
z
" style="fill:#1f77b4;"/>
   </g>
   <g id="patch_20">
    <path clip-path="url(#pef91a4e6ef)" d="M 110.554263 102.2 
L 113.775517 102.2 
L 113.775517 100.664286 
L 110.554263 100.664286 
z
" style="fill:#1f77b4;"/>
   </g>
   <g id="patch_21">
    <path clip-path="url(#pef91a4e6ef)" d="M 113.775517 102.2 
L 116.996771 102.2 
L 116.996771 102.2 
L 113.775517 102.2 
z
" style="fill:#1f77b4;"/>
   </g>
   <g id="patch_22">
    <path clip-path="url(#pef91a4e6ef)" d="M 116.996771 102.2 
L 120.218025 102.2 
L 120.218025 101.688095 
L 116.996771 101.688095 
z
" style="fill:#1f77b4;"/>
   </g>
   <g id="patch_23">
    <path clip-path="url(#pef91a4e6ef)" d="M 120.218025 102.2 
L 123.439279 102.2 
L 123.439279 102.2 
L 120.218025 102.2 
z
" style="fill:#1f77b4;"/>
   </g>
   <g id="patch_24">
    <path clip-path="url(#pef91a4e6ef)" d="M 123.439279 102.2 
L 126.660533 102.2 
L 126.660533 101.688095 
L 123.439279 101.688095 
z
" style="fill:#1f77b4;"/>
   </g>
   <g id="patch_25">
    <path clip-path="url(#pef91a4e6ef)" d="M 126.660533 102.2 
L 129.881787 102.2 
L 129.881787 101.688095 
L 126.660533 101.688095 
z
" style="fill:#1f77b4;"/>
   </g>
   <g id="patch_26">
    <path clip-path="url(#pef91a4e6ef)" d="M 129.881787 102.2 
L 133.103042 102.2 
L 133.103042 101.688095 
L 129.881787 101.688095 
z
" style="fill:#1f77b4;"/>
   </g>
   <g id="patch_27">
    <path clip-path="url(#pef91a4e6ef)" d="M 133.103042 102.2 
L 136.324296 102.2 
L 136.324296 101.688095 
L 133.103042 101.688095 
z
" style="fill:#1f77b4;"/>
   </g>
   <g id="patch_28">
    <path clip-path="url(#pef91a4e6ef)" d="M 136.324296 102.2 
L 139.54555 102.2 
L 139.54555 102.2 
L 136.324296 102.2 
z
" style="fill:#1f77b4;"/>
   </g>
   <g id="patch_29">
    <path clip-path="url(#pef91a4e6ef)" d="M 139.54555 102.2 
L 142.766804 102.2 
L 142.766804 102.2 
L 139.54555 102.2 
z
" style="fill:#1f77b4;"/>
   </g>
   <g id="patch_30">
    <path clip-path="url(#pef91a4e6ef)" d="M 142.766804 102.2 
L 145.988058 102.2 
L 145.988058 102.2 
L 142.766804 102.2 
z
" style="fill:#1f77b4;"/>
   </g>
   <g id="patch_31">
    <path clip-path="url(#pef91a4e6ef)" d="M 145.988058 102.2 
L 149.209312 102.2 
L 149.209312 102.2 
L 145.988058 102.2 
z
" style="fill:#1f77b4;"/>
   </g>
   <g id="patch_32">
    <path clip-path="url(#pef91a4e6ef)" d="M 149.209312 102.2 
L 152.430566 102.2 
L 152.430566 102.2 
L 149.209312 102.2 
z
" style="fill:#1f77b4;"/>
   </g>
   <g id="patch_33">
    <path clip-path="url(#pef91a4e6ef)" d="M 152.430566 102.2 
L 155.65182 102.2 
L 155.65182 102.2 
L 152.430566 102.2 
z
" style="fill:#1f77b4;"/>
   </g>
   <g id="matplotlib.axis_1">
    <g id="xtick_1">
     <g id="line2d_1">
      <defs>
       <path d="M 0 0 
L 0 3.5 
" id="me6d47618cf" style="stroke:#000000;stroke-width:0.8;"/>
      </defs>
      <g>
       <use style="stroke:#000000;stroke-width:0.8;" x="55.792944" xlink:href="#me6d47618cf" y="102.2"/>
      </g>
     </g>
     <g id="text_1">
      <!-- 0.0 -->
      <defs>
       <path d="M 31.78125 66.40625 
Q 24.171875 66.40625 20.328125 58.90625 
Q 16.5 51.421875 16.5 36.375 
Q 16.5 21.390625 20.328125 13.890625 
Q 24.171875 6.390625 31.78125 6.390625 
Q 39.453125 6.390625 43.28125 13.890625 
Q 47.125 21.390625 47.125 36.375 
Q 47.125 51.421875 43.28125 58.90625 
Q 39.453125 66.40625 31.78125 66.40625 
z
M 31.78125 74.21875 
Q 44.046875 74.21875 50.515625 64.515625 
Q 56.984375 54.828125 56.984375 36.375 
Q 56.984375 17.96875 50.515625 8.265625 
Q 44.046875 -1.421875 31.78125 -1.421875 
Q 19.53125 -1.421875 13.0625 8.265625 
Q 6.59375 17.96875 6.59375 36.375 
Q 6.59375 54.828125 13.0625 64.515625 
Q 19.53125 74.21875 31.78125 74.21875 
z
" id="DejaVuSans-48"/>
       <path d="M 10.6875 12.40625 
L 21 12.40625 
L 21 0 
L 10.6875 0 
z
" id="DejaVuSans-46"/>
      </defs>
      <g transform="translate(47.841381 116.798437)scale(0.1 -0.1)">
       <use xlink:href="#DejaVuSans-48"/>
       <use x="63.623047" xlink:href="#DejaVuSans-46"/>
       <use x="95.410156" xlink:href="#DejaVuSans-48"/>
      </g>
     </g>
    </g>
    <g id="xtick_2">
     <g id="line2d_2">
      <g>
       <use style="stroke:#000000;stroke-width:0.8;" x="105.722382" xlink:href="#me6d47618cf" y="102.2"/>
      </g>
     </g>
     <g id="text_2">
      <!-- 0.5 -->
      <defs>
       <path d="M 10.796875 72.90625 
L 49.515625 72.90625 
L 49.515625 64.59375 
L 19.828125 64.59375 
L 19.828125 46.734375 
Q 21.96875 47.46875 24.109375 47.828125 
Q 26.265625 48.1875 28.421875 48.1875 
Q 40.625 48.1875 47.75 41.5 
Q 54.890625 34.8125 54.890625 23.390625 
Q 54.890625 11.625 47.5625 5.09375 
Q 40.234375 -1.421875 26.90625 -1.421875 
Q 22.3125 -1.421875 17.546875 -0.640625 
Q 12.796875 0.140625 7.71875 1.703125 
L 7.71875 11.625 
Q 12.109375 9.234375 16.796875 8.0625 
Q 21.484375 6.890625 26.703125 6.890625 
Q 35.15625 6.890625 40.078125 11.328125 
Q 45.015625 15.765625 45.015625 23.390625 
Q 45.015625 31 40.078125 35.4375 
Q 35.15625 39.890625 26.703125 39.890625 
Q 22.75 39.890625 18.8125 39.015625 
Q 14.890625 38.140625 10.796875 36.28125 
z
" id="DejaVuSans-53"/>
      </defs>
      <g transform="translate(97.770819 116.798437)scale(0.1 -0.1)">
       <use xlink:href="#DejaVuSans-48"/>
       <use x="63.623047" xlink:href="#DejaVuSans-46"/>
       <use x="95.410156" xlink:href="#DejaVuSans-53"/>
      </g>
     </g>
    </g>
    <g id="xtick_3">
     <g id="line2d_3">
      <g>
       <use style="stroke:#000000;stroke-width:0.8;" x="155.65182" xlink:href="#me6d47618cf" y="102.2"/>
      </g>
     </g>
     <g id="text_3">
      <!-- 1.0 -->
      <defs>
       <path d="M 12.40625 8.296875 
L 28.515625 8.296875 
L 28.515625 63.921875 
L 10.984375 60.40625 
L 10.984375 69.390625 
L 28.421875 72.90625 
L 38.28125 72.90625 
L 38.28125 8.296875 
L 54.390625 8.296875 
L 54.390625 0 
L 12.40625 0 
z
" id="DejaVuSans-49"/>
      </defs>
      <g transform="translate(147.700258 116.798437)scale(0.1 -0.1)">
       <use xlink:href="#DejaVuSans-49"/>
       <use x="63.623047" xlink:href="#DejaVuSans-46"/>
       <use x="95.410156" xlink:href="#DejaVuSans-48"/>
      </g>
     </g>
    </g>
    <g id="text_4">
     <!-- Overhead Fraction -->
     <defs>
      <path d="M 39.40625 66.21875 
Q 28.65625 66.21875 22.328125 58.203125 
Q 16.015625 50.203125 16.015625 36.375 
Q 16.015625 22.609375 22.328125 14.59375 
Q 28.65625 6.59375 39.40625 6.59375 
Q 50.140625 6.59375 56.421875 14.59375 
Q 62.703125 22.609375 62.703125 36.375 
Q 62.703125 50.203125 56.421875 58.203125 
Q 50.140625 66.21875 39.40625 66.21875 
z
M 39.40625 74.21875 
Q 54.734375 74.21875 63.90625 63.9375 
Q 73.09375 53.65625 73.09375 36.375 
Q 73.09375 19.140625 63.90625 8.859375 
Q 54.734375 -1.421875 39.40625 -1.421875 
Q 24.03125 -1.421875 14.8125 8.828125 
Q 5.609375 19.09375 5.609375 36.375 
Q 5.609375 53.65625 14.8125 63.9375 
Q 24.03125 74.21875 39.40625 74.21875 
z
" id="DejaVuSans-79"/>
      <path d="M 2.984375 54.6875 
L 12.5 54.6875 
L 29.59375 8.796875 
L 46.6875 54.6875 
L 56.203125 54.6875 
L 35.6875 0 
L 23.484375 0 
z
" id="DejaVuSans-118"/>
      <path d="M 56.203125 29.59375 
L 56.203125 25.203125 
L 14.890625 25.203125 
Q 15.484375 15.921875 20.484375 11.0625 
Q 25.484375 6.203125 34.421875 6.203125 
Q 39.59375 6.203125 44.453125 7.46875 
Q 49.3125 8.734375 54.109375 11.28125 
L 54.109375 2.78125 
Q 49.265625 0.734375 44.1875 -0.34375 
Q 39.109375 -1.421875 33.890625 -1.421875 
Q 20.796875 -1.421875 13.15625 6.1875 
Q 5.515625 13.8125 5.515625 26.8125 
Q 5.515625 40.234375 12.765625 48.109375 
Q 20.015625 56 32.328125 56 
Q 43.359375 56 49.78125 48.890625 
Q 56.203125 41.796875 56.203125 29.59375 
z
M 47.21875 32.234375 
Q 47.125 39.59375 43.09375 43.984375 
Q 39.0625 48.390625 32.421875 48.390625 
Q 24.90625 48.390625 20.390625 44.140625 
Q 15.875 39.890625 15.1875 32.171875 
z
" id="DejaVuSans-101"/>
      <path d="M 41.109375 46.296875 
Q 39.59375 47.171875 37.8125 47.578125 
Q 36.03125 48 33.890625 48 
Q 26.265625 48 22.1875 43.046875 
Q 18.109375 38.09375 18.109375 28.8125 
L 18.109375 0 
L 9.078125 0 
L 9.078125 54.6875 
L 18.109375 54.6875 
L 18.109375 46.1875 
Q 20.953125 51.171875 25.484375 53.578125 
Q 30.03125 56 36.53125 56 
Q 37.453125 56 38.578125 55.875 
Q 39.703125 55.765625 41.0625 55.515625 
z
" id="DejaVuSans-114"/>
      <path d="M 54.890625 33.015625 
L 54.890625 0 
L 45.90625 0 
L 45.90625 32.71875 
Q 45.90625 40.484375 42.875 44.328125 
Q 39.84375 48.1875 33.796875 48.1875 
Q 26.515625 48.1875 22.3125 43.546875 
Q 18.109375 38.921875 18.109375 30.90625 
L 18.109375 0 
L 9.078125 0 
L 9.078125 75.984375 
L 18.109375 75.984375 
L 18.109375 46.1875 
Q 21.34375 51.125 25.703125 53.5625 
Q 30.078125 56 35.796875 56 
Q 45.21875 56 50.046875 50.171875 
Q 54.890625 44.34375 54.890625 33.015625 
z
" id="DejaVuSans-104"/>
      <path d="M 34.28125 27.484375 
Q 23.390625 27.484375 19.1875 25 
Q 14.984375 22.515625 14.984375 16.5 
Q 14.984375 11.71875 18.140625 8.90625 
Q 21.296875 6.109375 26.703125 6.109375 
Q 34.1875 6.109375 38.703125 11.40625 
Q 43.21875 16.703125 43.21875 25.484375 
L 43.21875 27.484375 
z
M 52.203125 31.203125 
L 52.203125 0 
L 43.21875 0 
L 43.21875 8.296875 
Q 40.140625 3.328125 35.546875 0.953125 
Q 30.953125 -1.421875 24.3125 -1.421875 
Q 15.921875 -1.421875 10.953125 3.296875 
Q 6 8.015625 6 15.921875 
Q 6 25.140625 12.171875 29.828125 
Q 18.359375 34.515625 30.609375 34.515625 
L 43.21875 34.515625 
L 43.21875 35.40625 
Q 43.21875 41.609375 39.140625 45 
Q 35.0625 48.390625 27.6875 48.390625 
Q 23 48.390625 18.546875 47.265625 
Q 14.109375 46.140625 10.015625 43.890625 
L 10.015625 52.203125 
Q 14.9375 54.109375 19.578125 55.046875 
Q 24.21875 56 28.609375 56 
Q 40.484375 56 46.34375 49.84375 
Q 52.203125 43.703125 52.203125 31.203125 
z
" id="DejaVuSans-97"/>
      <path d="M 45.40625 46.390625 
L 45.40625 75.984375 
L 54.390625 75.984375 
L 54.390625 0 
L 45.40625 0 
L 45.40625 8.203125 
Q 42.578125 3.328125 38.25 0.953125 
Q 33.9375 -1.421875 27.875 -1.421875 
Q 17.96875 -1.421875 11.734375 6.484375 
Q 5.515625 14.40625 5.515625 27.296875 
Q 5.515625 40.1875 11.734375 48.09375 
Q 17.96875 56 27.875 56 
Q 33.9375 56 38.25 53.625 
Q 42.578125 51.265625 45.40625 46.390625 
z
M 14.796875 27.296875 
Q 14.796875 17.390625 18.875 11.75 
Q 22.953125 6.109375 30.078125 6.109375 
Q 37.203125 6.109375 41.296875 11.75 
Q 45.40625 17.390625 45.40625 27.296875 
Q 45.40625 37.203125 41.296875 42.84375 
Q 37.203125 48.484375 30.078125 48.484375 
Q 22.953125 48.484375 18.875 42.84375 
Q 14.796875 37.203125 14.796875 27.296875 
z
" id="DejaVuSans-100"/>
      <path id="DejaVuSans-32"/>
      <path d="M 9.8125 72.90625 
L 51.703125 72.90625 
L 51.703125 64.59375 
L 19.671875 64.59375 
L 19.671875 43.109375 
L 48.578125 43.109375 
L 48.578125 34.8125 
L 19.671875 34.8125 
L 19.671875 0 
L 9.8125 0 
z
" id="DejaVuSans-70"/>
      <path d="M 48.78125 52.59375 
L 48.78125 44.1875 
Q 44.96875 46.296875 41.140625 47.34375 
Q 37.3125 48.390625 33.40625 48.390625 
Q 24.65625 48.390625 19.8125 42.84375 
Q 14.984375 37.3125 14.984375 27.296875 
Q 14.984375 17.28125 19.8125 11.734375 
Q 24.65625 6.203125 33.40625 6.203125 
Q 37.3125 6.203125 41.140625 7.25 
Q 44.96875 8.296875 48.78125 10.40625 
L 48.78125 2.09375 
Q 45.015625 0.34375 40.984375 -0.53125 
Q 36.96875 -1.421875 32.421875 -1.421875 
Q 20.0625 -1.421875 12.78125 6.34375 
Q 5.515625 14.109375 5.515625 27.296875 
Q 5.515625 40.671875 12.859375 48.328125 
Q 20.21875 56 33.015625 56 
Q 37.15625 56 41.109375 55.140625 
Q 45.0625 54.296875 48.78125 52.59375 
z
" id="DejaVuSans-99"/>
      <path d="M 18.3125 70.21875 
L 18.3125 54.6875 
L 36.8125 54.6875 
L 36.8125 47.703125 
L 18.3125 47.703125 
L 18.3125 18.015625 
Q 18.3125 11.328125 20.140625 9.421875 
Q 21.96875 7.515625 27.59375 7.515625 
L 36.8125 7.515625 
L 36.8125 0 
L 27.59375 0 
Q 17.1875 0 13.234375 3.875 
Q 9.28125 7.765625 9.28125 18.015625 
L 9.28125 47.703125 
L 2.6875 47.703125 
L 2.6875 54.6875 
L 9.28125 54.6875 
L 9.28125 70.21875 
z
" id="DejaVuSans-116"/>
      <path d="M 9.421875 54.6875 
L 18.40625 54.6875 
L 18.40625 0 
L 9.421875 0 
z
M 9.421875 75.984375 
L 18.40625 75.984375 
L 18.40625 64.59375 
L 9.421875 64.59375 
z
" id="DejaVuSans-105"/>
      <path d="M 30.609375 48.390625 
Q 23.390625 48.390625 19.1875 42.75 
Q 14.984375 37.109375 14.984375 27.296875 
Q 14.984375 17.484375 19.15625 11.84375 
Q 23.34375 6.203125 30.609375 6.203125 
Q 37.796875 6.203125 41.984375 11.859375 
Q 46.1875 17.53125 46.1875 27.296875 
Q 46.1875 37.015625 41.984375 42.703125 
Q 37.796875 48.390625 30.609375 48.390625 
z
M 30.609375 56 
Q 42.328125 56 49.015625 48.375 
Q 55.71875 40.765625 55.71875 27.296875 
Q 55.71875 13.875 49.015625 6.21875 
Q 42.328125 -1.421875 30.609375 -1.421875 
Q 18.84375 -1.421875 12.171875 6.21875 
Q 5.515625 13.875 5.515625 27.296875 
Q 5.515625 40.765625 12.171875 48.375 
Q 18.84375 56 30.609375 56 
z
" id="DejaVuSans-111"/>
      <path d="M 54.890625 33.015625 
L 54.890625 0 
L 45.90625 0 
L 45.90625 32.71875 
Q 45.90625 40.484375 42.875 44.328125 
Q 39.84375 48.1875 33.796875 48.1875 
Q 26.515625 48.1875 22.3125 43.546875 
Q 18.109375 38.921875 18.109375 30.90625 
L 18.109375 0 
L 9.078125 0 
L 9.078125 54.6875 
L 18.109375 54.6875 
L 18.109375 46.1875 
Q 21.34375 51.125 25.703125 53.5625 
Q 30.078125 56 35.796875 56 
Q 45.21875 56 50.046875 50.171875 
Q 54.890625 44.34375 54.890625 33.015625 
z
" id="DejaVuSans-110"/>
     </defs>
     <g transform="translate(59.306757 130.476562)scale(0.1 -0.1)">
      <use xlink:href="#DejaVuSans-79"/>
      <use x="78.710938" xlink:href="#DejaVuSans-118"/>
      <use x="137.890625" xlink:href="#DejaVuSans-101"/>
      <use x="199.414062" xlink:href="#DejaVuSans-114"/>
      <use x="240.511719" xlink:href="#DejaVuSans-104"/>
      <use x="303.890625" xlink:href="#DejaVuSans-101"/>
      <use x="365.414062" xlink:href="#DejaVuSans-97"/>
      <use x="426.693359" xlink:href="#DejaVuSans-100"/>
      <use x="490.169922" xlink:href="#DejaVuSans-32"/>
      <use x="521.957031" xlink:href="#DejaVuSans-70"/>
      <use x="579.367188" xlink:href="#DejaVuSans-114"/>
      <use x="620.480469" xlink:href="#DejaVuSans-97"/>
      <use x="681.759766" xlink:href="#DejaVuSans-99"/>
      <use x="736.740234" xlink:href="#DejaVuSans-116"/>
      <use x="775.949219" xlink:href="#DejaVuSans-105"/>
      <use x="803.732422" xlink:href="#DejaVuSans-111"/>
      <use x="864.914062" xlink:href="#DejaVuSans-110"/>
     </g>
    </g>
   </g>
   <g id="matplotlib.axis_2">
    <g id="ytick_1">
     <g id="line2d_4">
      <defs>
       <path d="M 0 0 
L -3.5 0 
" id="m86519e1afb" style="stroke:#000000;stroke-width:0.8;"/>
      </defs>
      <g>
       <use style="stroke:#000000;stroke-width:0.8;" x="50.8" xlink:href="#m86519e1afb" y="102.2"/>
      </g>
     </g>
     <g id="text_5">
      <!-- 0 -->
      <g transform="translate(37.4375 105.999219)scale(0.1 -0.1)">
       <use xlink:href="#DejaVuSans-48"/>
      </g>
     </g>
    </g>
    <g id="ytick_2">
     <g id="line2d_5">
      <g>
       <use style="stroke:#000000;stroke-width:0.8;" x="50.8" xlink:href="#m86519e1afb" y="51.009524"/>
      </g>
     </g>
     <g id="text_6">
      <!-- 100 -->
      <g transform="translate(24.7125 54.808743)scale(0.1 -0.1)">
       <use xlink:href="#DejaVuSans-49"/>
       <use x="63.623047" xlink:href="#DejaVuSans-48"/>
       <use x="127.246094" xlink:href="#DejaVuSans-48"/>
      </g>
     </g>
    </g>
    <g id="text_7">
     <!-- Frequency -->
     <defs>
      <path d="M 14.796875 27.296875 
Q 14.796875 17.390625 18.875 11.75 
Q 22.953125 6.109375 30.078125 6.109375 
Q 37.203125 6.109375 41.296875 11.75 
Q 45.40625 17.390625 45.40625 27.296875 
Q 45.40625 37.203125 41.296875 42.84375 
Q 37.203125 48.484375 30.078125 48.484375 
Q 22.953125 48.484375 18.875 42.84375 
Q 14.796875 37.203125 14.796875 27.296875 
z
M 45.40625 8.203125 
Q 42.578125 3.328125 38.25 0.953125 
Q 33.9375 -1.421875 27.875 -1.421875 
Q 17.96875 -1.421875 11.734375 6.484375 
Q 5.515625 14.40625 5.515625 27.296875 
Q 5.515625 40.1875 11.734375 48.09375 
Q 17.96875 56 27.875 56 
Q 33.9375 56 38.25 53.625 
Q 42.578125 51.265625 45.40625 46.390625 
L 45.40625 54.6875 
L 54.390625 54.6875 
L 54.390625 -20.796875 
L 45.40625 -20.796875 
z
" id="DejaVuSans-113"/>
      <path d="M 8.5 21.578125 
L 8.5 54.6875 
L 17.484375 54.6875 
L 17.484375 21.921875 
Q 17.484375 14.15625 20.5 10.265625 
Q 23.53125 6.390625 29.59375 6.390625 
Q 36.859375 6.390625 41.078125 11.03125 
Q 45.3125 15.671875 45.3125 23.6875 
L 45.3125 54.6875 
L 54.296875 54.6875 
L 54.296875 0 
L 45.3125 0 
L 45.3125 8.40625 
Q 42.046875 3.421875 37.71875 1 
Q 33.40625 -1.421875 27.6875 -1.421875 
Q 18.265625 -1.421875 13.375 4.4375 
Q 8.5 10.296875 8.5 21.578125 
z
M 31.109375 56 
z
" id="DejaVuSans-117"/>
      <path d="M 32.171875 -5.078125 
Q 28.375 -14.84375 24.75 -17.8125 
Q 21.140625 -20.796875 15.09375 -20.796875 
L 7.90625 -20.796875 
L 7.90625 -13.28125 
L 13.1875 -13.28125 
Q 16.890625 -13.28125 18.9375 -11.515625 
Q 21 -9.765625 23.484375 -3.21875 
L 25.09375 0.875 
L 2.984375 54.6875 
L 12.5 54.6875 
L 29.59375 11.921875 
L 46.6875 54.6875 
L 56.203125 54.6875 
z
" id="DejaVuSans-121"/>
     </defs>
     <g transform="translate(18.632812 89.797656)rotate(-90)scale(0.1 -0.1)">
      <use xlink:href="#DejaVuSans-70"/>
      <use x="57.410156" xlink:href="#DejaVuSans-114"/>
      <use x="98.492188" xlink:href="#DejaVuSans-101"/>
      <use x="160.015625" xlink:href="#DejaVuSans-113"/>
      <use x="223.492188" xlink:href="#DejaVuSans-117"/>
      <use x="286.871094" xlink:href="#DejaVuSans-101"/>
      <use x="348.394531" xlink:href="#DejaVuSans-110"/>
      <use x="411.773438" xlink:href="#DejaVuSans-99"/>
      <use x="466.753906" xlink:href="#DejaVuSans-121"/>
     </g>
    </g>
   </g>
   <g id="patch_34">
    <path d="M 50.8 102.2 
L 50.8 24.8 
" style="fill:none;stroke:#000000;stroke-linecap:square;stroke-linejoin:miter;stroke-width:0.8;"/>
   </g>
   <g id="patch_35">
    <path d="M 160.644764 102.2 
L 160.644764 24.8 
" style="fill:none;stroke:#000000;stroke-linecap:square;stroke-linejoin:miter;stroke-width:0.8;"/>
   </g>
   <g id="patch_36">
    <path d="M 50.8 102.2 
L 160.644764 102.2 
" style="fill:none;stroke:#000000;stroke-linecap:square;stroke-linejoin:miter;stroke-width:0.8;"/>
   </g>
   <g id="patch_37">
    <path d="M 50.8 24.8 
L 160.644764 24.8 
" style="fill:none;stroke:#000000;stroke-linecap:square;stroke-linejoin:miter;stroke-width:0.8;"/>
   </g>
   <g id="text_8">
    <!-- NWChem Tasks -->
    <defs>
     <path d="M 9.8125 72.90625 
L 23.09375 72.90625 
L 55.421875 11.921875 
L 55.421875 72.90625 
L 64.984375 72.90625 
L 64.984375 0 
L 51.703125 0 
L 19.390625 60.984375 
L 19.390625 0 
L 9.8125 0 
z
" id="DejaVuSans-78"/>
     <path d="M 3.328125 72.90625 
L 13.28125 72.90625 
L 28.609375 11.28125 
L 43.890625 72.90625 
L 54.984375 72.90625 
L 70.3125 11.28125 
L 85.59375 72.90625 
L 95.609375 72.90625 
L 77.296875 0 
L 64.890625 0 
L 49.515625 63.28125 
L 33.984375 0 
L 21.578125 0 
z
" id="DejaVuSans-87"/>
     <path d="M 64.40625 67.28125 
L 64.40625 56.890625 
Q 59.421875 61.53125 53.78125 63.8125 
Q 48.140625 66.109375 41.796875 66.109375 
Q 29.296875 66.109375 22.65625 58.46875 
Q 16.015625 50.828125 16.015625 36.375 
Q 16.015625 21.96875 22.65625 14.328125 
Q 29.296875 6.6875 41.796875 6.6875 
Q 48.140625 6.6875 53.78125 8.984375 
Q 59.421875 11.28125 64.40625 15.921875 
L 64.40625 5.609375 
Q 59.234375 2.09375 53.4375 0.328125 
Q 47.65625 -1.421875 41.21875 -1.421875 
Q 24.65625 -1.421875 15.125 8.703125 
Q 5.609375 18.84375 5.609375 36.375 
Q 5.609375 53.953125 15.125 64.078125 
Q 24.65625 74.21875 41.21875 74.21875 
Q 47.75 74.21875 53.53125 72.484375 
Q 59.328125 70.75 64.40625 67.28125 
z
" id="DejaVuSans-67"/>
     <path d="M 52 44.1875 
Q 55.375 50.25 60.0625 53.125 
Q 64.75 56 71.09375 56 
Q 79.640625 56 84.28125 50.015625 
Q 88.921875 44.046875 88.921875 33.015625 
L 88.921875 0 
L 79.890625 0 
L 79.890625 32.71875 
Q 79.890625 40.578125 77.09375 44.375 
Q 74.3125 48.1875 68.609375 48.1875 
Q 61.625 48.1875 57.5625 43.546875 
Q 53.515625 38.921875 53.515625 30.90625 
L 53.515625 0 
L 44.484375 0 
L 44.484375 32.71875 
Q 44.484375 40.625 41.703125 44.40625 
Q 38.921875 48.1875 33.109375 48.1875 
Q 26.21875 48.1875 22.15625 43.53125 
Q 18.109375 38.875 18.109375 30.90625 
L 18.109375 0 
L 9.078125 0 
L 9.078125 54.6875 
L 18.109375 54.6875 
L 18.109375 46.1875 
Q 21.1875 51.21875 25.484375 53.609375 
Q 29.78125 56 35.6875 56 
Q 41.65625 56 45.828125 52.96875 
Q 50 49.953125 52 44.1875 
z
" id="DejaVuSans-109"/>
     <path d="M -0.296875 72.90625 
L 61.375 72.90625 
L 61.375 64.59375 
L 35.5 64.59375 
L 35.5 0 
L 25.59375 0 
L 25.59375 64.59375 
L -0.296875 64.59375 
z
" id="DejaVuSans-84"/>
     <path d="M 44.28125 53.078125 
L 44.28125 44.578125 
Q 40.484375 46.53125 36.375 47.5 
Q 32.28125 48.484375 27.875 48.484375 
Q 21.1875 48.484375 17.84375 46.4375 
Q 14.5 44.390625 14.5 40.28125 
Q 14.5 37.15625 16.890625 35.375 
Q 19.28125 33.59375 26.515625 31.984375 
L 29.59375 31.296875 
Q 39.15625 29.25 43.1875 25.515625 
Q 47.21875 21.78125 47.21875 15.09375 
Q 47.21875 7.46875 41.1875 3.015625 
Q 35.15625 -1.421875 24.609375 -1.421875 
Q 20.21875 -1.421875 15.453125 -0.5625 
Q 10.6875 0.296875 5.421875 2 
L 5.421875 11.28125 
Q 10.40625 8.6875 15.234375 7.390625 
Q 20.0625 6.109375 24.8125 6.109375 
Q 31.15625 6.109375 34.5625 8.28125 
Q 37.984375 10.453125 37.984375 14.40625 
Q 37.984375 18.0625 35.515625 20.015625 
Q 33.0625 21.96875 24.703125 23.78125 
L 21.578125 24.515625 
Q 13.234375 26.265625 9.515625 29.90625 
Q 5.8125 33.546875 5.8125 39.890625 
Q 5.8125 47.609375 11.28125 51.796875 
Q 16.75 56 26.8125 56 
Q 31.78125 56 36.171875 55.265625 
Q 40.578125 54.546875 44.28125 53.078125 
z
" id="DejaVuSans-115"/>
     <path d="M 9.078125 75.984375 
L 18.109375 75.984375 
L 18.109375 31.109375 
L 44.921875 54.6875 
L 56.390625 54.6875 
L 27.390625 29.109375 
L 57.625 0 
L 45.90625 0 
L 18.109375 26.703125 
L 18.109375 0 
L 9.078125 0 
z
" id="DejaVuSans-107"/>
    </defs>
    <g transform="translate(66.631757 18.8)scale(0.1 -0.1)">
     <use xlink:href="#DejaVuSans-78"/>
     <use x="74.804688" xlink:href="#DejaVuSans-87"/>
     <use x="173.681641" xlink:href="#DejaVuSans-67"/>
     <use x="243.505859" xlink:href="#DejaVuSans-104"/>
     <use x="306.884766" xlink:href="#DejaVuSans-101"/>
     <use x="368.408203" xlink:href="#DejaVuSans-109"/>
     <use x="465.820312" xlink:href="#DejaVuSans-32"/>
     <use x="497.607422" xlink:href="#DejaVuSans-84"/>
     <use x="558.441406" xlink:href="#DejaVuSans-97"/>
     <use x="619.720703" xlink:href="#DejaVuSans-115"/>
     <use x="671.820312" xlink:href="#DejaVuSans-107"/>
     <use x="729.730469" xlink:href="#DejaVuSans-115"/>
    </g>
   </g>
  </g>
  <g id="axes_2">
   <g id="patch_38">
    <path d="M 197.533333 102.2 
L 307.378097 102.2 
L 307.378097 24.8 
L 197.533333 24.8 
z
" style="fill:#ffffff;"/>
   </g>
   <g id="patch_39">
    <path clip-path="url(#p3db59578d0)" d="M 202.526277 102.2 
L 205.747531 102.2 
L 205.747531 28.485714 
L 202.526277 28.485714 
z
" style="fill:#1f77b4;"/>
   </g>
   <g id="patch_40">
    <path clip-path="url(#p3db59578d0)" d="M 205.747531 102.2 
L 208.968785 102.2 
L 208.968785 83.771429 
L 205.747531 83.771429 
z
" style="fill:#1f77b4;"/>
   </g>
   <g id="patch_41">
    <path clip-path="url(#p3db59578d0)" d="M 208.968785 102.2 
L 212.190039 102.2 
L 212.190039 102.2 
L 208.968785 102.2 
z
" style="fill:#1f77b4;"/>
   </g>
   <g id="patch_42">
    <path clip-path="url(#p3db59578d0)" d="M 212.190039 102.2 
L 215.411293 102.2 
L 215.411293 102.2 
L 212.190039 102.2 
z
" style="fill:#1f77b4;"/>
   </g>
   <g id="patch_43">
    <path clip-path="url(#p3db59578d0)" d="M 215.411293 102.2 
L 218.632547 102.2 
L 218.632547 102.2 
L 215.411293 102.2 
z
" style="fill:#1f77b4;"/>
   </g>
   <g id="patch_44">
    <path clip-path="url(#p3db59578d0)" d="M 218.632547 102.2 
L 221.853802 102.2 
L 221.853802 102.2 
L 218.632547 102.2 
z
" style="fill:#1f77b4;"/>
   </g>
   <g id="patch_45">
    <path clip-path="url(#p3db59578d0)" d="M 221.853802 102.2 
L 225.075056 102.2 
L 225.075056 102.2 
L 221.853802 102.2 
z
" style="fill:#1f77b4;"/>
   </g>
   <g id="patch_46">
    <path clip-path="url(#p3db59578d0)" d="M 225.075056 102.2 
L 228.29631 102.2 
L 228.29631 102.2 
L 225.075056 102.2 
z
" style="fill:#1f77b4;"/>
   </g>
   <g id="patch_47">
    <path clip-path="url(#p3db59578d0)" d="M 228.29631 102.2 
L 231.517564 102.2 
L 231.517564 102.2 
L 228.29631 102.2 
z
" style="fill:#1f77b4;"/>
   </g>
   <g id="patch_48">
    <path clip-path="url(#p3db59578d0)" d="M 231.517564 102.2 
L 234.738818 102.2 
L 234.738818 102.2 
L 231.517564 102.2 
z
" style="fill:#1f77b4;"/>
   </g>
   <g id="patch_49">
    <path clip-path="url(#p3db59578d0)" d="M 234.738818 102.2 
L 237.960072 102.2 
L 237.960072 102.2 
L 234.738818 102.2 
z
" style="fill:#1f77b4;"/>
   </g>
   <g id="patch_50">
    <path clip-path="url(#p3db59578d0)" d="M 237.960072 102.2 
L 241.181326 102.2 
L 241.181326 102.2 
L 237.960072 102.2 
z
" style="fill:#1f77b4;"/>
   </g>
   <g id="patch_51">
    <path clip-path="url(#p3db59578d0)" d="M 241.181326 102.2 
L 244.40258 102.2 
L 244.40258 102.2 
L 241.181326 102.2 
z
" style="fill:#1f77b4;"/>
   </g>
   <g id="patch_52">
    <path clip-path="url(#p3db59578d0)" d="M 244.40258 102.2 
L 247.623834 102.2 
L 247.623834 102.2 
L 244.40258 102.2 
z
" style="fill:#1f77b4;"/>
   </g>
   <g id="patch_53">
    <path clip-path="url(#p3db59578d0)" d="M 247.623834 102.2 
L 250.845088 102.2 
L 250.845088 102.2 
L 247.623834 102.2 
z
" style="fill:#1f77b4;"/>
   </g>
   <g id="patch_54">
    <path clip-path="url(#p3db59578d0)" d="M 250.845088 102.2 
L 254.066342 102.2 
L 254.066342 102.2 
L 250.845088 102.2 
z
" style="fill:#1f77b4;"/>
   </g>
   <g id="patch_55">
    <path clip-path="url(#p3db59578d0)" d="M 254.066342 102.2 
L 257.287596 102.2 
L 257.287596 83.771429 
L 254.066342 83.771429 
z
" style="fill:#1f77b4;"/>
   </g>
   <g id="patch_56">
    <path clip-path="url(#p3db59578d0)" d="M 257.287596 102.2 
L 260.50885 102.2 
L 260.50885 102.2 
L 257.287596 102.2 
z
" style="fill:#1f77b4;"/>
   </g>
   <g id="patch_57">
    <path clip-path="url(#p3db59578d0)" d="M 260.50885 102.2 
L 263.730104 102.2 
L 263.730104 102.2 
L 260.50885 102.2 
z
" style="fill:#1f77b4;"/>
   </g>
   <g id="patch_58">
    <path clip-path="url(#p3db59578d0)" d="M 263.730104 102.2 
L 266.951359 102.2 
L 266.951359 102.2 
L 263.730104 102.2 
z
" style="fill:#1f77b4;"/>
   </g>
   <g id="patch_59">
    <path clip-path="url(#p3db59578d0)" d="M 266.951359 102.2 
L 270.172613 102.2 
L 270.172613 102.2 
L 266.951359 102.2 
z
" style="fill:#1f77b4;"/>
   </g>
   <g id="patch_60">
    <path clip-path="url(#p3db59578d0)" d="M 270.172613 102.2 
L 273.393867 102.2 
L 273.393867 102.2 
L 270.172613 102.2 
z
" style="fill:#1f77b4;"/>
   </g>
   <g id="patch_61">
    <path clip-path="url(#p3db59578d0)" d="M 273.393867 102.2 
L 276.615121 102.2 
L 276.615121 102.2 
L 273.393867 102.2 
z
" style="fill:#1f77b4;"/>
   </g>
   <g id="patch_62">
    <path clip-path="url(#p3db59578d0)" d="M 276.615121 102.2 
L 279.836375 102.2 
L 279.836375 102.2 
L 276.615121 102.2 
z
" style="fill:#1f77b4;"/>
   </g>
   <g id="patch_63">
    <path clip-path="url(#p3db59578d0)" d="M 279.836375 102.2 
L 283.057629 102.2 
L 283.057629 102.2 
L 279.836375 102.2 
z
" style="fill:#1f77b4;"/>
   </g>
   <g id="patch_64">
    <path clip-path="url(#p3db59578d0)" d="M 283.057629 102.2 
L 286.278883 102.2 
L 286.278883 102.2 
L 283.057629 102.2 
z
" style="fill:#1f77b4;"/>
   </g>
   <g id="patch_65">
    <path clip-path="url(#p3db59578d0)" d="M 286.278883 102.2 
L 289.500137 102.2 
L 289.500137 102.2 
L 286.278883 102.2 
z
" style="fill:#1f77b4;"/>
   </g>
   <g id="patch_66">
    <path clip-path="url(#p3db59578d0)" d="M 289.500137 102.2 
L 292.721391 102.2 
L 292.721391 102.2 
L 289.500137 102.2 
z
" style="fill:#1f77b4;"/>
   </g>
   <g id="patch_67">
    <path clip-path="url(#p3db59578d0)" d="M 292.721391 102.2 
L 295.942645 102.2 
L 295.942645 102.2 
L 292.721391 102.2 
z
" style="fill:#1f77b4;"/>
   </g>
   <g id="patch_68">
    <path clip-path="url(#p3db59578d0)" d="M 295.942645 102.2 
L 299.163899 102.2 
L 299.163899 102.2 
L 295.942645 102.2 
z
" style="fill:#1f77b4;"/>
   </g>
   <g id="patch_69">
    <path clip-path="url(#p3db59578d0)" d="M 299.163899 102.2 
L 302.385153 102.2 
L 302.385153 102.2 
L 299.163899 102.2 
z
" style="fill:#1f77b4;"/>
   </g>
   <g id="matplotlib.axis_3">
    <g id="xtick_4">
     <g id="line2d_6">
      <g>
       <use style="stroke:#000000;stroke-width:0.8;" x="202.526277" xlink:href="#me6d47618cf" y="102.2"/>
      </g>
     </g>
     <g id="text_9">
      <!-- 0.0 -->
      <g transform="translate(194.574715 116.798437)scale(0.1 -0.1)">
       <use xlink:href="#DejaVuSans-48"/>
       <use x="63.623047" xlink:href="#DejaVuSans-46"/>
       <use x="95.410156" xlink:href="#DejaVuSans-48"/>
      </g>
     </g>
    </g>
    <g id="xtick_5">
     <g id="line2d_7">
      <g>
       <use style="stroke:#000000;stroke-width:0.8;" x="252.455715" xlink:href="#me6d47618cf" y="102.2"/>
      </g>
     </g>
     <g id="text_10">
      <!-- 0.5 -->
      <g transform="translate(244.504153 116.798437)scale(0.1 -0.1)">
       <use xlink:href="#DejaVuSans-48"/>
       <use x="63.623047" xlink:href="#DejaVuSans-46"/>
       <use x="95.410156" xlink:href="#DejaVuSans-53"/>
      </g>
     </g>
    </g>
    <g id="xtick_6">
     <g id="line2d_8">
      <g>
       <use style="stroke:#000000;stroke-width:0.8;" x="302.385153" xlink:href="#me6d47618cf" y="102.2"/>
      </g>
     </g>
     <g id="text_11">
      <!-- 1.0 -->
      <g transform="translate(294.433591 116.798437)scale(0.1 -0.1)">
       <use xlink:href="#DejaVuSans-49"/>
       <use x="63.623047" xlink:href="#DejaVuSans-46"/>
       <use x="95.410156" xlink:href="#DejaVuSans-48"/>
      </g>
     </g>
    </g>
    <g id="text_12">
     <!-- Overhead Fraction -->
     <g transform="translate(206.04009 130.476562)scale(0.1 -0.1)">
      <use xlink:href="#DejaVuSans-79"/>
      <use x="78.710938" xlink:href="#DejaVuSans-118"/>
      <use x="137.890625" xlink:href="#DejaVuSans-101"/>
      <use x="199.414062" xlink:href="#DejaVuSans-114"/>
      <use x="240.511719" xlink:href="#DejaVuSans-104"/>
      <use x="303.890625" xlink:href="#DejaVuSans-101"/>
      <use x="365.414062" xlink:href="#DejaVuSans-97"/>
      <use x="426.693359" xlink:href="#DejaVuSans-100"/>
      <use x="490.169922" xlink:href="#DejaVuSans-32"/>
      <use x="521.957031" xlink:href="#DejaVuSans-70"/>
      <use x="579.367188" xlink:href="#DejaVuSans-114"/>
      <use x="620.480469" xlink:href="#DejaVuSans-97"/>
      <use x="681.759766" xlink:href="#DejaVuSans-99"/>
      <use x="736.740234" xlink:href="#DejaVuSans-116"/>
      <use x="775.949219" xlink:href="#DejaVuSans-105"/>
      <use x="803.732422" xlink:href="#DejaVuSans-111"/>
      <use x="864.914062" xlink:href="#DejaVuSans-110"/>
     </g>
    </g>
   </g>
   <g id="matplotlib.axis_4">
    <g id="ytick_3">
     <g id="line2d_9">
      <g>
       <use style="stroke:#000000;stroke-width:0.8;" x="197.533333" xlink:href="#m86519e1afb" y="102.2"/>
      </g>
     </g>
     <g id="text_13">
      <!-- 0 -->
      <g transform="translate(184.170833 105.999219)scale(0.1 -0.1)">
       <use xlink:href="#DejaVuSans-48"/>
      </g>
     </g>
    </g>
    <g id="ytick_4">
     <g id="line2d_10">
      <g>
       <use style="stroke:#000000;stroke-width:0.8;" x="197.533333" xlink:href="#m86519e1afb" y="65.342857"/>
      </g>
     </g>
     <g id="text_14">
      <!-- 2 -->
      <defs>
       <path d="M 19.1875 8.296875 
L 53.609375 8.296875 
L 53.609375 0 
L 7.328125 0 
L 7.328125 8.296875 
Q 12.9375 14.109375 22.625 23.890625 
Q 32.328125 33.6875 34.8125 36.53125 
Q 39.546875 41.84375 41.421875 45.53125 
Q 43.3125 49.21875 43.3125 52.78125 
Q 43.3125 58.59375 39.234375 62.25 
Q 35.15625 65.921875 28.609375 65.921875 
Q 23.96875 65.921875 18.8125 64.3125 
Q 13.671875 62.703125 7.8125 59.421875 
L 7.8125 69.390625 
Q 13.765625 71.78125 18.9375 73 
Q 24.125 74.21875 28.421875 74.21875 
Q 39.75 74.21875 46.484375 68.546875 
Q 53.21875 62.890625 53.21875 53.421875 
Q 53.21875 48.921875 51.53125 44.890625 
Q 49.859375 40.875 45.40625 35.40625 
Q 44.1875 33.984375 37.640625 27.21875 
Q 31.109375 20.453125 19.1875 8.296875 
z
" id="DejaVuSans-50"/>
      </defs>
      <g transform="translate(184.170833 69.142076)scale(0.1 -0.1)">
       <use xlink:href="#DejaVuSans-50"/>
      </g>
     </g>
    </g>
    <g id="ytick_5">
     <g id="line2d_11">
      <g>
       <use style="stroke:#000000;stroke-width:0.8;" x="197.533333" xlink:href="#m86519e1afb" y="28.485714"/>
      </g>
     </g>
     <g id="text_15">
      <!-- 4 -->
      <defs>
       <path d="M 37.796875 64.3125 
L 12.890625 25.390625 
L 37.796875 25.390625 
z
M 35.203125 72.90625 
L 47.609375 72.90625 
L 47.609375 25.390625 
L 58.015625 25.390625 
L 58.015625 17.1875 
L 47.609375 17.1875 
L 47.609375 0 
L 37.796875 0 
L 37.796875 17.1875 
L 4.890625 17.1875 
L 4.890625 26.703125 
z
" id="DejaVuSans-52"/>
      </defs>
      <g transform="translate(184.170833 32.284933)scale(0.1 -0.1)">
       <use xlink:href="#DejaVuSans-52"/>
      </g>
     </g>
    </g>
   </g>
   <g id="patch_70">
    <path d="M 197.533333 102.2 
L 197.533333 24.8 
" style="fill:none;stroke:#000000;stroke-linecap:square;stroke-linejoin:miter;stroke-width:0.8;"/>
   </g>
   <g id="patch_71">
    <path d="M 307.378097 102.2 
L 307.378097 24.8 
" style="fill:none;stroke:#000000;stroke-linecap:square;stroke-linejoin:miter;stroke-width:0.8;"/>
   </g>
   <g id="patch_72">
    <path d="M 197.533333 102.2 
L 307.378097 102.2 
" style="fill:none;stroke:#000000;stroke-linecap:square;stroke-linejoin:miter;stroke-width:0.8;"/>
   </g>
   <g id="patch_73">
    <path d="M 197.533333 24.8 
L 307.378097 24.8 
" style="fill:none;stroke:#000000;stroke-linecap:square;stroke-linejoin:miter;stroke-width:0.8;"/>
   </g>
   <g id="text_16">
    <!-- RL Tasks -->
    <defs>
     <path d="M 44.390625 34.1875 
Q 47.5625 33.109375 50.5625 29.59375 
Q 53.5625 26.078125 56.59375 19.921875 
L 66.609375 0 
L 56 0 
L 46.6875 18.703125 
Q 43.0625 26.03125 39.671875 28.421875 
Q 36.28125 30.8125 30.421875 30.8125 
L 19.671875 30.8125 
L 19.671875 0 
L 9.8125 0 
L 9.8125 72.90625 
L 32.078125 72.90625 
Q 44.578125 72.90625 50.734375 67.671875 
Q 56.890625 62.453125 56.890625 51.90625 
Q 56.890625 45.015625 53.6875 40.46875 
Q 50.484375 35.9375 44.390625 34.1875 
z
M 19.671875 64.796875 
L 19.671875 38.921875 
L 32.078125 38.921875 
Q 39.203125 38.921875 42.84375 42.21875 
Q 46.484375 45.515625 46.484375 51.90625 
Q 46.484375 58.296875 42.84375 61.546875 
Q 39.203125 64.796875 32.078125 64.796875 
z
" id="DejaVuSans-82"/>
     <path d="M 9.8125 72.90625 
L 19.671875 72.90625 
L 19.671875 8.296875 
L 55.171875 8.296875 
L 55.171875 0 
L 9.8125 0 
z
" id="DejaVuSans-76"/>
    </defs>
    <g transform="translate(230.39634 18.8)scale(0.1 -0.1)">
     <use xlink:href="#DejaVuSans-82"/>
     <use x="69.482422" xlink:href="#DejaVuSans-76"/>
     <use x="125.195312" xlink:href="#DejaVuSans-32"/>
     <use x="156.982422" xlink:href="#DejaVuSans-84"/>
     <use x="217.816406" xlink:href="#DejaVuSans-97"/>
     <use x="279.095703" xlink:href="#DejaVuSans-115"/>
     <use x="331.195312" xlink:href="#DejaVuSans-107"/>
     <use x="389.105469" xlink:href="#DejaVuSans-115"/>
    </g>
   </g>
  </g>
  <g id="axes_3">
   <g id="patch_74">
    <path d="M 344.266667 102.2 
L 454.11143 102.2 
L 454.11143 24.8 
L 344.266667 24.8 
z
" style="fill:#ffffff;"/>
   </g>
   <g id="patch_75">
    <path clip-path="url(#p12008b5ede)" d="M 349.25961 102.2 
L 352.480865 102.2 
L 352.480865 102.2 
L 349.25961 102.2 
z
" style="fill:#1f77b4;"/>
   </g>
   <g id="patch_76">
    <path clip-path="url(#p12008b5ede)" d="M 352.480865 102.2 
L 355.702119 102.2 
L 355.702119 65.342857 
L 352.480865 65.342857 
z
" style="fill:#1f77b4;"/>
   </g>
   <g id="patch_77">
    <path clip-path="url(#p12008b5ede)" d="M 355.702119 102.2 
L 358.923373 102.2 
L 358.923373 65.342857 
L 355.702119 65.342857 
z
" style="fill:#1f77b4;"/>
   </g>
   <g id="patch_78">
    <path clip-path="url(#p12008b5ede)" d="M 358.923373 102.2 
L 362.144627 102.2 
L 362.144627 65.342857 
L 358.923373 65.342857 
z
" style="fill:#1f77b4;"/>
   </g>
   <g id="patch_79">
    <path clip-path="url(#p12008b5ede)" d="M 362.144627 102.2 
L 365.365881 102.2 
L 365.365881 28.485714 
L 362.144627 28.485714 
z
" style="fill:#1f77b4;"/>
   </g>
   <g id="patch_80">
    <path clip-path="url(#p12008b5ede)" d="M 365.365881 102.2 
L 368.587135 102.2 
L 368.587135 102.2 
L 365.365881 102.2 
z
" style="fill:#1f77b4;"/>
   </g>
   <g id="patch_81">
    <path clip-path="url(#p12008b5ede)" d="M 368.587135 102.2 
L 371.808389 102.2 
L 371.808389 102.2 
L 368.587135 102.2 
z
" style="fill:#1f77b4;"/>
   </g>
   <g id="patch_82">
    <path clip-path="url(#p12008b5ede)" d="M 371.808389 102.2 
L 375.029643 102.2 
L 375.029643 65.342857 
L 371.808389 65.342857 
z
" style="fill:#1f77b4;"/>
   </g>
   <g id="patch_83">
    <path clip-path="url(#p12008b5ede)" d="M 375.029643 102.2 
L 378.250897 102.2 
L 378.250897 102.2 
L 375.029643 102.2 
z
" style="fill:#1f77b4;"/>
   </g>
   <g id="patch_84">
    <path clip-path="url(#p12008b5ede)" d="M 378.250897 102.2 
L 381.472151 102.2 
L 381.472151 102.2 
L 378.250897 102.2 
z
" style="fill:#1f77b4;"/>
   </g>
   <g id="patch_85">
    <path clip-path="url(#p12008b5ede)" d="M 381.472151 102.2 
L 384.693405 102.2 
L 384.693405 102.2 
L 381.472151 102.2 
z
" style="fill:#1f77b4;"/>
   </g>
   <g id="patch_86">
    <path clip-path="url(#p12008b5ede)" d="M 384.693405 102.2 
L 387.914659 102.2 
L 387.914659 102.2 
L 384.693405 102.2 
z
" style="fill:#1f77b4;"/>
   </g>
   <g id="patch_87">
    <path clip-path="url(#p12008b5ede)" d="M 387.914659 102.2 
L 391.135913 102.2 
L 391.135913 102.2 
L 387.914659 102.2 
z
" style="fill:#1f77b4;"/>
   </g>
   <g id="patch_88">
    <path clip-path="url(#p12008b5ede)" d="M 391.135913 102.2 
L 394.357167 102.2 
L 394.357167 102.2 
L 391.135913 102.2 
z
" style="fill:#1f77b4;"/>
   </g>
   <g id="patch_89">
    <path clip-path="url(#p12008b5ede)" d="M 394.357167 102.2 
L 397.578422 102.2 
L 397.578422 102.2 
L 394.357167 102.2 
z
" style="fill:#1f77b4;"/>
   </g>
   <g id="patch_90">
    <path clip-path="url(#p12008b5ede)" d="M 397.578422 102.2 
L 400.799676 102.2 
L 400.799676 102.2 
L 397.578422 102.2 
z
" style="fill:#1f77b4;"/>
   </g>
   <g id="patch_91">
    <path clip-path="url(#p12008b5ede)" d="M 400.799676 102.2 
L 404.02093 102.2 
L 404.02093 102.2 
L 400.799676 102.2 
z
" style="fill:#1f77b4;"/>
   </g>
   <g id="patch_92">
    <path clip-path="url(#p12008b5ede)" d="M 404.02093 102.2 
L 407.242184 102.2 
L 407.242184 102.2 
L 404.02093 102.2 
z
" style="fill:#1f77b4;"/>
   </g>
   <g id="patch_93">
    <path clip-path="url(#p12008b5ede)" d="M 407.242184 102.2 
L 410.463438 102.2 
L 410.463438 102.2 
L 407.242184 102.2 
z
" style="fill:#1f77b4;"/>
   </g>
   <g id="patch_94">
    <path clip-path="url(#p12008b5ede)" d="M 410.463438 102.2 
L 413.684692 102.2 
L 413.684692 102.2 
L 410.463438 102.2 
z
" style="fill:#1f77b4;"/>
   </g>
   <g id="patch_95">
    <path clip-path="url(#p12008b5ede)" d="M 413.684692 102.2 
L 416.905946 102.2 
L 416.905946 102.2 
L 413.684692 102.2 
z
" style="fill:#1f77b4;"/>
   </g>
   <g id="patch_96">
    <path clip-path="url(#p12008b5ede)" d="M 416.905946 102.2 
L 420.1272 102.2 
L 420.1272 102.2 
L 416.905946 102.2 
z
" style="fill:#1f77b4;"/>
   </g>
   <g id="patch_97">
    <path clip-path="url(#p12008b5ede)" d="M 420.1272 102.2 
L 423.348454 102.2 
L 423.348454 102.2 
L 420.1272 102.2 
z
" style="fill:#1f77b4;"/>
   </g>
   <g id="patch_98">
    <path clip-path="url(#p12008b5ede)" d="M 423.348454 102.2 
L 426.569708 102.2 
L 426.569708 102.2 
L 423.348454 102.2 
z
" style="fill:#1f77b4;"/>
   </g>
   <g id="patch_99">
    <path clip-path="url(#p12008b5ede)" d="M 426.569708 102.2 
L 429.790962 102.2 
L 429.790962 102.2 
L 426.569708 102.2 
z
" style="fill:#1f77b4;"/>
   </g>
   <g id="patch_100">
    <path clip-path="url(#p12008b5ede)" d="M 429.790962 102.2 
L 433.012216 102.2 
L 433.012216 102.2 
L 429.790962 102.2 
z
" style="fill:#1f77b4;"/>
   </g>
   <g id="patch_101">
    <path clip-path="url(#p12008b5ede)" d="M 433.012216 102.2 
L 436.23347 102.2 
L 436.23347 102.2 
L 433.012216 102.2 
z
" style="fill:#1f77b4;"/>
   </g>
   <g id="patch_102">
    <path clip-path="url(#p12008b5ede)" d="M 436.23347 102.2 
L 439.454724 102.2 
L 439.454724 102.2 
L 436.23347 102.2 
z
" style="fill:#1f77b4;"/>
   </g>
   <g id="patch_103">
    <path clip-path="url(#p12008b5ede)" d="M 439.454724 102.2 
L 442.675979 102.2 
L 442.675979 102.2 
L 439.454724 102.2 
z
" style="fill:#1f77b4;"/>
   </g>
   <g id="patch_104">
    <path clip-path="url(#p12008b5ede)" d="M 442.675979 102.2 
L 445.897233 102.2 
L 445.897233 102.2 
L 442.675979 102.2 
z
" style="fill:#1f77b4;"/>
   </g>
   <g id="patch_105">
    <path clip-path="url(#p12008b5ede)" d="M 445.897233 102.2 
L 449.118487 102.2 
L 449.118487 102.2 
L 445.897233 102.2 
z
" style="fill:#1f77b4;"/>
   </g>
   <g id="matplotlib.axis_5">
    <g id="xtick_7">
     <g id="line2d_12">
      <g>
       <use style="stroke:#000000;stroke-width:0.8;" x="349.25961" xlink:href="#me6d47618cf" y="102.2"/>
      </g>
     </g>
     <g id="text_17">
      <!-- 0.0 -->
      <g transform="translate(341.308048 116.798437)scale(0.1 -0.1)">
       <use xlink:href="#DejaVuSans-48"/>
       <use x="63.623047" xlink:href="#DejaVuSans-46"/>
       <use x="95.410156" xlink:href="#DejaVuSans-48"/>
      </g>
     </g>
    </g>
    <g id="xtick_8">
     <g id="line2d_13">
      <g>
       <use style="stroke:#000000;stroke-width:0.8;" x="399.189049" xlink:href="#me6d47618cf" y="102.2"/>
      </g>
     </g>
     <g id="text_18">
      <!-- 0.5 -->
      <g transform="translate(391.237486 116.798437)scale(0.1 -0.1)">
       <use xlink:href="#DejaVuSans-48"/>
       <use x="63.623047" xlink:href="#DejaVuSans-46"/>
       <use x="95.410156" xlink:href="#DejaVuSans-53"/>
      </g>
     </g>
    </g>
    <g id="xtick_9">
     <g id="line2d_14">
      <g>
       <use style="stroke:#000000;stroke-width:0.8;" x="449.118487" xlink:href="#me6d47618cf" y="102.2"/>
      </g>
     </g>
     <g id="text_19">
      <!-- 1.0 -->
      <g transform="translate(441.166924 116.798437)scale(0.1 -0.1)">
       <use xlink:href="#DejaVuSans-49"/>
       <use x="63.623047" xlink:href="#DejaVuSans-46"/>
       <use x="95.410156" xlink:href="#DejaVuSans-48"/>
      </g>
     </g>
    </g>
    <g id="text_20">
     <!-- Overhead Fraction -->
     <g transform="translate(352.773424 130.476562)scale(0.1 -0.1)">
      <use xlink:href="#DejaVuSans-79"/>
      <use x="78.710938" xlink:href="#DejaVuSans-118"/>
      <use x="137.890625" xlink:href="#DejaVuSans-101"/>
      <use x="199.414062" xlink:href="#DejaVuSans-114"/>
      <use x="240.511719" xlink:href="#DejaVuSans-104"/>
      <use x="303.890625" xlink:href="#DejaVuSans-101"/>
      <use x="365.414062" xlink:href="#DejaVuSans-97"/>
      <use x="426.693359" xlink:href="#DejaVuSans-100"/>
      <use x="490.169922" xlink:href="#DejaVuSans-32"/>
      <use x="521.957031" xlink:href="#DejaVuSans-70"/>
      <use x="579.367188" xlink:href="#DejaVuSans-114"/>
      <use x="620.480469" xlink:href="#DejaVuSans-97"/>
      <use x="681.759766" xlink:href="#DejaVuSans-99"/>
      <use x="736.740234" xlink:href="#DejaVuSans-116"/>
      <use x="775.949219" xlink:href="#DejaVuSans-105"/>
      <use x="803.732422" xlink:href="#DejaVuSans-111"/>
      <use x="864.914062" xlink:href="#DejaVuSans-110"/>
     </g>
    </g>
   </g>
   <g id="matplotlib.axis_6">
    <g id="ytick_6">
     <g id="line2d_15">
      <g>
       <use style="stroke:#000000;stroke-width:0.8;" x="344.266667" xlink:href="#m86519e1afb" y="102.2"/>
      </g>
     </g>
     <g id="text_21">
      <!-- 0 -->
      <g transform="translate(330.904167 105.999219)scale(0.1 -0.1)">
       <use xlink:href="#DejaVuSans-48"/>
      </g>
     </g>
    </g>
    <g id="ytick_7">
     <g id="line2d_16">
      <g>
       <use style="stroke:#000000;stroke-width:0.8;" x="344.266667" xlink:href="#m86519e1afb" y="65.342857"/>
      </g>
     </g>
     <g id="text_22">
      <!-- 1 -->
      <g transform="translate(330.904167 69.142076)scale(0.1 -0.1)">
       <use xlink:href="#DejaVuSans-49"/>
      </g>
     </g>
    </g>
    <g id="ytick_8">
     <g id="line2d_17">
      <g>
       <use style="stroke:#000000;stroke-width:0.8;" x="344.266667" xlink:href="#m86519e1afb" y="28.485714"/>
      </g>
     </g>
     <g id="text_23">
      <!-- 2 -->
      <g transform="translate(330.904167 32.284933)scale(0.1 -0.1)">
       <use xlink:href="#DejaVuSans-50"/>
      </g>
     </g>
    </g>
   </g>
   <g id="patch_106">
    <path d="M 344.266667 102.2 
L 344.266667 24.8 
" style="fill:none;stroke:#000000;stroke-linecap:square;stroke-linejoin:miter;stroke-width:0.8;"/>
   </g>
   <g id="patch_107">
    <path d="M 454.11143 102.2 
L 454.11143 24.8 
" style="fill:none;stroke:#000000;stroke-linecap:square;stroke-linejoin:miter;stroke-width:0.8;"/>
   </g>
   <g id="patch_108">
    <path d="M 344.266667 102.2 
L 454.11143 102.2 
" style="fill:none;stroke:#000000;stroke-linecap:square;stroke-linejoin:miter;stroke-width:0.8;"/>
   </g>
   <g id="patch_109">
    <path d="M 344.266667 24.8 
L 454.11143 24.8 
" style="fill:none;stroke:#000000;stroke-linecap:square;stroke-linejoin:miter;stroke-width:0.8;"/>
   </g>
   <g id="text_24">
    <!-- Active Learning Tasks -->
    <defs>
     <path d="M 34.1875 63.1875 
L 20.796875 26.90625 
L 47.609375 26.90625 
z
M 28.609375 72.90625 
L 39.796875 72.90625 
L 67.578125 0 
L 57.328125 0 
L 50.6875 18.703125 
L 17.828125 18.703125 
L 11.1875 0 
L 0.78125 0 
z
" id="DejaVuSans-65"/>
     <path d="M 45.40625 27.984375 
Q 45.40625 37.75 41.375 43.109375 
Q 37.359375 48.484375 30.078125 48.484375 
Q 22.859375 48.484375 18.828125 43.109375 
Q 14.796875 37.75 14.796875 27.984375 
Q 14.796875 18.265625 18.828125 12.890625 
Q 22.859375 7.515625 30.078125 7.515625 
Q 37.359375 7.515625 41.375 12.890625 
Q 45.40625 18.265625 45.40625 27.984375 
z
M 54.390625 6.78125 
Q 54.390625 -7.171875 48.1875 -13.984375 
Q 42 -20.796875 29.203125 -20.796875 
Q 24.46875 -20.796875 20.265625 -20.09375 
Q 16.0625 -19.390625 12.109375 -17.921875 
L 12.109375 -9.1875 
Q 16.0625 -11.328125 19.921875 -12.34375 
Q 23.78125 -13.375 27.78125 -13.375 
Q 36.625 -13.375 41.015625 -8.765625 
Q 45.40625 -4.15625 45.40625 5.171875 
L 45.40625 9.625 
Q 42.625 4.78125 38.28125 2.390625 
Q 33.9375 0 27.875 0 
Q 17.828125 0 11.671875 7.65625 
Q 5.515625 15.328125 5.515625 27.984375 
Q 5.515625 40.671875 11.671875 48.328125 
Q 17.828125 56 27.875 56 
Q 33.9375 56 38.28125 53.609375 
Q 42.625 51.21875 45.40625 46.390625 
L 45.40625 54.6875 
L 54.390625 54.6875 
z
" id="DejaVuSans-103"/>
    </defs>
    <g transform="translate(344.365611 18.8)scale(0.1 -0.1)">
     <use xlink:href="#DejaVuSans-65"/>
     <use x="68.392578" xlink:href="#DejaVuSans-99"/>
     <use x="123.373047" xlink:href="#DejaVuSans-116"/>
     <use x="162.582031" xlink:href="#DejaVuSans-105"/>
     <use x="190.365234" xlink:href="#DejaVuSans-118"/>
     <use x="249.544922" xlink:href="#DejaVuSans-101"/>
     <use x="311.068359" xlink:href="#DejaVuSans-32"/>
     <use x="342.855469" xlink:href="#DejaVuSans-76"/>
     <use x="398.552734" xlink:href="#DejaVuSans-101"/>
     <use x="460.076172" xlink:href="#DejaVuSans-97"/>
     <use x="521.355469" xlink:href="#DejaVuSans-114"/>
     <use x="562.453125" xlink:href="#DejaVuSans-110"/>
     <use x="625.832031" xlink:href="#DejaVuSans-105"/>
     <use x="653.615234" xlink:href="#DejaVuSans-110"/>
     <use x="716.994141" xlink:href="#DejaVuSans-103"/>
     <use x="780.470703" xlink:href="#DejaVuSans-32"/>
     <use x="812.257812" xlink:href="#DejaVuSans-84"/>
     <use x="873.091797" xlink:href="#DejaVuSans-97"/>
     <use x="934.371094" xlink:href="#DejaVuSans-115"/>
     <use x="986.470703" xlink:href="#DejaVuSans-107"/>
     <use x="1044.380859" xlink:href="#DejaVuSans-115"/>
    </g>
   </g>
  </g>
 </g>
 <defs>
  <clipPath id="pef91a4e6ef">
   <rect height="77.4" width="109.844764" x="50.8" y="24.8"/>
  </clipPath>
  <clipPath id="p3db59578d0">
   <rect height="77.4" width="109.844764" x="197.533333" y="24.8"/>
  </clipPath>
  <clipPath id="p12008b5ede">
   <rect height="77.4" width="109.844764" x="344.266667" y="24.8"/>
  </clipPath>
 </defs>
</svg>
