<?xml version="1.0" encoding="utf-8" standalone="no"?>
<!DOCTYPE svg PUBLIC "-//W3C//DTD SVG 1.1//EN"
  "http://www.w3.org/Graphics/SVG/1.1/DTD/svg11.dtd">
<!-- Created with matplotlib (https://matplotlib.org/) -->
<svg height="288pt" version="1.1" viewBox="0 0 468 288" width="468pt" xmlns="http://www.w3.org/2000/svg" xmlns:xlink="http://www.w3.org/1999/xlink">
 <defs>
  <style type="text/css">
*{stroke-linecap:butt;stroke-linejoin:round;}
  </style>
 </defs>
 <g id="figure_1">
  <g id="patch_1">
   <path d="M 0 288 
L 468 288 
L 468 0 
L 0 0 
z
" style="fill:#ffffff;"/>
  </g>
  <g id="axes_1">
   <g id="patch_2">
    <path d="M 56.925 116.1 
L 241.406302 116.1 
L 241.406302 24.8 
L 56.925 24.8 
z
" style="fill:#ffffff;"/>
   </g>
   <g id="patch_3">
    <path clip-path="url(#p6a4b97df6b)" d="M 65.310514 116.1 
L 70.720523 116.1 
L 70.720523 29.147619 
L 65.310514 29.147619 
z
" style="fill:#1f77b4;"/>
   </g>
   <g id="patch_4">
    <path clip-path="url(#p6a4b97df6b)" d="M 70.720523 116.1 
L 76.130531 116.1 
L 76.130531 84.487411 
L 70.720523 84.487411 
z
" style="fill:#1f77b4;"/>
   </g>
   <g id="patch_5">
    <path clip-path="url(#p6a4b97df6b)" d="M 76.130531 116.1 
L 81.54054 116.1 
L 81.54054 102.105213 
L 76.130531 102.105213 
z
" style="fill:#1f77b4;"/>
   </g>
   <g id="patch_6">
    <path clip-path="url(#p6a4b97df6b)" d="M 81.54054 116.1 
L 86.950549 116.1 
L 86.950549 108.782929 
L 81.54054 108.782929 
z
" style="fill:#1f77b4;"/>
   </g>
   <g id="patch_7">
    <path clip-path="url(#p6a4b97df6b)" d="M 86.950549 116.1 
L 92.360558 116.1 
L 92.360558 111.091713 
L 86.950549 111.091713 
z
" style="fill:#1f77b4;"/>
   </g>
   <g id="patch_8">
    <path clip-path="url(#p6a4b97df6b)" d="M 92.360558 116.1 
L 97.770567 116.1 
L 97.770567 113.613617 
L 92.360558 113.613617 
z
" style="fill:#1f77b4;"/>
   </g>
   <g id="patch_9">
    <path clip-path="url(#p6a4b97df6b)" d="M 97.770567 116.1 
L 103.180576 116.1 
L 103.180576 114.501611 
L 97.770567 114.501611 
z
" style="fill:#1f77b4;"/>
   </g>
   <g id="patch_10">
    <path clip-path="url(#p6a4b97df6b)" d="M 103.180576 116.1 
L 108.590584 116.1 
L 108.590584 115.069927 
L 103.180576 115.069927 
z
" style="fill:#1f77b4;"/>
   </g>
   <g id="patch_11">
    <path clip-path="url(#p6a4b97df6b)" d="M 108.590584 116.1 
L 114.000593 116.1 
L 114.000593 115.034407 
L 108.590584 115.034407 
z
" style="fill:#1f77b4;"/>
   </g>
   <g id="patch_12">
    <path clip-path="url(#p6a4b97df6b)" d="M 114.000593 116.1 
L 119.410602 116.1 
L 119.410602 115.105447 
L 114.000593 115.105447 
z
" style="fill:#1f77b4;"/>
   </g>
   <g id="patch_13">
    <path clip-path="url(#p6a4b97df6b)" d="M 119.410602 116.1 
L 124.820611 116.1 
L 124.820611 115.283045 
L 119.410602 115.283045 
z
" style="fill:#1f77b4;"/>
   </g>
   <g id="patch_14">
    <path clip-path="url(#p6a4b97df6b)" d="M 124.820611 116.1 
L 130.23062 116.1 
L 130.23062 115.389605 
L 124.820611 115.389605 
z
" style="fill:#1f77b4;"/>
   </g>
   <g id="patch_15">
    <path clip-path="url(#p6a4b97df6b)" d="M 130.23062 116.1 
L 135.640629 116.1 
L 135.640629 115.567204 
L 130.23062 115.567204 
z
" style="fill:#1f77b4;"/>
   </g>
   <g id="patch_16">
    <path clip-path="url(#p6a4b97df6b)" d="M 135.640629 116.1 
L 141.050638 116.1 
L 141.050638 115.744802 
L 135.640629 115.744802 
z
" style="fill:#1f77b4;"/>
   </g>
   <g id="patch_17">
    <path clip-path="url(#p6a4b97df6b)" d="M 141.050638 116.1 
L 146.460646 116.1 
L 146.460646 115.460644 
L 141.050638 115.460644 
z
" style="fill:#1f77b4;"/>
   </g>
   <g id="patch_18">
    <path clip-path="url(#p6a4b97df6b)" d="M 146.460646 116.1 
L 151.870655 116.1 
L 151.870655 115.638243 
L 146.460646 115.638243 
z
" style="fill:#1f77b4;"/>
   </g>
   <g id="patch_19">
    <path clip-path="url(#p6a4b97df6b)" d="M 151.870655 116.1 
L 157.280664 116.1 
L 157.280664 115.815842 
L 151.870655 115.815842 
z
" style="fill:#1f77b4;"/>
   </g>
   <g id="patch_20">
    <path clip-path="url(#p6a4b97df6b)" d="M 157.280664 116.1 
L 162.690673 116.1 
L 162.690673 115.780322 
L 157.280664 115.780322 
z
" style="fill:#1f77b4;"/>
   </g>
   <g id="patch_21">
    <path clip-path="url(#p6a4b97df6b)" d="M 162.690673 116.1 
L 168.100682 116.1 
L 168.100682 115.815842 
L 162.690673 115.815842 
z
" style="fill:#1f77b4;"/>
   </g>
   <g id="patch_22">
    <path clip-path="url(#p6a4b97df6b)" d="M 168.100682 116.1 
L 173.510691 116.1 
L 173.510691 115.993441 
L 168.100682 115.993441 
z
" style="fill:#1f77b4;"/>
   </g>
   <g id="patch_23">
    <path clip-path="url(#p6a4b97df6b)" d="M 173.510691 116.1 
L 178.920699 116.1 
L 178.920699 115.922401 
L 173.510691 115.922401 
z
" style="fill:#1f77b4;"/>
   </g>
   <g id="patch_24">
    <path clip-path="url(#p6a4b97df6b)" d="M 178.920699 116.1 
L 184.330708 116.1 
L 184.330708 116.02896 
L 178.920699 116.02896 
z
" style="fill:#1f77b4;"/>
   </g>
   <g id="patch_25">
    <path clip-path="url(#p6a4b97df6b)" d="M 184.330708 116.1 
L 189.740717 116.1 
L 189.740717 116.06448 
L 184.330708 116.06448 
z
" style="fill:#1f77b4;"/>
   </g>
   <g id="patch_26">
    <path clip-path="url(#p6a4b97df6b)" d="M 189.740717 116.1 
L 195.150726 116.1 
L 195.150726 116.06448 
L 189.740717 116.06448 
z
" style="fill:#1f77b4;"/>
   </g>
   <g id="patch_27">
    <path clip-path="url(#p6a4b97df6b)" d="M 195.150726 116.1 
L 200.560735 116.1 
L 200.560735 116.1 
L 195.150726 116.1 
z
" style="fill:#1f77b4;"/>
   </g>
   <g id="patch_28">
    <path clip-path="url(#p6a4b97df6b)" d="M 200.560735 116.1 
L 205.970744 116.1 
L 205.970744 116.1 
L 200.560735 116.1 
z
" style="fill:#1f77b4;"/>
   </g>
   <g id="patch_29">
    <path clip-path="url(#p6a4b97df6b)" d="M 205.970744 116.1 
L 211.380753 116.1 
L 211.380753 116.02896 
L 205.970744 116.02896 
z
" style="fill:#1f77b4;"/>
   </g>
   <g id="patch_30">
    <path clip-path="url(#p6a4b97df6b)" d="M 211.380753 116.1 
L 216.790761 116.1 
L 216.790761 116.1 
L 211.380753 116.1 
z
" style="fill:#1f77b4;"/>
   </g>
   <g id="patch_31">
    <path clip-path="url(#p6a4b97df6b)" d="M 216.790761 116.1 
L 222.20077 116.1 
L 222.20077 116.06448 
L 216.790761 116.06448 
z
" style="fill:#1f77b4;"/>
   </g>
   <g id="patch_32">
    <path clip-path="url(#p6a4b97df6b)" d="M 222.20077 116.1 
L 227.610779 116.1 
L 227.610779 116.1 
L 222.20077 116.1 
z
" style="fill:#1f77b4;"/>
   </g>
   <g id="patch_33">
    <path clip-path="url(#p6a4b97df6b)" d="M 227.610779 116.1 
L 233.020788 116.1 
L 233.020788 116.1 
L 227.610779 116.1 
z
" style="fill:#1f77b4;"/>
   </g>
   <g id="matplotlib.axis_1">
    <g id="xtick_1">
     <g id="line2d_1">
      <defs>
       <path d="M 0 0 
L 0 3.5 
" id="md3c06b9a25" style="stroke:#000000;stroke-width:0.8;"/>
      </defs>
      <g>
       <use style="stroke:#000000;stroke-width:0.8;" x="65.310514" xlink:href="#md3c06b9a25" y="116.1"/>
      </g>
     </g>
    </g>
    <g id="xtick_2">
     <g id="line2d_2">
      <g>
       <use style="stroke:#000000;stroke-width:0.8;" x="98.852569" xlink:href="#md3c06b9a25" y="116.1"/>
      </g>
     </g>
    </g>
    <g id="xtick_3">
     <g id="line2d_3">
      <g>
       <use style="stroke:#000000;stroke-width:0.8;" x="132.394623" xlink:href="#md3c06b9a25" y="116.1"/>
      </g>
     </g>
    </g>
    <g id="xtick_4">
     <g id="line2d_4">
      <g>
       <use style="stroke:#000000;stroke-width:0.8;" x="165.936678" xlink:href="#md3c06b9a25" y="116.1"/>
      </g>
     </g>
    </g>
    <g id="xtick_5">
     <g id="line2d_5">
      <g>
       <use style="stroke:#000000;stroke-width:0.8;" x="199.478733" xlink:href="#md3c06b9a25" y="116.1"/>
      </g>
     </g>
    </g>
    <g id="xtick_6">
     <g id="line2d_6">
      <g>
       <use style="stroke:#000000;stroke-width:0.8;" x="233.020788" xlink:href="#md3c06b9a25" y="116.1"/>
      </g>
     </g>
    </g>
    <g id="text_1">
     <!-- Overhead Fraction -->
     <defs>
      <path d="M 39.40625 66.21875 
Q 28.65625 66.21875 22.328125 58.203125 
Q 16.015625 50.203125 16.015625 36.375 
Q 16.015625 22.609375 22.328125 14.59375 
Q 28.65625 6.59375 39.40625 6.59375 
Q 50.140625 6.59375 56.421875 14.59375 
Q 62.703125 22.609375 62.703125 36.375 
Q 62.703125 50.203125 56.421875 58.203125 
Q 50.140625 66.21875 39.40625 66.21875 
z
M 39.40625 74.21875 
Q 54.734375 74.21875 63.90625 63.9375 
Q 73.09375 53.65625 73.09375 36.375 
Q 73.09375 19.140625 63.90625 8.859375 
Q 54.734375 -1.421875 39.40625 -1.421875 
Q 24.03125 -1.421875 14.8125 8.828125 
Q 5.609375 19.09375 5.609375 36.375 
Q 5.609375 53.65625 14.8125 63.9375 
Q 24.03125 74.21875 39.40625 74.21875 
z
" id="DejaVuSans-79"/>
      <path d="M 2.984375 54.6875 
L 12.5 54.6875 
L 29.59375 8.796875 
L 46.6875 54.6875 
L 56.203125 54.6875 
L 35.6875 0 
L 23.484375 0 
z
" id="DejaVuSans-118"/>
      <path d="M 56.203125 29.59375 
L 56.203125 25.203125 
L 14.890625 25.203125 
Q 15.484375 15.921875 20.484375 11.0625 
Q 25.484375 6.203125 34.421875 6.203125 
Q 39.59375 6.203125 44.453125 7.46875 
Q 49.3125 8.734375 54.109375 11.28125 
L 54.109375 2.78125 
Q 49.265625 0.734375 44.1875 -0.34375 
Q 39.109375 -1.421875 33.890625 -1.421875 
Q 20.796875 -1.421875 13.15625 6.1875 
Q 5.515625 13.8125 5.515625 26.8125 
Q 5.515625 40.234375 12.765625 48.109375 
Q 20.015625 56 32.328125 56 
Q 43.359375 56 49.78125 48.890625 
Q 56.203125 41.796875 56.203125 29.59375 
z
M 47.21875 32.234375 
Q 47.125 39.59375 43.09375 43.984375 
Q 39.0625 48.390625 32.421875 48.390625 
Q 24.90625 48.390625 20.390625 44.140625 
Q 15.875 39.890625 15.1875 32.171875 
z
" id="DejaVuSans-101"/>
      <path d="M 41.109375 46.296875 
Q 39.59375 47.171875 37.8125 47.578125 
Q 36.03125 48 33.890625 48 
Q 26.265625 48 22.1875 43.046875 
Q 18.109375 38.09375 18.109375 28.8125 
L 18.109375 0 
L 9.078125 0 
L 9.078125 54.6875 
L 18.109375 54.6875 
L 18.109375 46.1875 
Q 20.953125 51.171875 25.484375 53.578125 
Q 30.03125 56 36.53125 56 
Q 37.453125 56 38.578125 55.875 
Q 39.703125 55.765625 41.0625 55.515625 
z
" id="DejaVuSans-114"/>
      <path d="M 54.890625 33.015625 
L 54.890625 0 
L 45.90625 0 
L 45.90625 32.71875 
Q 45.90625 40.484375 42.875 44.328125 
Q 39.84375 48.1875 33.796875 48.1875 
Q 26.515625 48.1875 22.3125 43.546875 
Q 18.109375 38.921875 18.109375 30.90625 
L 18.109375 0 
L 9.078125 0 
L 9.078125 75.984375 
L 18.109375 75.984375 
L 18.109375 46.1875 
Q 21.34375 51.125 25.703125 53.5625 
Q 30.078125 56 35.796875 56 
Q 45.21875 56 50.046875 50.171875 
Q 54.890625 44.34375 54.890625 33.015625 
z
" id="DejaVuSans-104"/>
      <path d="M 34.28125 27.484375 
Q 23.390625 27.484375 19.1875 25 
Q 14.984375 22.515625 14.984375 16.5 
Q 14.984375 11.71875 18.140625 8.90625 
Q 21.296875 6.109375 26.703125 6.109375 
Q 34.1875 6.109375 38.703125 11.40625 
Q 43.21875 16.703125 43.21875 25.484375 
L 43.21875 27.484375 
z
M 52.203125 31.203125 
L 52.203125 0 
L 43.21875 0 
L 43.21875 8.296875 
Q 40.140625 3.328125 35.546875 0.953125 
Q 30.953125 -1.421875 24.3125 -1.421875 
Q 15.921875 -1.421875 10.953125 3.296875 
Q 6 8.015625 6 15.921875 
Q 6 25.140625 12.171875 29.828125 
Q 18.359375 34.515625 30.609375 34.515625 
L 43.21875 34.515625 
L 43.21875 35.40625 
Q 43.21875 41.609375 39.140625 45 
Q 35.0625 48.390625 27.6875 48.390625 
Q 23 48.390625 18.546875 47.265625 
Q 14.109375 46.140625 10.015625 43.890625 
L 10.015625 52.203125 
Q 14.9375 54.109375 19.578125 55.046875 
Q 24.21875 56 28.609375 56 
Q 40.484375 56 46.34375 49.84375 
Q 52.203125 43.703125 52.203125 31.203125 
z
" id="DejaVuSans-97"/>
      <path d="M 45.40625 46.390625 
L 45.40625 75.984375 
L 54.390625 75.984375 
L 54.390625 0 
L 45.40625 0 
L 45.40625 8.203125 
Q 42.578125 3.328125 38.25 0.953125 
Q 33.9375 -1.421875 27.875 -1.421875 
Q 17.96875 -1.421875 11.734375 6.484375 
Q 5.515625 14.40625 5.515625 27.296875 
Q 5.515625 40.1875 11.734375 48.09375 
Q 17.96875 56 27.875 56 
Q 33.9375 56 38.25 53.625 
Q 42.578125 51.265625 45.40625 46.390625 
z
M 14.796875 27.296875 
Q 14.796875 17.390625 18.875 11.75 
Q 22.953125 6.109375 30.078125 6.109375 
Q 37.203125 6.109375 41.296875 11.75 
Q 45.40625 17.390625 45.40625 27.296875 
Q 45.40625 37.203125 41.296875 42.84375 
Q 37.203125 48.484375 30.078125 48.484375 
Q 22.953125 48.484375 18.875 42.84375 
Q 14.796875 37.203125 14.796875 27.296875 
z
" id="DejaVuSans-100"/>
      <path id="DejaVuSans-32"/>
      <path d="M 9.8125 72.90625 
L 51.703125 72.90625 
L 51.703125 64.59375 
L 19.671875 64.59375 
L 19.671875 43.109375 
L 48.578125 43.109375 
L 48.578125 34.8125 
L 19.671875 34.8125 
L 19.671875 0 
L 9.8125 0 
z
" id="DejaVuSans-70"/>
      <path d="M 48.78125 52.59375 
L 48.78125 44.1875 
Q 44.96875 46.296875 41.140625 47.34375 
Q 37.3125 48.390625 33.40625 48.390625 
Q 24.65625 48.390625 19.8125 42.84375 
Q 14.984375 37.3125 14.984375 27.296875 
Q 14.984375 17.28125 19.8125 11.734375 
Q 24.65625 6.203125 33.40625 6.203125 
Q 37.3125 6.203125 41.140625 7.25 
Q 44.96875 8.296875 48.78125 10.40625 
L 48.78125 2.09375 
Q 45.015625 0.34375 40.984375 -0.53125 
Q 36.96875 -1.421875 32.421875 -1.421875 
Q 20.0625 -1.421875 12.78125 6.34375 
Q 5.515625 14.109375 5.515625 27.296875 
Q 5.515625 40.671875 12.859375 48.328125 
Q 20.21875 56 33.015625 56 
Q 37.15625 56 41.109375 55.140625 
Q 45.0625 54.296875 48.78125 52.59375 
z
" id="DejaVuSans-99"/>
      <path d="M 18.3125 70.21875 
L 18.3125 54.6875 
L 36.8125 54.6875 
L 36.8125 47.703125 
L 18.3125 47.703125 
L 18.3125 18.015625 
Q 18.3125 11.328125 20.140625 9.421875 
Q 21.96875 7.515625 27.59375 7.515625 
L 36.8125 7.515625 
L 36.8125 0 
L 27.59375 0 
Q 17.1875 0 13.234375 3.875 
Q 9.28125 7.765625 9.28125 18.015625 
L 9.28125 47.703125 
L 2.6875 47.703125 
L 2.6875 54.6875 
L 9.28125 54.6875 
L 9.28125 70.21875 
z
" id="DejaVuSans-116"/>
      <path d="M 9.421875 54.6875 
L 18.40625 54.6875 
L 18.40625 0 
L 9.421875 0 
z
M 9.421875 75.984375 
L 18.40625 75.984375 
L 18.40625 64.59375 
L 9.421875 64.59375 
z
" id="DejaVuSans-105"/>
      <path d="M 30.609375 48.390625 
Q 23.390625 48.390625 19.1875 42.75 
Q 14.984375 37.109375 14.984375 27.296875 
Q 14.984375 17.484375 19.15625 11.84375 
Q 23.34375 6.203125 30.609375 6.203125 
Q 37.796875 6.203125 41.984375 11.859375 
Q 46.1875 17.53125 46.1875 27.296875 
Q 46.1875 37.015625 41.984375 42.703125 
Q 37.796875 48.390625 30.609375 48.390625 
z
M 30.609375 56 
Q 42.328125 56 49.015625 48.375 
Q 55.71875 40.765625 55.71875 27.296875 
Q 55.71875 13.875 49.015625 6.21875 
Q 42.328125 -1.421875 30.609375 -1.421875 
Q 18.84375 -1.421875 12.171875 6.21875 
Q 5.515625 13.875 5.515625 27.296875 
Q 5.515625 40.765625 12.171875 48.375 
Q 18.84375 56 30.609375 56 
z
" id="DejaVuSans-111"/>
      <path d="M 54.890625 33.015625 
L 54.890625 0 
L 45.90625 0 
L 45.90625 32.71875 
Q 45.90625 40.484375 42.875 44.328125 
Q 39.84375 48.1875 33.796875 48.1875 
Q 26.515625 48.1875 22.3125 43.546875 
Q 18.109375 38.921875 18.109375 30.90625 
L 18.109375 0 
L 9.078125 0 
L 9.078125 54.6875 
L 18.109375 54.6875 
L 18.109375 46.1875 
Q 21.34375 51.125 25.703125 53.5625 
Q 30.078125 56 35.796875 56 
Q 45.21875 56 50.046875 50.171875 
Q 54.890625 44.34375 54.890625 33.015625 
z
" id="DejaVuSans-110"/>
     </defs>
     <g transform="translate(102.750026 127.698437)scale(0.1 -0.1)">
      <use xlink:href="#DejaVuSans-79"/>
      <use x="78.710938" xlink:href="#DejaVuSans-118"/>
      <use x="137.890625" xlink:href="#DejaVuSans-101"/>
      <use x="199.414062" xlink:href="#DejaVuSans-114"/>
      <use x="240.511719" xlink:href="#DejaVuSans-104"/>
      <use x="303.890625" xlink:href="#DejaVuSans-101"/>
      <use x="365.414062" xlink:href="#DejaVuSans-97"/>
      <use x="426.693359" xlink:href="#DejaVuSans-100"/>
      <use x="490.169922" xlink:href="#DejaVuSans-32"/>
      <use x="521.957031" xlink:href="#DejaVuSans-70"/>
      <use x="579.367188" xlink:href="#DejaVuSans-114"/>
      <use x="620.480469" xlink:href="#DejaVuSans-97"/>
      <use x="681.759766" xlink:href="#DejaVuSans-99"/>
      <use x="736.740234" xlink:href="#DejaVuSans-116"/>
      <use x="775.949219" xlink:href="#DejaVuSans-105"/>
      <use x="803.732422" xlink:href="#DejaVuSans-111"/>
      <use x="864.914062" xlink:href="#DejaVuSans-110"/>
     </g>
    </g>
   </g>
   <g id="matplotlib.axis_2">
    <g id="ytick_1">
     <g id="line2d_7">
      <defs>
       <path d="M 0 0 
L -3.5 0 
" id="mf20308f656" style="stroke:#000000;stroke-width:0.8;"/>
      </defs>
      <g>
       <use style="stroke:#000000;stroke-width:0.8;" x="56.925" xlink:href="#mf20308f656" y="116.1"/>
      </g>
     </g>
     <g id="text_2">
      <!-- 0 -->
      <defs>
       <path d="M 31.78125 66.40625 
Q 24.171875 66.40625 20.328125 58.90625 
Q 16.5 51.421875 16.5 36.375 
Q 16.5 21.390625 20.328125 13.890625 
Q 24.171875 6.390625 31.78125 6.390625 
Q 39.453125 6.390625 43.28125 13.890625 
Q 47.125 21.390625 47.125 36.375 
Q 47.125 51.421875 43.28125 58.90625 
Q 39.453125 66.40625 31.78125 66.40625 
z
M 31.78125 74.21875 
Q 44.046875 74.21875 50.515625 64.515625 
Q 56.984375 54.828125 56.984375 36.375 
Q 56.984375 17.96875 50.515625 8.265625 
Q 44.046875 -1.421875 31.78125 -1.421875 
Q 19.53125 -1.421875 13.0625 8.265625 
Q 6.59375 17.96875 6.59375 36.375 
Q 6.59375 54.828125 13.0625 64.515625 
Q 19.53125 74.21875 31.78125 74.21875 
z
" id="DejaVuSans-48"/>
      </defs>
      <g transform="translate(43.5625 119.899219)scale(0.1 -0.1)">
       <use xlink:href="#DejaVuSans-48"/>
      </g>
     </g>
    </g>
    <g id="ytick_2">
     <g id="line2d_8">
      <g>
       <use style="stroke:#000000;stroke-width:0.8;" x="56.925" xlink:href="#mf20308f656" y="80.580237"/>
      </g>
     </g>
     <g id="text_3">
      <!-- 1000 -->
      <defs>
       <path d="M 12.40625 8.296875 
L 28.515625 8.296875 
L 28.515625 63.921875 
L 10.984375 60.40625 
L 10.984375 69.390625 
L 28.421875 72.90625 
L 38.28125 72.90625 
L 38.28125 8.296875 
L 54.390625 8.296875 
L 54.390625 0 
L 12.40625 0 
z
" id="DejaVuSans-49"/>
      </defs>
      <g transform="translate(24.475 84.379455)scale(0.1 -0.1)">
       <use xlink:href="#DejaVuSans-49"/>
       <use x="63.623047" xlink:href="#DejaVuSans-48"/>
       <use x="127.246094" xlink:href="#DejaVuSans-48"/>
       <use x="190.869141" xlink:href="#DejaVuSans-48"/>
      </g>
     </g>
    </g>
    <g id="ytick_3">
     <g id="line2d_9">
      <g>
       <use style="stroke:#000000;stroke-width:0.8;" x="56.925" xlink:href="#mf20308f656" y="45.060473"/>
      </g>
     </g>
     <g id="text_4">
      <!-- 2000 -->
      <defs>
       <path d="M 19.1875 8.296875 
L 53.609375 8.296875 
L 53.609375 0 
L 7.328125 0 
L 7.328125 8.296875 
Q 12.9375 14.109375 22.625 23.890625 
Q 32.328125 33.6875 34.8125 36.53125 
Q 39.546875 41.84375 41.421875 45.53125 
Q 43.3125 49.21875 43.3125 52.78125 
Q 43.3125 58.59375 39.234375 62.25 
Q 35.15625 65.921875 28.609375 65.921875 
Q 23.96875 65.921875 18.8125 64.3125 
Q 13.671875 62.703125 7.8125 59.421875 
L 7.8125 69.390625 
Q 13.765625 71.78125 18.9375 73 
Q 24.125 74.21875 28.421875 74.21875 
Q 39.75 74.21875 46.484375 68.546875 
Q 53.21875 62.890625 53.21875 53.421875 
Q 53.21875 48.921875 51.53125 44.890625 
Q 49.859375 40.875 45.40625 35.40625 
Q 44.1875 33.984375 37.640625 27.21875 
Q 31.109375 20.453125 19.1875 8.296875 
z
" id="DejaVuSans-50"/>
      </defs>
      <g transform="translate(24.475 48.859692)scale(0.1 -0.1)">
       <use xlink:href="#DejaVuSans-50"/>
       <use x="63.623047" xlink:href="#DejaVuSans-48"/>
       <use x="127.246094" xlink:href="#DejaVuSans-48"/>
       <use x="190.869141" xlink:href="#DejaVuSans-48"/>
      </g>
     </g>
    </g>
    <g id="text_5">
     <!-- Frequency -->
     <defs>
      <path d="M 14.796875 27.296875 
Q 14.796875 17.390625 18.875 11.75 
Q 22.953125 6.109375 30.078125 6.109375 
Q 37.203125 6.109375 41.296875 11.75 
Q 45.40625 17.390625 45.40625 27.296875 
Q 45.40625 37.203125 41.296875 42.84375 
Q 37.203125 48.484375 30.078125 48.484375 
Q 22.953125 48.484375 18.875 42.84375 
Q 14.796875 37.203125 14.796875 27.296875 
z
M 45.40625 8.203125 
Q 42.578125 3.328125 38.25 0.953125 
Q 33.9375 -1.421875 27.875 -1.421875 
Q 17.96875 -1.421875 11.734375 6.484375 
Q 5.515625 14.40625 5.515625 27.296875 
Q 5.515625 40.1875 11.734375 48.09375 
Q 17.96875 56 27.875 56 
Q 33.9375 56 38.25 53.625 
Q 42.578125 51.265625 45.40625 46.390625 
L 45.40625 54.6875 
L 54.390625 54.6875 
L 54.390625 -20.796875 
L 45.40625 -20.796875 
z
" id="DejaVuSans-113"/>
      <path d="M 8.5 21.578125 
L 8.5 54.6875 
L 17.484375 54.6875 
L 17.484375 21.921875 
Q 17.484375 14.15625 20.5 10.265625 
Q 23.53125 6.390625 29.59375 6.390625 
Q 36.859375 6.390625 41.078125 11.03125 
Q 45.3125 15.671875 45.3125 23.6875 
L 45.3125 54.6875 
L 54.296875 54.6875 
L 54.296875 0 
L 45.3125 0 
L 45.3125 8.40625 
Q 42.046875 3.421875 37.71875 1 
Q 33.40625 -1.421875 27.6875 -1.421875 
Q 18.265625 -1.421875 13.375 4.4375 
Q 8.5 10.296875 8.5 21.578125 
z
M 31.109375 56 
z
" id="DejaVuSans-117"/>
      <path d="M 32.171875 -5.078125 
Q 28.375 -14.84375 24.75 -17.8125 
Q 21.140625 -20.796875 15.09375 -20.796875 
L 7.90625 -20.796875 
L 7.90625 -13.28125 
L 13.1875 -13.28125 
Q 16.890625 -13.28125 18.9375 -11.515625 
Q 21 -9.765625 23.484375 -3.21875 
L 25.09375 0.875 
L 2.984375 54.6875 
L 12.5 54.6875 
L 29.59375 11.921875 
L 46.6875 54.6875 
L 56.203125 54.6875 
z
" id="DejaVuSans-121"/>
     </defs>
     <g transform="translate(18.395312 96.747656)rotate(-90)scale(0.1 -0.1)">
      <use xlink:href="#DejaVuSans-70"/>
      <use x="57.410156" xlink:href="#DejaVuSans-114"/>
      <use x="98.492188" xlink:href="#DejaVuSans-101"/>
      <use x="160.015625" xlink:href="#DejaVuSans-113"/>
      <use x="223.492188" xlink:href="#DejaVuSans-117"/>
      <use x="286.871094" xlink:href="#DejaVuSans-101"/>
      <use x="348.394531" xlink:href="#DejaVuSans-110"/>
      <use x="411.773438" xlink:href="#DejaVuSans-99"/>
      <use x="466.753906" xlink:href="#DejaVuSans-121"/>
     </g>
    </g>
   </g>
   <g id="patch_34">
    <path d="M 56.925 116.1 
L 56.925 24.8 
" style="fill:none;stroke:#000000;stroke-linecap:square;stroke-linejoin:miter;stroke-width:0.8;"/>
   </g>
   <g id="patch_35">
    <path d="M 241.406302 116.1 
L 241.406302 24.8 
" style="fill:none;stroke:#000000;stroke-linecap:square;stroke-linejoin:miter;stroke-width:0.8;"/>
   </g>
   <g id="patch_36">
    <path d="M 56.925 116.1 
L 241.406302 116.1 
" style="fill:none;stroke:#000000;stroke-linecap:square;stroke-linejoin:miter;stroke-width:0.8;"/>
   </g>
   <g id="patch_37">
    <path d="M 56.925 24.8 
L 241.406302 24.8 
" style="fill:none;stroke:#000000;stroke-linecap:square;stroke-linejoin:miter;stroke-width:0.8;"/>
   </g>
   <g id="text_6">
    <!-- Simulate -->
    <defs>
     <path d="M 53.515625 70.515625 
L 53.515625 60.890625 
Q 47.90625 63.578125 42.921875 64.890625 
Q 37.9375 66.21875 33.296875 66.21875 
Q 25.25 66.21875 20.875 63.09375 
Q 16.5 59.96875 16.5 54.203125 
Q 16.5 49.359375 19.40625 46.890625 
Q 22.3125 44.4375 30.421875 42.921875 
L 36.375 41.703125 
Q 47.40625 39.59375 52.65625 34.296875 
Q 57.90625 29 57.90625 20.125 
Q 57.90625 9.515625 50.796875 4.046875 
Q 43.703125 -1.421875 29.984375 -1.421875 
Q 24.8125 -1.421875 18.96875 -0.25 
Q 13.140625 0.921875 6.890625 3.21875 
L 6.890625 13.375 
Q 12.890625 10.015625 18.65625 8.296875 
Q 24.421875 6.59375 29.984375 6.59375 
Q 38.421875 6.59375 43.015625 9.90625 
Q 47.609375 13.234375 47.609375 19.390625 
Q 47.609375 24.75 44.3125 27.78125 
Q 41.015625 30.8125 33.5 32.328125 
L 27.484375 33.5 
Q 16.453125 35.6875 11.515625 40.375 
Q 6.59375 45.0625 6.59375 53.421875 
Q 6.59375 63.09375 13.40625 68.65625 
Q 20.21875 74.21875 32.171875 74.21875 
Q 37.3125 74.21875 42.625 73.28125 
Q 47.953125 72.359375 53.515625 70.515625 
z
" id="DejaVuSans-83"/>
     <path d="M 52 44.1875 
Q 55.375 50.25 60.0625 53.125 
Q 64.75 56 71.09375 56 
Q 79.640625 56 84.28125 50.015625 
Q 88.921875 44.046875 88.921875 33.015625 
L 88.921875 0 
L 79.890625 0 
L 79.890625 32.71875 
Q 79.890625 40.578125 77.09375 44.375 
Q 74.3125 48.1875 68.609375 48.1875 
Q 61.625 48.1875 57.5625 43.546875 
Q 53.515625 38.921875 53.515625 30.90625 
L 53.515625 0 
L 44.484375 0 
L 44.484375 32.71875 
Q 44.484375 40.625 41.703125 44.40625 
Q 38.921875 48.1875 33.109375 48.1875 
Q 26.21875 48.1875 22.15625 43.53125 
Q 18.109375 38.875 18.109375 30.90625 
L 18.109375 0 
L 9.078125 0 
L 9.078125 54.6875 
L 18.109375 54.6875 
L 18.109375 46.1875 
Q 21.1875 51.21875 25.484375 53.609375 
Q 29.78125 56 35.6875 56 
Q 41.65625 56 45.828125 52.96875 
Q 50 49.953125 52 44.1875 
z
" id="DejaVuSans-109"/>
     <path d="M 9.421875 75.984375 
L 18.40625 75.984375 
L 18.40625 0 
L 9.421875 0 
z
" id="DejaVuSans-108"/>
    </defs>
    <g transform="translate(127.073463 18.8)scale(0.1 -0.1)">
     <use xlink:href="#DejaVuSans-83"/>
     <use x="63.476562" xlink:href="#DejaVuSans-105"/>
     <use x="91.259766" xlink:href="#DejaVuSans-109"/>
     <use x="188.671875" xlink:href="#DejaVuSans-117"/>
     <use x="252.050781" xlink:href="#DejaVuSans-108"/>
     <use x="279.833984" xlink:href="#DejaVuSans-97"/>
     <use x="341.113281" xlink:href="#DejaVuSans-116"/>
     <use x="380.322266" xlink:href="#DejaVuSans-101"/>
    </g>
   </g>
  </g>
  <g id="axes_2">
   <g id="patch_38">
    <path d="M 269.15 116.1 
L 453.631302 116.1 
L 453.631302 24.8 
L 269.15 24.8 
z
" style="fill:#ffffff;"/>
   </g>
   <g id="patch_39">
    <path clip-path="url(#p6e058b5eaf)" d="M 277.535514 116.1 
L 282.945523 116.1 
L 282.945523 94.361905 
L 277.535514 94.361905 
z
" style="fill:#1f77b4;"/>
   </g>
   <g id="patch_40">
    <path clip-path="url(#p6e058b5eaf)" d="M 282.945523 116.1 
L 288.355531 116.1 
L 288.355531 29.147619 
L 282.945523 29.147619 
z
" style="fill:#1f77b4;"/>
   </g>
   <g id="patch_41">
    <path clip-path="url(#p6e058b5eaf)" d="M 288.355531 116.1 
L 293.76554 116.1 
L 293.76554 116.1 
L 288.355531 116.1 
z
" style="fill:#1f77b4;"/>
   </g>
   <g id="patch_42">
    <path clip-path="url(#p6e058b5eaf)" d="M 293.76554 116.1 
L 299.175549 116.1 
L 299.175549 94.361905 
L 293.76554 94.361905 
z
" style="fill:#1f77b4;"/>
   </g>
   <g id="patch_43">
    <path clip-path="url(#p6e058b5eaf)" d="M 299.175549 116.1 
L 304.585558 116.1 
L 304.585558 116.1 
L 299.175549 116.1 
z
" style="fill:#1f77b4;"/>
   </g>
   <g id="patch_44">
    <path clip-path="url(#p6e058b5eaf)" d="M 304.585558 116.1 
L 309.995567 116.1 
L 309.995567 50.885714 
L 304.585558 50.885714 
z
" style="fill:#1f77b4;"/>
   </g>
   <g id="patch_45">
    <path clip-path="url(#p6e058b5eaf)" d="M 309.995567 116.1 
L 315.405576 116.1 
L 315.405576 72.62381 
L 309.995567 72.62381 
z
" style="fill:#1f77b4;"/>
   </g>
   <g id="patch_46">
    <path clip-path="url(#p6e058b5eaf)" d="M 315.405576 116.1 
L 320.815584 116.1 
L 320.815584 94.361905 
L 315.405576 94.361905 
z
" style="fill:#1f77b4;"/>
   </g>
   <g id="patch_47">
    <path clip-path="url(#p6e058b5eaf)" d="M 320.815584 116.1 
L 326.225593 116.1 
L 326.225593 116.1 
L 320.815584 116.1 
z
" style="fill:#1f77b4;"/>
   </g>
   <g id="patch_48">
    <path clip-path="url(#p6e058b5eaf)" d="M 326.225593 116.1 
L 331.635602 116.1 
L 331.635602 116.1 
L 326.225593 116.1 
z
" style="fill:#1f77b4;"/>
   </g>
   <g id="patch_49">
    <path clip-path="url(#p6e058b5eaf)" d="M 331.635602 116.1 
L 337.045611 116.1 
L 337.045611 116.1 
L 331.635602 116.1 
z
" style="fill:#1f77b4;"/>
   </g>
   <g id="patch_50">
    <path clip-path="url(#p6e058b5eaf)" d="M 337.045611 116.1 
L 342.45562 116.1 
L 342.45562 94.361905 
L 337.045611 94.361905 
z
" style="fill:#1f77b4;"/>
   </g>
   <g id="patch_51">
    <path clip-path="url(#p6e058b5eaf)" d="M 342.45562 116.1 
L 347.865629 116.1 
L 347.865629 29.147619 
L 342.45562 29.147619 
z
" style="fill:#1f77b4;"/>
   </g>
   <g id="patch_52">
    <path clip-path="url(#p6e058b5eaf)" d="M 347.865629 116.1 
L 353.275638 116.1 
L 353.275638 116.1 
L 347.865629 116.1 
z
" style="fill:#1f77b4;"/>
   </g>
   <g id="patch_53">
    <path clip-path="url(#p6e058b5eaf)" d="M 353.275638 116.1 
L 358.685646 116.1 
L 358.685646 94.361905 
L 353.275638 94.361905 
z
" style="fill:#1f77b4;"/>
   </g>
   <g id="patch_54">
    <path clip-path="url(#p6e058b5eaf)" d="M 358.685646 116.1 
L 364.095655 116.1 
L 364.095655 94.361905 
L 358.685646 94.361905 
z
" style="fill:#1f77b4;"/>
   </g>
   <g id="patch_55">
    <path clip-path="url(#p6e058b5eaf)" d="M 364.095655 116.1 
L 369.505664 116.1 
L 369.505664 116.1 
L 364.095655 116.1 
z
" style="fill:#1f77b4;"/>
   </g>
   <g id="patch_56">
    <path clip-path="url(#p6e058b5eaf)" d="M 369.505664 116.1 
L 374.915673 116.1 
L 374.915673 116.1 
L 369.505664 116.1 
z
" style="fill:#1f77b4;"/>
   </g>
   <g id="patch_57">
    <path clip-path="url(#p6e058b5eaf)" d="M 374.915673 116.1 
L 380.325682 116.1 
L 380.325682 116.1 
L 374.915673 116.1 
z
" style="fill:#1f77b4;"/>
   </g>
   <g id="patch_58">
    <path clip-path="url(#p6e058b5eaf)" d="M 380.325682 116.1 
L 385.735691 116.1 
L 385.735691 116.1 
L 380.325682 116.1 
z
" style="fill:#1f77b4;"/>
   </g>
   <g id="patch_59">
    <path clip-path="url(#p6e058b5eaf)" d="M 385.735691 116.1 
L 391.145699 116.1 
L 391.145699 116.1 
L 385.735691 116.1 
z
" style="fill:#1f77b4;"/>
   </g>
   <g id="patch_60">
    <path clip-path="url(#p6e058b5eaf)" d="M 391.145699 116.1 
L 396.555708 116.1 
L 396.555708 116.1 
L 391.145699 116.1 
z
" style="fill:#1f77b4;"/>
   </g>
   <g id="patch_61">
    <path clip-path="url(#p6e058b5eaf)" d="M 396.555708 116.1 
L 401.965717 116.1 
L 401.965717 116.1 
L 396.555708 116.1 
z
" style="fill:#1f77b4;"/>
   </g>
   <g id="patch_62">
    <path clip-path="url(#p6e058b5eaf)" d="M 401.965717 116.1 
L 407.375726 116.1 
L 407.375726 116.1 
L 401.965717 116.1 
z
" style="fill:#1f77b4;"/>
   </g>
   <g id="patch_63">
    <path clip-path="url(#p6e058b5eaf)" d="M 407.375726 116.1 
L 412.785735 116.1 
L 412.785735 116.1 
L 407.375726 116.1 
z
" style="fill:#1f77b4;"/>
   </g>
   <g id="patch_64">
    <path clip-path="url(#p6e058b5eaf)" d="M 412.785735 116.1 
L 418.195744 116.1 
L 418.195744 116.1 
L 412.785735 116.1 
z
" style="fill:#1f77b4;"/>
   </g>
   <g id="patch_65">
    <path clip-path="url(#p6e058b5eaf)" d="M 418.195744 116.1 
L 423.605753 116.1 
L 423.605753 116.1 
L 418.195744 116.1 
z
" style="fill:#1f77b4;"/>
   </g>
   <g id="patch_66">
    <path clip-path="url(#p6e058b5eaf)" d="M 423.605753 116.1 
L 429.015761 116.1 
L 429.015761 116.1 
L 423.605753 116.1 
z
" style="fill:#1f77b4;"/>
   </g>
   <g id="patch_67">
    <path clip-path="url(#p6e058b5eaf)" d="M 429.015761 116.1 
L 434.42577 116.1 
L 434.42577 116.1 
L 429.015761 116.1 
z
" style="fill:#1f77b4;"/>
   </g>
   <g id="patch_68">
    <path clip-path="url(#p6e058b5eaf)" d="M 434.42577 116.1 
L 439.835779 116.1 
L 439.835779 116.1 
L 434.42577 116.1 
z
" style="fill:#1f77b4;"/>
   </g>
   <g id="patch_69">
    <path clip-path="url(#p6e058b5eaf)" d="M 439.835779 116.1 
L 445.245788 116.1 
L 445.245788 116.1 
L 439.835779 116.1 
z
" style="fill:#1f77b4;"/>
   </g>
   <g id="matplotlib.axis_3">
    <g id="xtick_7">
     <g id="line2d_10">
      <g>
       <use style="stroke:#000000;stroke-width:0.8;" x="277.535514" xlink:href="#md3c06b9a25" y="116.1"/>
      </g>
     </g>
    </g>
    <g id="xtick_8">
     <g id="line2d_11">
      <g>
       <use style="stroke:#000000;stroke-width:0.8;" x="311.077569" xlink:href="#md3c06b9a25" y="116.1"/>
      </g>
     </g>
    </g>
    <g id="xtick_9">
     <g id="line2d_12">
      <g>
       <use style="stroke:#000000;stroke-width:0.8;" x="344.619623" xlink:href="#md3c06b9a25" y="116.1"/>
      </g>
     </g>
    </g>
    <g id="xtick_10">
     <g id="line2d_13">
      <g>
       <use style="stroke:#000000;stroke-width:0.8;" x="378.161678" xlink:href="#md3c06b9a25" y="116.1"/>
      </g>
     </g>
    </g>
    <g id="xtick_11">
     <g id="line2d_14">
      <g>
       <use style="stroke:#000000;stroke-width:0.8;" x="411.703733" xlink:href="#md3c06b9a25" y="116.1"/>
      </g>
     </g>
    </g>
    <g id="xtick_12">
     <g id="line2d_15">
      <g>
       <use style="stroke:#000000;stroke-width:0.8;" x="445.245788" xlink:href="#md3c06b9a25" y="116.1"/>
      </g>
     </g>
    </g>
    <g id="text_7">
     <!-- Overhead Fraction -->
     <g transform="translate(314.975026 127.698437)scale(0.1 -0.1)">
      <use xlink:href="#DejaVuSans-79"/>
      <use x="78.710938" xlink:href="#DejaVuSans-118"/>
      <use x="137.890625" xlink:href="#DejaVuSans-101"/>
      <use x="199.414062" xlink:href="#DejaVuSans-114"/>
      <use x="240.511719" xlink:href="#DejaVuSans-104"/>
      <use x="303.890625" xlink:href="#DejaVuSans-101"/>
      <use x="365.414062" xlink:href="#DejaVuSans-97"/>
      <use x="426.693359" xlink:href="#DejaVuSans-100"/>
      <use x="490.169922" xlink:href="#DejaVuSans-32"/>
      <use x="521.957031" xlink:href="#DejaVuSans-70"/>
      <use x="579.367188" xlink:href="#DejaVuSans-114"/>
      <use x="620.480469" xlink:href="#DejaVuSans-97"/>
      <use x="681.759766" xlink:href="#DejaVuSans-99"/>
      <use x="736.740234" xlink:href="#DejaVuSans-116"/>
      <use x="775.949219" xlink:href="#DejaVuSans-105"/>
      <use x="803.732422" xlink:href="#DejaVuSans-111"/>
      <use x="864.914062" xlink:href="#DejaVuSans-110"/>
     </g>
    </g>
   </g>
   <g id="matplotlib.axis_4">
    <g id="ytick_4">
     <g id="line2d_16">
      <g>
       <use style="stroke:#000000;stroke-width:0.8;" x="269.15" xlink:href="#mf20308f656" y="116.1"/>
      </g>
     </g>
     <g id="text_8">
      <!-- 0 -->
      <g transform="translate(255.7875 119.899219)scale(0.1 -0.1)">
       <use xlink:href="#DejaVuSans-48"/>
      </g>
     </g>
    </g>
    <g id="ytick_5">
     <g id="line2d_17">
      <g>
       <use style="stroke:#000000;stroke-width:0.8;" x="269.15" xlink:href="#mf20308f656" y="72.62381"/>
      </g>
     </g>
     <g id="text_9">
      <!-- 2 -->
      <g transform="translate(255.7875 76.423028)scale(0.1 -0.1)">
       <use xlink:href="#DejaVuSans-50"/>
      </g>
     </g>
    </g>
    <g id="ytick_6">
     <g id="line2d_18">
      <g>
       <use style="stroke:#000000;stroke-width:0.8;" x="269.15" xlink:href="#mf20308f656" y="29.147619"/>
      </g>
     </g>
     <g id="text_10">
      <!-- 4 -->
      <defs>
       <path d="M 37.796875 64.3125 
L 12.890625 25.390625 
L 37.796875 25.390625 
z
M 35.203125 72.90625 
L 47.609375 72.90625 
L 47.609375 25.390625 
L 58.015625 25.390625 
L 58.015625 17.1875 
L 47.609375 17.1875 
L 47.609375 0 
L 37.796875 0 
L 37.796875 17.1875 
L 4.890625 17.1875 
L 4.890625 26.703125 
z
" id="DejaVuSans-52"/>
      </defs>
      <g transform="translate(255.7875 32.946838)scale(0.1 -0.1)">
       <use xlink:href="#DejaVuSans-52"/>
      </g>
     </g>
    </g>
   </g>
   <g id="patch_70">
    <path d="M 269.15 116.1 
L 269.15 24.8 
" style="fill:none;stroke:#000000;stroke-linecap:square;stroke-linejoin:miter;stroke-width:0.8;"/>
   </g>
   <g id="patch_71">
    <path d="M 453.631302 116.1 
L 453.631302 24.8 
" style="fill:none;stroke:#000000;stroke-linecap:square;stroke-linejoin:miter;stroke-width:0.8;"/>
   </g>
   <g id="patch_72">
    <path d="M 269.15 116.1 
L 453.631302 116.1 
" style="fill:none;stroke:#000000;stroke-linecap:square;stroke-linejoin:miter;stroke-width:0.8;"/>
   </g>
   <g id="patch_73">
    <path d="M 269.15 24.8 
L 453.631302 24.8 
" style="fill:none;stroke:#000000;stroke-linecap:square;stroke-linejoin:miter;stroke-width:0.8;"/>
   </g>
   <g id="text_11">
    <!-- Updating Models -->
    <defs>
     <path d="M 8.6875 72.90625 
L 18.609375 72.90625 
L 18.609375 28.609375 
Q 18.609375 16.890625 22.84375 11.734375 
Q 27.09375 6.59375 36.625 6.59375 
Q 46.09375 6.59375 50.34375 11.734375 
Q 54.59375 16.890625 54.59375 28.609375 
L 54.59375 72.90625 
L 64.5 72.90625 
L 64.5 27.390625 
Q 64.5 13.140625 57.4375 5.859375 
Q 50.390625 -1.421875 36.625 -1.421875 
Q 22.796875 -1.421875 15.734375 5.859375 
Q 8.6875 13.140625 8.6875 27.390625 
z
" id="DejaVuSans-85"/>
     <path d="M 18.109375 8.203125 
L 18.109375 -20.796875 
L 9.078125 -20.796875 
L 9.078125 54.6875 
L 18.109375 54.6875 
L 18.109375 46.390625 
Q 20.953125 51.265625 25.265625 53.625 
Q 29.59375 56 35.59375 56 
Q 45.5625 56 51.78125 48.09375 
Q 58.015625 40.1875 58.015625 27.296875 
Q 58.015625 14.40625 51.78125 6.484375 
Q 45.5625 -1.421875 35.59375 -1.421875 
Q 29.59375 -1.421875 25.265625 0.953125 
Q 20.953125 3.328125 18.109375 8.203125 
z
M 48.6875 27.296875 
Q 48.6875 37.203125 44.609375 42.84375 
Q 40.53125 48.484375 33.40625 48.484375 
Q 26.265625 48.484375 22.1875 42.84375 
Q 18.109375 37.203125 18.109375 27.296875 
Q 18.109375 17.390625 22.1875 11.75 
Q 26.265625 6.109375 33.40625 6.109375 
Q 40.53125 6.109375 44.609375 11.75 
Q 48.6875 17.390625 48.6875 27.296875 
z
" id="DejaVuSans-112"/>
     <path d="M 45.40625 27.984375 
Q 45.40625 37.75 41.375 43.109375 
Q 37.359375 48.484375 30.078125 48.484375 
Q 22.859375 48.484375 18.828125 43.109375 
Q 14.796875 37.75 14.796875 27.984375 
Q 14.796875 18.265625 18.828125 12.890625 
Q 22.859375 7.515625 30.078125 7.515625 
Q 37.359375 7.515625 41.375 12.890625 
Q 45.40625 18.265625 45.40625 27.984375 
z
M 54.390625 6.78125 
Q 54.390625 -7.171875 48.1875 -13.984375 
Q 42 -20.796875 29.203125 -20.796875 
Q 24.46875 -20.796875 20.265625 -20.09375 
Q 16.0625 -19.390625 12.109375 -17.921875 
L 12.109375 -9.1875 
Q 16.0625 -11.328125 19.921875 -12.34375 
Q 23.78125 -13.375 27.78125 -13.375 
Q 36.625 -13.375 41.015625 -8.765625 
Q 45.40625 -4.15625 45.40625 5.171875 
L 45.40625 9.625 
Q 42.625 4.78125 38.28125 2.390625 
Q 33.9375 0 27.875 0 
Q 17.828125 0 11.671875 7.65625 
Q 5.515625 15.328125 5.515625 27.984375 
Q 5.515625 40.671875 11.671875 48.328125 
Q 17.828125 56 27.875 56 
Q 33.9375 56 38.28125 53.609375 
Q 42.625 51.21875 45.40625 46.390625 
L 45.40625 54.6875 
L 54.390625 54.6875 
z
" id="DejaVuSans-103"/>
     <path d="M 9.8125 72.90625 
L 24.515625 72.90625 
L 43.109375 23.296875 
L 61.8125 72.90625 
L 76.515625 72.90625 
L 76.515625 0 
L 66.890625 0 
L 66.890625 64.015625 
L 48.09375 14.015625 
L 38.1875 14.015625 
L 19.390625 64.015625 
L 19.390625 0 
L 9.8125 0 
z
" id="DejaVuSans-77"/>
     <path d="M 44.28125 53.078125 
L 44.28125 44.578125 
Q 40.484375 46.53125 36.375 47.5 
Q 32.28125 48.484375 27.875 48.484375 
Q 21.1875 48.484375 17.84375 46.4375 
Q 14.5 44.390625 14.5 40.28125 
Q 14.5 37.15625 16.890625 35.375 
Q 19.28125 33.59375 26.515625 31.984375 
L 29.59375 31.296875 
Q 39.15625 29.25 43.1875 25.515625 
Q 47.21875 21.78125 47.21875 15.09375 
Q 47.21875 7.46875 41.1875 3.015625 
Q 35.15625 -1.421875 24.609375 -1.421875 
Q 20.21875 -1.421875 15.453125 -0.5625 
Q 10.6875 0.296875 5.421875 2 
L 5.421875 11.28125 
Q 10.40625 8.6875 15.234375 7.390625 
Q 20.0625 6.109375 24.8125 6.109375 
Q 31.15625 6.109375 34.5625 8.28125 
Q 37.984375 10.453125 37.984375 14.40625 
Q 37.984375 18.0625 35.515625 20.015625 
Q 33.0625 21.96875 24.703125 23.78125 
L 21.578125 24.515625 
Q 13.234375 26.265625 9.515625 29.90625 
Q 5.8125 33.546875 5.8125 39.890625 
Q 5.8125 47.609375 11.28125 51.796875 
Q 16.75 56 26.8125 56 
Q 31.78125 56 36.171875 55.265625 
Q 40.578125 54.546875 44.28125 53.078125 
z
" id="DejaVuSans-115"/>
    </defs>
    <g transform="translate(319.419557 18.8)scale(0.1 -0.1)">
     <use xlink:href="#DejaVuSans-85"/>
     <use x="73.193359" xlink:href="#DejaVuSans-112"/>
     <use x="136.669922" xlink:href="#DejaVuSans-100"/>
     <use x="200.146484" xlink:href="#DejaVuSans-97"/>
     <use x="261.425781" xlink:href="#DejaVuSans-116"/>
     <use x="300.634766" xlink:href="#DejaVuSans-105"/>
     <use x="328.417969" xlink:href="#DejaVuSans-110"/>
     <use x="391.796875" xlink:href="#DejaVuSans-103"/>
     <use x="455.273438" xlink:href="#DejaVuSans-32"/>
     <use x="487.060547" xlink:href="#DejaVuSans-77"/>
     <use x="573.339844" xlink:href="#DejaVuSans-111"/>
     <use x="634.521484" xlink:href="#DejaVuSans-100"/>
     <use x="697.998047" xlink:href="#DejaVuSans-101"/>
     <use x="759.521484" xlink:href="#DejaVuSans-108"/>
     <use x="787.304688" xlink:href="#DejaVuSans-115"/>
    </g>
   </g>
  </g>
  <g id="axes_3">
   <g id="patch_74">
    <path d="M 56.925 246.2 
L 241.406302 246.2 
L 241.406302 154.9 
L 56.925 154.9 
z
" style="fill:#ffffff;"/>
   </g>
   <g id="patch_75">
    <path clip-path="url(#p7bec949412)" d="M 65.310514 246.2 
L 70.720523 246.2 
L 70.720523 246.2 
L 65.310514 246.2 
z
" style="fill:#1f77b4;"/>
   </g>
   <g id="patch_76">
    <path clip-path="url(#p7bec949412)" d="M 70.720523 246.2 
L 76.130531 246.2 
L 76.130531 246.2 
L 70.720523 246.2 
z
" style="fill:#1f77b4;"/>
   </g>
   <g id="patch_77">
    <path clip-path="url(#p7bec949412)" d="M 76.130531 246.2 
L 81.54054 246.2 
L 81.54054 246.2 
L 76.130531 246.2 
z
" style="fill:#1f77b4;"/>
   </g>
   <g id="patch_78">
    <path clip-path="url(#p7bec949412)" d="M 81.54054 246.2 
L 86.950549 246.2 
L 86.950549 246.2 
L 81.54054 246.2 
z
" style="fill:#1f77b4;"/>
   </g>
   <g id="patch_79">
    <path clip-path="url(#p7bec949412)" d="M 86.950549 246.2 
L 92.360558 246.2 
L 92.360558 246.2 
L 86.950549 246.2 
z
" style="fill:#1f77b4;"/>
   </g>
   <g id="patch_80">
    <path clip-path="url(#p7bec949412)" d="M 92.360558 246.2 
L 97.770567 246.2 
L 97.770567 202.72381 
L 92.360558 202.72381 
z
" style="fill:#1f77b4;"/>
   </g>
   <g id="patch_81">
    <path clip-path="url(#p7bec949412)" d="M 97.770567 246.2 
L 103.180576 246.2 
L 103.180576 246.2 
L 97.770567 246.2 
z
" style="fill:#1f77b4;"/>
   </g>
   <g id="patch_82">
    <path clip-path="url(#p7bec949412)" d="M 103.180576 246.2 
L 108.590584 246.2 
L 108.590584 246.2 
L 103.180576 246.2 
z
" style="fill:#1f77b4;"/>
   </g>
   <g id="patch_83">
    <path clip-path="url(#p7bec949412)" d="M 108.590584 246.2 
L 114.000593 246.2 
L 114.000593 246.2 
L 108.590584 246.2 
z
" style="fill:#1f77b4;"/>
   </g>
   <g id="patch_84">
    <path clip-path="url(#p7bec949412)" d="M 114.000593 246.2 
L 119.410602 246.2 
L 119.410602 246.2 
L 114.000593 246.2 
z
" style="fill:#1f77b4;"/>
   </g>
   <g id="patch_85">
    <path clip-path="url(#p7bec949412)" d="M 119.410602 246.2 
L 124.820611 246.2 
L 124.820611 246.2 
L 119.410602 246.2 
z
" style="fill:#1f77b4;"/>
   </g>
   <g id="patch_86">
    <path clip-path="url(#p7bec949412)" d="M 124.820611 246.2 
L 130.23062 246.2 
L 130.23062 246.2 
L 124.820611 246.2 
z
" style="fill:#1f77b4;"/>
   </g>
   <g id="patch_87">
    <path clip-path="url(#p7bec949412)" d="M 130.23062 246.2 
L 135.640629 246.2 
L 135.640629 246.2 
L 130.23062 246.2 
z
" style="fill:#1f77b4;"/>
   </g>
   <g id="patch_88">
    <path clip-path="url(#p7bec949412)" d="M 135.640629 246.2 
L 141.050638 246.2 
L 141.050638 202.72381 
L 135.640629 202.72381 
z
" style="fill:#1f77b4;"/>
   </g>
   <g id="patch_89">
    <path clip-path="url(#p7bec949412)" d="M 141.050638 246.2 
L 146.460646 246.2 
L 146.460646 202.72381 
L 141.050638 202.72381 
z
" style="fill:#1f77b4;"/>
   </g>
   <g id="patch_90">
    <path clip-path="url(#p7bec949412)" d="M 146.460646 246.2 
L 151.870655 246.2 
L 151.870655 246.2 
L 146.460646 246.2 
z
" style="fill:#1f77b4;"/>
   </g>
   <g id="patch_91">
    <path clip-path="url(#p7bec949412)" d="M 151.870655 246.2 
L 157.280664 246.2 
L 157.280664 159.247619 
L 151.870655 159.247619 
z
" style="fill:#1f77b4;"/>
   </g>
   <g id="patch_92">
    <path clip-path="url(#p7bec949412)" d="M 157.280664 246.2 
L 162.690673 246.2 
L 162.690673 246.2 
L 157.280664 246.2 
z
" style="fill:#1f77b4;"/>
   </g>
   <g id="patch_93">
    <path clip-path="url(#p7bec949412)" d="M 162.690673 246.2 
L 168.100682 246.2 
L 168.100682 202.72381 
L 162.690673 202.72381 
z
" style="fill:#1f77b4;"/>
   </g>
   <g id="patch_94">
    <path clip-path="url(#p7bec949412)" d="M 168.100682 246.2 
L 173.510691 246.2 
L 173.510691 246.2 
L 168.100682 246.2 
z
" style="fill:#1f77b4;"/>
   </g>
   <g id="patch_95">
    <path clip-path="url(#p7bec949412)" d="M 173.510691 246.2 
L 178.920699 246.2 
L 178.920699 246.2 
L 173.510691 246.2 
z
" style="fill:#1f77b4;"/>
   </g>
   <g id="patch_96">
    <path clip-path="url(#p7bec949412)" d="M 178.920699 246.2 
L 184.330708 246.2 
L 184.330708 202.72381 
L 178.920699 202.72381 
z
" style="fill:#1f77b4;"/>
   </g>
   <g id="patch_97">
    <path clip-path="url(#p7bec949412)" d="M 184.330708 246.2 
L 189.740717 246.2 
L 189.740717 246.2 
L 184.330708 246.2 
z
" style="fill:#1f77b4;"/>
   </g>
   <g id="patch_98">
    <path clip-path="url(#p7bec949412)" d="M 189.740717 246.2 
L 195.150726 246.2 
L 195.150726 246.2 
L 189.740717 246.2 
z
" style="fill:#1f77b4;"/>
   </g>
   <g id="patch_99">
    <path clip-path="url(#p7bec949412)" d="M 195.150726 246.2 
L 200.560735 246.2 
L 200.560735 246.2 
L 195.150726 246.2 
z
" style="fill:#1f77b4;"/>
   </g>
   <g id="patch_100">
    <path clip-path="url(#p7bec949412)" d="M 200.560735 246.2 
L 205.970744 246.2 
L 205.970744 246.2 
L 200.560735 246.2 
z
" style="fill:#1f77b4;"/>
   </g>
   <g id="patch_101">
    <path clip-path="url(#p7bec949412)" d="M 205.970744 246.2 
L 211.380753 246.2 
L 211.380753 246.2 
L 205.970744 246.2 
z
" style="fill:#1f77b4;"/>
   </g>
   <g id="patch_102">
    <path clip-path="url(#p7bec949412)" d="M 211.380753 246.2 
L 216.790761 246.2 
L 216.790761 246.2 
L 211.380753 246.2 
z
" style="fill:#1f77b4;"/>
   </g>
   <g id="patch_103">
    <path clip-path="url(#p7bec949412)" d="M 216.790761 246.2 
L 222.20077 246.2 
L 222.20077 246.2 
L 216.790761 246.2 
z
" style="fill:#1f77b4;"/>
   </g>
   <g id="patch_104">
    <path clip-path="url(#p7bec949412)" d="M 222.20077 246.2 
L 227.610779 246.2 
L 227.610779 246.2 
L 222.20077 246.2 
z
" style="fill:#1f77b4;"/>
   </g>
   <g id="patch_105">
    <path clip-path="url(#p7bec949412)" d="M 227.610779 246.2 
L 233.020788 246.2 
L 233.020788 246.2 
L 227.610779 246.2 
z
" style="fill:#1f77b4;"/>
   </g>
   <g id="matplotlib.axis_5">
    <g id="xtick_13">
     <g id="line2d_19">
      <g>
       <use style="stroke:#000000;stroke-width:0.8;" x="65.310514" xlink:href="#md3c06b9a25" y="246.2"/>
      </g>
     </g>
     <g id="text_12">
      <!-- 0.0 -->
      <defs>
       <path d="M 10.6875 12.40625 
L 21 12.40625 
L 21 0 
L 10.6875 0 
z
" id="DejaVuSans-46"/>
      </defs>
      <g transform="translate(57.358951 260.798437)scale(0.1 -0.1)">
       <use xlink:href="#DejaVuSans-48"/>
       <use x="63.623047" xlink:href="#DejaVuSans-46"/>
       <use x="95.410156" xlink:href="#DejaVuSans-48"/>
      </g>
     </g>
    </g>
    <g id="xtick_14">
     <g id="line2d_20">
      <g>
       <use style="stroke:#000000;stroke-width:0.8;" x="98.852569" xlink:href="#md3c06b9a25" y="246.2"/>
      </g>
     </g>
     <g id="text_13">
      <!-- 0.2 -->
      <g transform="translate(90.901006 260.798437)scale(0.1 -0.1)">
       <use xlink:href="#DejaVuSans-48"/>
       <use x="63.623047" xlink:href="#DejaVuSans-46"/>
       <use x="95.410156" xlink:href="#DejaVuSans-50"/>
      </g>
     </g>
    </g>
    <g id="xtick_15">
     <g id="line2d_21">
      <g>
       <use style="stroke:#000000;stroke-width:0.8;" x="132.394623" xlink:href="#md3c06b9a25" y="246.2"/>
      </g>
     </g>
     <g id="text_14">
      <!-- 0.4 -->
      <g transform="translate(124.443061 260.798437)scale(0.1 -0.1)">
       <use xlink:href="#DejaVuSans-48"/>
       <use x="63.623047" xlink:href="#DejaVuSans-46"/>
       <use x="95.410156" xlink:href="#DejaVuSans-52"/>
      </g>
     </g>
    </g>
    <g id="xtick_16">
     <g id="line2d_22">
      <g>
       <use style="stroke:#000000;stroke-width:0.8;" x="165.936678" xlink:href="#md3c06b9a25" y="246.2"/>
      </g>
     </g>
     <g id="text_15">
      <!-- 0.6 -->
      <defs>
       <path d="M 33.015625 40.375 
Q 26.375 40.375 22.484375 35.828125 
Q 18.609375 31.296875 18.609375 23.390625 
Q 18.609375 15.53125 22.484375 10.953125 
Q 26.375 6.390625 33.015625 6.390625 
Q 39.65625 6.390625 43.53125 10.953125 
Q 47.40625 15.53125 47.40625 23.390625 
Q 47.40625 31.296875 43.53125 35.828125 
Q 39.65625 40.375 33.015625 40.375 
z
M 52.59375 71.296875 
L 52.59375 62.3125 
Q 48.875 64.0625 45.09375 64.984375 
Q 41.3125 65.921875 37.59375 65.921875 
Q 27.828125 65.921875 22.671875 59.328125 
Q 17.53125 52.734375 16.796875 39.40625 
Q 19.671875 43.65625 24.015625 45.921875 
Q 28.375 48.1875 33.59375 48.1875 
Q 44.578125 48.1875 50.953125 41.515625 
Q 57.328125 34.859375 57.328125 23.390625 
Q 57.328125 12.15625 50.6875 5.359375 
Q 44.046875 -1.421875 33.015625 -1.421875 
Q 20.359375 -1.421875 13.671875 8.265625 
Q 6.984375 17.96875 6.984375 36.375 
Q 6.984375 53.65625 15.1875 63.9375 
Q 23.390625 74.21875 37.203125 74.21875 
Q 40.921875 74.21875 44.703125 73.484375 
Q 48.484375 72.75 52.59375 71.296875 
z
" id="DejaVuSans-54"/>
      </defs>
      <g transform="translate(157.985116 260.798437)scale(0.1 -0.1)">
       <use xlink:href="#DejaVuSans-48"/>
       <use x="63.623047" xlink:href="#DejaVuSans-46"/>
       <use x="95.410156" xlink:href="#DejaVuSans-54"/>
      </g>
     </g>
    </g>
    <g id="xtick_17">
     <g id="line2d_23">
      <g>
       <use style="stroke:#000000;stroke-width:0.8;" x="199.478733" xlink:href="#md3c06b9a25" y="246.2"/>
      </g>
     </g>
     <g id="text_16">
      <!-- 0.8 -->
      <defs>
       <path d="M 31.78125 34.625 
Q 24.75 34.625 20.71875 30.859375 
Q 16.703125 27.09375 16.703125 20.515625 
Q 16.703125 13.921875 20.71875 10.15625 
Q 24.75 6.390625 31.78125 6.390625 
Q 38.8125 6.390625 42.859375 10.171875 
Q 46.921875 13.96875 46.921875 20.515625 
Q 46.921875 27.09375 42.890625 30.859375 
Q 38.875 34.625 31.78125 34.625 
z
M 21.921875 38.8125 
Q 15.578125 40.375 12.03125 44.71875 
Q 8.5 49.078125 8.5 55.328125 
Q 8.5 64.0625 14.71875 69.140625 
Q 20.953125 74.21875 31.78125 74.21875 
Q 42.671875 74.21875 48.875 69.140625 
Q 55.078125 64.0625 55.078125 55.328125 
Q 55.078125 49.078125 51.53125 44.71875 
Q 48 40.375 41.703125 38.8125 
Q 48.828125 37.15625 52.796875 32.3125 
Q 56.78125 27.484375 56.78125 20.515625 
Q 56.78125 9.90625 50.3125 4.234375 
Q 43.84375 -1.421875 31.78125 -1.421875 
Q 19.734375 -1.421875 13.25 4.234375 
Q 6.78125 9.90625 6.78125 20.515625 
Q 6.78125 27.484375 10.78125 32.3125 
Q 14.796875 37.15625 21.921875 38.8125 
z
M 18.3125 54.390625 
Q 18.3125 48.734375 21.84375 45.5625 
Q 25.390625 42.390625 31.78125 42.390625 
Q 38.140625 42.390625 41.71875 45.5625 
Q 45.3125 48.734375 45.3125 54.390625 
Q 45.3125 60.0625 41.71875 63.234375 
Q 38.140625 66.40625 31.78125 66.40625 
Q 25.390625 66.40625 21.84375 63.234375 
Q 18.3125 60.0625 18.3125 54.390625 
z
" id="DejaVuSans-56"/>
      </defs>
      <g transform="translate(191.527171 260.798437)scale(0.1 -0.1)">
       <use xlink:href="#DejaVuSans-48"/>
       <use x="63.623047" xlink:href="#DejaVuSans-46"/>
       <use x="95.410156" xlink:href="#DejaVuSans-56"/>
      </g>
     </g>
    </g>
    <g id="xtick_18">
     <g id="line2d_24">
      <g>
       <use style="stroke:#000000;stroke-width:0.8;" x="233.020788" xlink:href="#md3c06b9a25" y="246.2"/>
      </g>
     </g>
     <g id="text_17">
      <!-- 1.0 -->
      <g transform="translate(225.069225 260.798437)scale(0.1 -0.1)">
       <use xlink:href="#DejaVuSans-49"/>
       <use x="63.623047" xlink:href="#DejaVuSans-46"/>
       <use x="95.410156" xlink:href="#DejaVuSans-48"/>
      </g>
     </g>
    </g>
    <g id="text_18">
     <!-- Overhead Fraction -->
     <g transform="translate(102.750026 274.476562)scale(0.1 -0.1)">
      <use xlink:href="#DejaVuSans-79"/>
      <use x="78.710938" xlink:href="#DejaVuSans-118"/>
      <use x="137.890625" xlink:href="#DejaVuSans-101"/>
      <use x="199.414062" xlink:href="#DejaVuSans-114"/>
      <use x="240.511719" xlink:href="#DejaVuSans-104"/>
      <use x="303.890625" xlink:href="#DejaVuSans-101"/>
      <use x="365.414062" xlink:href="#DejaVuSans-97"/>
      <use x="426.693359" xlink:href="#DejaVuSans-100"/>
      <use x="490.169922" xlink:href="#DejaVuSans-32"/>
      <use x="521.957031" xlink:href="#DejaVuSans-70"/>
      <use x="579.367188" xlink:href="#DejaVuSans-114"/>
      <use x="620.480469" xlink:href="#DejaVuSans-97"/>
      <use x="681.759766" xlink:href="#DejaVuSans-99"/>
      <use x="736.740234" xlink:href="#DejaVuSans-116"/>
      <use x="775.949219" xlink:href="#DejaVuSans-105"/>
      <use x="803.732422" xlink:href="#DejaVuSans-111"/>
      <use x="864.914062" xlink:href="#DejaVuSans-110"/>
     </g>
    </g>
   </g>
   <g id="matplotlib.axis_6">
    <g id="ytick_7">
     <g id="line2d_25">
      <g>
       <use style="stroke:#000000;stroke-width:0.8;" x="56.925" xlink:href="#mf20308f656" y="246.2"/>
      </g>
     </g>
     <g id="text_19">
      <!-- 0 -->
      <g transform="translate(43.5625 249.999219)scale(0.1 -0.1)">
       <use xlink:href="#DejaVuSans-48"/>
      </g>
     </g>
    </g>
    <g id="ytick_8">
     <g id="line2d_26">
      <g>
       <use style="stroke:#000000;stroke-width:0.8;" x="56.925" xlink:href="#mf20308f656" y="202.72381"/>
      </g>
     </g>
     <g id="text_20">
      <!-- 1 -->
      <g transform="translate(43.5625 206.523028)scale(0.1 -0.1)">
       <use xlink:href="#DejaVuSans-49"/>
      </g>
     </g>
    </g>
    <g id="ytick_9">
     <g id="line2d_27">
      <g>
       <use style="stroke:#000000;stroke-width:0.8;" x="56.925" xlink:href="#mf20308f656" y="159.247619"/>
      </g>
     </g>
     <g id="text_21">
      <!-- 2 -->
      <g transform="translate(43.5625 163.046838)scale(0.1 -0.1)">
       <use xlink:href="#DejaVuSans-50"/>
      </g>
     </g>
    </g>
    <g id="text_22">
     <!-- Frequency -->
     <g transform="translate(37.482812 226.847656)rotate(-90)scale(0.1 -0.1)">
      <use xlink:href="#DejaVuSans-70"/>
      <use x="57.410156" xlink:href="#DejaVuSans-114"/>
      <use x="98.492188" xlink:href="#DejaVuSans-101"/>
      <use x="160.015625" xlink:href="#DejaVuSans-113"/>
      <use x="223.492188" xlink:href="#DejaVuSans-117"/>
      <use x="286.871094" xlink:href="#DejaVuSans-101"/>
      <use x="348.394531" xlink:href="#DejaVuSans-110"/>
      <use x="411.773438" xlink:href="#DejaVuSans-99"/>
      <use x="466.753906" xlink:href="#DejaVuSans-121"/>
     </g>
    </g>
   </g>
   <g id="patch_106">
    <path d="M 56.925 246.2 
L 56.925 154.9 
" style="fill:none;stroke:#000000;stroke-linecap:square;stroke-linejoin:miter;stroke-width:0.8;"/>
   </g>
   <g id="patch_107">
    <path d="M 241.406302 246.2 
L 241.406302 154.9 
" style="fill:none;stroke:#000000;stroke-linecap:square;stroke-linejoin:miter;stroke-width:0.8;"/>
   </g>
   <g id="patch_108">
    <path d="M 56.925 246.2 
L 241.406302 246.2 
" style="fill:none;stroke:#000000;stroke-linecap:square;stroke-linejoin:miter;stroke-width:0.8;"/>
   </g>
   <g id="patch_109">
    <path d="M 56.925 154.9 
L 241.406302 154.9 
" style="fill:none;stroke:#000000;stroke-linecap:square;stroke-linejoin:miter;stroke-width:0.8;"/>
   </g>
   <g id="text_23">
    <!-- Generating -->
    <defs>
     <path d="M 59.515625 10.40625 
L 59.515625 29.984375 
L 43.40625 29.984375 
L 43.40625 38.09375 
L 69.28125 38.09375 
L 69.28125 6.78125 
Q 63.578125 2.734375 56.6875 0.65625 
Q 49.8125 -1.421875 42 -1.421875 
Q 24.90625 -1.421875 15.25 8.5625 
Q 5.609375 18.5625 5.609375 36.375 
Q 5.609375 54.25 15.25 64.234375 
Q 24.90625 74.21875 42 74.21875 
Q 49.125 74.21875 55.546875 72.453125 
Q 61.96875 70.703125 67.390625 67.28125 
L 67.390625 56.78125 
Q 61.921875 61.421875 55.765625 63.765625 
Q 49.609375 66.109375 42.828125 66.109375 
Q 29.4375 66.109375 22.71875 58.640625 
Q 16.015625 51.171875 16.015625 36.375 
Q 16.015625 21.625 22.71875 14.15625 
Q 29.4375 6.6875 42.828125 6.6875 
Q 48.046875 6.6875 52.140625 7.59375 
Q 56.25 8.5 59.515625 10.40625 
z
" id="DejaVuSans-71"/>
    </defs>
    <g transform="translate(121.157838 148.9)scale(0.1 -0.1)">
     <use xlink:href="#DejaVuSans-71"/>
     <use x="77.490234" xlink:href="#DejaVuSans-101"/>
     <use x="139.013672" xlink:href="#DejaVuSans-110"/>
     <use x="202.392578" xlink:href="#DejaVuSans-101"/>
     <use x="263.916016" xlink:href="#DejaVuSans-114"/>
     <use x="305.029297" xlink:href="#DejaVuSans-97"/>
     <use x="366.308594" xlink:href="#DejaVuSans-116"/>
     <use x="405.517578" xlink:href="#DejaVuSans-105"/>
     <use x="433.300781" xlink:href="#DejaVuSans-110"/>
     <use x="496.679688" xlink:href="#DejaVuSans-103"/>
    </g>
   </g>
  </g>
  <g id="axes_4">
   <g id="patch_110">
    <path d="M 269.15 246.2 
L 453.631302 246.2 
L 453.631302 154.9 
L 269.15 154.9 
z
" style="fill:#ffffff;"/>
   </g>
   <g id="patch_111">
    <path clip-path="url(#pb80caba7eb)" d="M 277.535514 246.2 
L 282.945523 246.2 
L 282.945523 246.2 
L 277.535514 246.2 
z
" style="fill:#1f77b4;"/>
   </g>
   <g id="patch_112">
    <path clip-path="url(#pb80caba7eb)" d="M 282.945523 246.2 
L 288.355531 246.2 
L 288.355531 202.72381 
L 282.945523 202.72381 
z
" style="fill:#1f77b4;"/>
   </g>
   <g id="patch_113">
    <path clip-path="url(#pb80caba7eb)" d="M 288.355531 246.2 
L 293.76554 246.2 
L 293.76554 246.2 
L 288.355531 246.2 
z
" style="fill:#1f77b4;"/>
   </g>
   <g id="patch_114">
    <path clip-path="url(#pb80caba7eb)" d="M 293.76554 246.2 
L 299.175549 246.2 
L 299.175549 246.2 
L 293.76554 246.2 
z
" style="fill:#1f77b4;"/>
   </g>
   <g id="patch_115">
    <path clip-path="url(#pb80caba7eb)" d="M 299.175549 246.2 
L 304.585558 246.2 
L 304.585558 202.72381 
L 299.175549 202.72381 
z
" style="fill:#1f77b4;"/>
   </g>
   <g id="patch_116">
    <path clip-path="url(#pb80caba7eb)" d="M 304.585558 246.2 
L 309.995567 246.2 
L 309.995567 246.2 
L 304.585558 246.2 
z
" style="fill:#1f77b4;"/>
   </g>
   <g id="patch_117">
    <path clip-path="url(#pb80caba7eb)" d="M 309.995567 246.2 
L 315.405576 246.2 
L 315.405576 202.72381 
L 309.995567 202.72381 
z
" style="fill:#1f77b4;"/>
   </g>
   <g id="patch_118">
    <path clip-path="url(#pb80caba7eb)" d="M 315.405576 246.2 
L 320.815584 246.2 
L 320.815584 246.2 
L 315.405576 246.2 
z
" style="fill:#1f77b4;"/>
   </g>
   <g id="patch_119">
    <path clip-path="url(#pb80caba7eb)" d="M 320.815584 246.2 
L 326.225593 246.2 
L 326.225593 246.2 
L 320.815584 246.2 
z
" style="fill:#1f77b4;"/>
   </g>
   <g id="patch_120">
    <path clip-path="url(#pb80caba7eb)" d="M 326.225593 246.2 
L 331.635602 246.2 
L 331.635602 202.72381 
L 326.225593 202.72381 
z
" style="fill:#1f77b4;"/>
   </g>
   <g id="patch_121">
    <path clip-path="url(#pb80caba7eb)" d="M 331.635602 246.2 
L 337.045611 246.2 
L 337.045611 246.2 
L 331.635602 246.2 
z
" style="fill:#1f77b4;"/>
   </g>
   <g id="patch_122">
    <path clip-path="url(#pb80caba7eb)" d="M 337.045611 246.2 
L 342.45562 246.2 
L 342.45562 246.2 
L 337.045611 246.2 
z
" style="fill:#1f77b4;"/>
   </g>
   <g id="patch_123">
    <path clip-path="url(#pb80caba7eb)" d="M 342.45562 246.2 
L 347.865629 246.2 
L 347.865629 246.2 
L 342.45562 246.2 
z
" style="fill:#1f77b4;"/>
   </g>
   <g id="patch_124">
    <path clip-path="url(#pb80caba7eb)" d="M 347.865629 246.2 
L 353.275638 246.2 
L 353.275638 159.247619 
L 347.865629 159.247619 
z
" style="fill:#1f77b4;"/>
   </g>
   <g id="patch_125">
    <path clip-path="url(#pb80caba7eb)" d="M 353.275638 246.2 
L 358.685646 246.2 
L 358.685646 202.72381 
L 353.275638 202.72381 
z
" style="fill:#1f77b4;"/>
   </g>
   <g id="patch_126">
    <path clip-path="url(#pb80caba7eb)" d="M 358.685646 246.2 
L 364.095655 246.2 
L 364.095655 246.2 
L 358.685646 246.2 
z
" style="fill:#1f77b4;"/>
   </g>
   <g id="patch_127">
    <path clip-path="url(#pb80caba7eb)" d="M 364.095655 246.2 
L 369.505664 246.2 
L 369.505664 246.2 
L 364.095655 246.2 
z
" style="fill:#1f77b4;"/>
   </g>
   <g id="patch_128">
    <path clip-path="url(#pb80caba7eb)" d="M 369.505664 246.2 
L 374.915673 246.2 
L 374.915673 246.2 
L 369.505664 246.2 
z
" style="fill:#1f77b4;"/>
   </g>
   <g id="patch_129">
    <path clip-path="url(#pb80caba7eb)" d="M 374.915673 246.2 
L 380.325682 246.2 
L 380.325682 246.2 
L 374.915673 246.2 
z
" style="fill:#1f77b4;"/>
   </g>
   <g id="patch_130">
    <path clip-path="url(#pb80caba7eb)" d="M 380.325682 246.2 
L 385.735691 246.2 
L 385.735691 246.2 
L 380.325682 246.2 
z
" style="fill:#1f77b4;"/>
   </g>
   <g id="patch_131">
    <path clip-path="url(#pb80caba7eb)" d="M 385.735691 246.2 
L 391.145699 246.2 
L 391.145699 246.2 
L 385.735691 246.2 
z
" style="fill:#1f77b4;"/>
   </g>
   <g id="patch_132">
    <path clip-path="url(#pb80caba7eb)" d="M 391.145699 246.2 
L 396.555708 246.2 
L 396.555708 246.2 
L 391.145699 246.2 
z
" style="fill:#1f77b4;"/>
   </g>
   <g id="patch_133">
    <path clip-path="url(#pb80caba7eb)" d="M 396.555708 246.2 
L 401.965717 246.2 
L 401.965717 246.2 
L 396.555708 246.2 
z
" style="fill:#1f77b4;"/>
   </g>
   <g id="patch_134">
    <path clip-path="url(#pb80caba7eb)" d="M 401.965717 246.2 
L 407.375726 246.2 
L 407.375726 246.2 
L 401.965717 246.2 
z
" style="fill:#1f77b4;"/>
   </g>
   <g id="patch_135">
    <path clip-path="url(#pb80caba7eb)" d="M 407.375726 246.2 
L 412.785735 246.2 
L 412.785735 246.2 
L 407.375726 246.2 
z
" style="fill:#1f77b4;"/>
   </g>
   <g id="patch_136">
    <path clip-path="url(#pb80caba7eb)" d="M 412.785735 246.2 
L 418.195744 246.2 
L 418.195744 246.2 
L 412.785735 246.2 
z
" style="fill:#1f77b4;"/>
   </g>
   <g id="patch_137">
    <path clip-path="url(#pb80caba7eb)" d="M 418.195744 246.2 
L 423.605753 246.2 
L 423.605753 246.2 
L 418.195744 246.2 
z
" style="fill:#1f77b4;"/>
   </g>
   <g id="patch_138">
    <path clip-path="url(#pb80caba7eb)" d="M 423.605753 246.2 
L 429.015761 246.2 
L 429.015761 246.2 
L 423.605753 246.2 
z
" style="fill:#1f77b4;"/>
   </g>
   <g id="patch_139">
    <path clip-path="url(#pb80caba7eb)" d="M 429.015761 246.2 
L 434.42577 246.2 
L 434.42577 246.2 
L 429.015761 246.2 
z
" style="fill:#1f77b4;"/>
   </g>
   <g id="patch_140">
    <path clip-path="url(#pb80caba7eb)" d="M 434.42577 246.2 
L 439.835779 246.2 
L 439.835779 246.2 
L 434.42577 246.2 
z
" style="fill:#1f77b4;"/>
   </g>
   <g id="patch_141">
    <path clip-path="url(#pb80caba7eb)" d="M 439.835779 246.2 
L 445.245788 246.2 
L 445.245788 246.2 
L 439.835779 246.2 
z
" style="fill:#1f77b4;"/>
   </g>
   <g id="matplotlib.axis_7">
    <g id="xtick_19">
     <g id="line2d_28">
      <g>
       <use style="stroke:#000000;stroke-width:0.8;" x="277.535514" xlink:href="#md3c06b9a25" y="246.2"/>
      </g>
     </g>
     <g id="text_24">
      <!-- 0.0 -->
      <g transform="translate(269.583951 260.798437)scale(0.1 -0.1)">
       <use xlink:href="#DejaVuSans-48"/>
       <use x="63.623047" xlink:href="#DejaVuSans-46"/>
       <use x="95.410156" xlink:href="#DejaVuSans-48"/>
      </g>
     </g>
    </g>
    <g id="xtick_20">
     <g id="line2d_29">
      <g>
       <use style="stroke:#000000;stroke-width:0.8;" x="311.077569" xlink:href="#md3c06b9a25" y="246.2"/>
      </g>
     </g>
     <g id="text_25">
      <!-- 0.2 -->
      <g transform="translate(303.126006 260.798437)scale(0.1 -0.1)">
       <use xlink:href="#DejaVuSans-48"/>
       <use x="63.623047" xlink:href="#DejaVuSans-46"/>
       <use x="95.410156" xlink:href="#DejaVuSans-50"/>
      </g>
     </g>
    </g>
    <g id="xtick_21">
     <g id="line2d_30">
      <g>
       <use style="stroke:#000000;stroke-width:0.8;" x="344.619623" xlink:href="#md3c06b9a25" y="246.2"/>
      </g>
     </g>
     <g id="text_26">
      <!-- 0.4 -->
      <g transform="translate(336.668061 260.798437)scale(0.1 -0.1)">
       <use xlink:href="#DejaVuSans-48"/>
       <use x="63.623047" xlink:href="#DejaVuSans-46"/>
       <use x="95.410156" xlink:href="#DejaVuSans-52"/>
      </g>
     </g>
    </g>
    <g id="xtick_22">
     <g id="line2d_31">
      <g>
       <use style="stroke:#000000;stroke-width:0.8;" x="378.161678" xlink:href="#md3c06b9a25" y="246.2"/>
      </g>
     </g>
     <g id="text_27">
      <!-- 0.6 -->
      <g transform="translate(370.210116 260.798437)scale(0.1 -0.1)">
       <use xlink:href="#DejaVuSans-48"/>
       <use x="63.623047" xlink:href="#DejaVuSans-46"/>
       <use x="95.410156" xlink:href="#DejaVuSans-54"/>
      </g>
     </g>
    </g>
    <g id="xtick_23">
     <g id="line2d_32">
      <g>
       <use style="stroke:#000000;stroke-width:0.8;" x="411.703733" xlink:href="#md3c06b9a25" y="246.2"/>
      </g>
     </g>
     <g id="text_28">
      <!-- 0.8 -->
      <g transform="translate(403.752171 260.798437)scale(0.1 -0.1)">
       <use xlink:href="#DejaVuSans-48"/>
       <use x="63.623047" xlink:href="#DejaVuSans-46"/>
       <use x="95.410156" xlink:href="#DejaVuSans-56"/>
      </g>
     </g>
    </g>
    <g id="xtick_24">
     <g id="line2d_33">
      <g>
       <use style="stroke:#000000;stroke-width:0.8;" x="445.245788" xlink:href="#md3c06b9a25" y="246.2"/>
      </g>
     </g>
     <g id="text_29">
      <!-- 1.0 -->
      <g transform="translate(437.294225 260.798437)scale(0.1 -0.1)">
       <use xlink:href="#DejaVuSans-49"/>
       <use x="63.623047" xlink:href="#DejaVuSans-46"/>
       <use x="95.410156" xlink:href="#DejaVuSans-48"/>
      </g>
     </g>
    </g>
    <g id="text_30">
     <!-- Overhead Fraction -->
     <g transform="translate(314.975026 274.476562)scale(0.1 -0.1)">
      <use xlink:href="#DejaVuSans-79"/>
      <use x="78.710938" xlink:href="#DejaVuSans-118"/>
      <use x="137.890625" xlink:href="#DejaVuSans-101"/>
      <use x="199.414062" xlink:href="#DejaVuSans-114"/>
      <use x="240.511719" xlink:href="#DejaVuSans-104"/>
      <use x="303.890625" xlink:href="#DejaVuSans-101"/>
      <use x="365.414062" xlink:href="#DejaVuSans-97"/>
      <use x="426.693359" xlink:href="#DejaVuSans-100"/>
      <use x="490.169922" xlink:href="#DejaVuSans-32"/>
      <use x="521.957031" xlink:href="#DejaVuSans-70"/>
      <use x="579.367188" xlink:href="#DejaVuSans-114"/>
      <use x="620.480469" xlink:href="#DejaVuSans-97"/>
      <use x="681.759766" xlink:href="#DejaVuSans-99"/>
      <use x="736.740234" xlink:href="#DejaVuSans-116"/>
      <use x="775.949219" xlink:href="#DejaVuSans-105"/>
      <use x="803.732422" xlink:href="#DejaVuSans-111"/>
      <use x="864.914062" xlink:href="#DejaVuSans-110"/>
     </g>
    </g>
   </g>
   <g id="matplotlib.axis_8">
    <g id="ytick_10">
     <g id="line2d_34">
      <g>
       <use style="stroke:#000000;stroke-width:0.8;" x="269.15" xlink:href="#mf20308f656" y="246.2"/>
      </g>
     </g>
     <g id="text_31">
      <!-- 0 -->
      <g transform="translate(255.7875 249.999219)scale(0.1 -0.1)">
       <use xlink:href="#DejaVuSans-48"/>
      </g>
     </g>
    </g>
    <g id="ytick_11">
     <g id="line2d_35">
      <g>
       <use style="stroke:#000000;stroke-width:0.8;" x="269.15" xlink:href="#mf20308f656" y="202.72381"/>
      </g>
     </g>
     <g id="text_32">
      <!-- 1 -->
      <g transform="translate(255.7875 206.523028)scale(0.1 -0.1)">
       <use xlink:href="#DejaVuSans-49"/>
      </g>
     </g>
    </g>
    <g id="ytick_12">
     <g id="line2d_36">
      <g>
       <use style="stroke:#000000;stroke-width:0.8;" x="269.15" xlink:href="#mf20308f656" y="159.247619"/>
      </g>
     </g>
     <g id="text_33">
      <!-- 2 -->
      <g transform="translate(255.7875 163.046838)scale(0.1 -0.1)">
       <use xlink:href="#DejaVuSans-50"/>
      </g>
     </g>
    </g>
   </g>
   <g id="patch_142">
    <path d="M 269.15 246.2 
L 269.15 154.9 
" style="fill:none;stroke:#000000;stroke-linecap:square;stroke-linejoin:miter;stroke-width:0.8;"/>
   </g>
   <g id="patch_143">
    <path d="M 453.631302 246.2 
L 453.631302 154.9 
" style="fill:none;stroke:#000000;stroke-linecap:square;stroke-linejoin:miter;stroke-width:0.8;"/>
   </g>
   <g id="patch_144">
    <path d="M 269.15 246.2 
L 453.631302 246.2 
" style="fill:none;stroke:#000000;stroke-linecap:square;stroke-linejoin:miter;stroke-width:0.8;"/>
   </g>
   <g id="patch_145">
    <path d="M 269.15 154.9 
L 453.631302 154.9 
" style="fill:none;stroke:#000000;stroke-linecap:square;stroke-linejoin:miter;stroke-width:0.8;"/>
   </g>
   <g id="text_34">
    <!-- Screening -->
    <g transform="translate(336.359401 148.9)scale(0.1 -0.1)">
     <use xlink:href="#DejaVuSans-83"/>
     <use x="63.476562" xlink:href="#DejaVuSans-99"/>
     <use x="118.457031" xlink:href="#DejaVuSans-114"/>
     <use x="159.539062" xlink:href="#DejaVuSans-101"/>
     <use x="221.0625" xlink:href="#DejaVuSans-101"/>
     <use x="282.585938" xlink:href="#DejaVuSans-110"/>
     <use x="345.964844" xlink:href="#DejaVuSans-105"/>
     <use x="373.748047" xlink:href="#DejaVuSans-110"/>
     <use x="437.126953" xlink:href="#DejaVuSans-103"/>
    </g>
   </g>
  </g>
 </g>
 <defs>
  <clipPath id="p6a4b97df6b">
   <rect height="91.3" width="184.481302" x="56.925" y="24.8"/>
  </clipPath>
  <clipPath id="p6e058b5eaf">
   <rect height="91.3" width="184.481302" x="269.15" y="24.8"/>
  </clipPath>
  <clipPath id="p7bec949412">
   <rect height="91.3" width="184.481302" x="56.925" y="154.9"/>
  </clipPath>
  <clipPath id="pb80caba7eb">
   <rect height="91.3" width="184.481302" x="269.15" y="154.9"/>
  </clipPath>
 </defs>
</svg>
